thincompressed.ufo
<glyph name="dollar" format="1">
  <advance width="365"/>
  <unicode hex="0024"/>
  <outline>
    <contour>
      <point x="54" y="99"/>
      <point x="32" y="99"/>
      <point x="54" y="99" type="curve"/>
      <point x="54" y="219"/>
      <point x="54" y="99"/>
      <point x="54" y="219" type="curve"/>
      <point x="32" y="219"/>
      <point x="54" y="219"/>
      <point x="32" y="219" type="curve"/>
      <point x="32" y="99"/>
      <point x="32" y="219"/>
      <point x="32" y="99" type="curve"/>
    </contour>
    <contour>
      <point x="298.22" y="631.081888889"/>
      <point x="320" y="631.081888889"/>
      <point x="298.22" y="631.081888889" type="curve"/>
      <point x="298.22" y="511.081888889"/>
      <point x="298.22" y="631.081888889"/>
      <point x="298.22" y="511.081888889" type="curve"/>
      <point x="320" y="511.081888889"/>
      <point x="298.22" y="511.081888889"/>
      <point x="320" y="511.081888889" type="curve"/>
      <point x="320" y="631.081888889"/>
      <point x="320" y="511.081888889"/>
      <point x="320" y="631.081888889" type="curve"/>
    </contour>
    <contour>
      <point x="182.9" y="-43.1"/>
      <point x="158.7" y="-43.1"/>
      <point x="182.9" y="-43.1" type="curve"/>
      <point x="182.9" y="-9.1758948"/>
      <point x="182.9" y="24.7492281333"/>
      <point x="182.9" y="58.6733333333" type="curve"/>
      <point x="158.7" y="58.6733333333"/>
      <point x="182.9" y="58.6733333333"/>
      <point x="158.7" y="58.6733333333" type="curve"/>
      <point x="158.7" y="24.7492281333"/>
      <point x="158.7" y="-9.1758948"/>
      <point x="158.7" y="-43.1" type="curve"/>
    </contour>
    <contour>
      <point x="191.3" y="671.308888889"/>
      <point x="167.1" y="671.308888889"/>
      <point x="191.3" y="671.308888889" type="curve"/>
      <point x="191.3" y="705.232994089"/>
      <point x="191" y="739"/>
      <point x="191" y="773" type="curve"/>
      <point x="167" y="773"/>
      <point x="191" y="773"/>
      <point x="167" y="773" type="curve"/>
      <point x="167" y="739"/>
      <point x="167.1" y="705.232994089"/>
      <point x="167.1" y="671.308888889" type="curve"/>
    </contour>
    <contour>
      <point x="32" y="99"/>
      <point x="45" y="118"/>
      <point x="32" y="99" type="curve"/>
      <point x="68" y="73"/>
      <point x="114" y="48"/>
      <point x="170" y="48" type="curve"/>
      <point x="268" y="48"/>
      <point x="333.4" y="112.410661472"/>
      <point x="333.4" y="198.402333333" type="curve"/>
      <point x="333.4" y="281.422144567"/>
      <point x="268.136285461" y="335.928445547"/>
      <point x="188.1" y="384.670888889" type="curve"/>
      <point x="117.983220488" y="427.601316526"/>
      <point x="71.6" y="470.199675327"/>
      <point x="71.6" y="542.595555556" type="curve"/>
      <point x="71.6" y="608.505160178"/>
      <point x="112.246571753" y="661.526666667"/>
      <point x="182.5" y="661.526666667" type="curve"/>
      <point x="233.785386923" y="661.526666667"/>
      <point x="268.191207279" y="643.337586725"/>
      <point x="307.9" y="612.755888889" type="curve"/>
      <point x="320" y="631.081888889"/>
      <point x="307.9" y="612.755888889"/>
      <point x="320" y="631.081888889" type="curve"/>
      <point x="277.107237467" y="663.602059858"/>
      <point x="239.275931145" y="683.086666667"/>
      <point x="183.6" y="683.086666667" type="curve"/>
      <point x="98.2121724726" y="683.086666667"/>
      <point x="47.4" y="621.508484099"/>
      <point x="47.4" y="542.595555556" type="curve"/>
      <point x="47.4" y="462.155564487"/>
      <point x="97.0778319893" y="411.719982107"/>
      <point x="173.8" y="365.266888889" type="curve"/>
      <point x="247.557884696" y="321.577977299"/>
      <point x="309.2" y="273.345288496"/>
      <point x="309.2" y="197.324333333" type="curve"/>
      <point x="309.2" y="123.034755509"/>
      <point x="255.056237436" y="69.4533333333"/>
      <point x="171.9" y="69.4533333333" type="curve"/>
      <point x="120.681230163" y="69.4533333333"/>
      <point x="78.6791749218" y="94.7638576488"/>
      <point x="45.1" y="118.264222222" type="curve"/>
    </contour>
  </outline>
</glyph>
<glyph name="parenright" format="1">
  <advance width="382"/>
  <unicode hex="0029"/>
  <outline>
    <contour>
      <point x="109" y="-266.507"/>
      <point x="94.7" y="-252.493"/>
      <point x="109" y="-266.507" type="curve"/>
      <point x="242.957770688" y="-72.2391314434"/>
      <point x="291.6" y="90.4910102525"/>
      <point x="291.6" y="327.039" type="curve"/>
      <point x="291.6" y="557.380022713"/>
      <point x="249.603257696" y="718.011996067"/>
      <point x="111.8" y="902.546" type="curve"/>
      <point x="97.5" y="887.454"/>
      <point x="111.8" y="902.546"/>
      <point x="97.5" y="887.454" type="curve"/>
      <point x="227.790885486" y="705.511844404"/>
      <point x="266.3" y="549.282595734"/>
      <point x="266.3" y="325.961" type="curve"/>
      <point x="266.3" y="97.4248068349"/>
      <point x="219.262313664" y="-61.1641216382"/>
      <point x="94.7" y="-252.493" type="curve"/>
    </contour>
  </outline>
</glyph>
<glyph name="plus" format="1">
  <advance width="583"/>
  <unicode hex="002B"/>
  <outline>
    <contour>
      <point x="39.2" y="297.257555556"/>
      <point x="39.2" y="320.973555556"/>
      <point x="39.2" y="297.257555556" type="curve"/>
      <point x="39.2" y="297.257555556"/>
      <point x="521" y="297"/>
      <point x="521" y="297" type="curve"/>
      <point x="521" y="321"/>
      <point x="521" y="297"/>
      <point x="521" y="321" type="curve"/>
      <point x="521" y="321"/>
      <point x="39.2" y="320.973555556"/>
      <point x="39.2" y="320.973555556" type="curve"/>
    </contour>
    <contour>
      <point x="292" y="18"/>
      <point x="268" y="18"/>
      <point x="292" y="18" type="curve"/>
      <point x="292" y="18"/>
      <point x="292" y="588"/>
      <point x="292" y="588" type="curve"/>
      <point x="268" y="588"/>
      <point x="292" y="588"/>
      <point x="268" y="588" type="curve"/>
      <point x="268" y="588"/>
      <point x="268" y="18"/>
      <point x="268" y="18" type="curve"/>
    </contour>
  </outline>
</glyph>
<glyph name="period" format="1">
  <advance width="201"/>
  <unicode hex="002E"/>
  <outline>
    <contour>
      <point x="117" y="12"/>
      <point x="88" y="12"/>
      <point x="117" y="12" type="curve"/>
      <point x="117" y="21"/>
      <point x="111" y="26"/>
      <point x="102" y="26" type="curve"/>
      <point x="93" y="26"/>
      <point x="88" y="20"/>
      <point x="88" y="12" type="curve"/>
      <point x="117" y="12"/>
      <point x="88" y="12"/>
      <point x="117" y="12" type="curve"/>
      <point x="117" y="3"/>
      <point x="111" y="-2"/>
      <point x="102" y="-2" type="curve"/>
      <point x="93" y="-2"/>
      <point x="88" y="3"/>
      <point x="88" y="12" type="curve"/>
    </contour>
  </outline>
</glyph>
<glyph name="two" format="1">
  <advance width="391"/>
  <unicode hex="0032"/>
  <outline>
    <contour>
      <point x="343" y="22"/>
      <point x="322" y="22"/>
      <point x="343" y="22" type="curve"/>
      <point x="343" y="142"/>
      <point x="343" y="22"/>
      <point x="343" y="142" type="curve"/>
      <point x="322" y="142"/>
      <point x="343" y="142"/>
      <point x="322" y="142" type="curve"/>
      <point x="322" y="22"/>
      <point x="322" y="142"/>
      <point x="322" y="22" type="curve"/>
    </contour>
    <contour>
      <point x="43" y="0"/>
      <point x="43" y="22"/>
      <point x="43" y="0" type="curve"/>
      <point x="157" y="0"/>
      <point x="240" y="0"/>
      <point x="343" y="0" type="curve"/>
      <point x="343" y="22"/>
      <point x="343" y="0"/>
      <point x="343" y="22" type="curve"/>
      <point x="236" y="22"/>
      <point x="150" y="22"/>
      <point x="43" y="22" type="curve"/>
    </contour>
    <contour>
      <point x="76" y="563"/>
      <point x="54" y="573"/>
      <point x="75.5" y="563.067555556" type="curve"/>
      <point x="104.040582478" y="636.868647239"/>
      <point x="130" y="700"/>
      <point x="205" y="700" type="curve"/>
      <point x="291" y="700"/>
      <point x="317.8" y="626.659916821"/>
      <point x="317.8" y="525.593222222" type="curve"/>
      <point x="317.8" y="405.894078155"/>
      <point x="276.169185853" y="331.404963368"/>
      <point x="201.6" y="236.919555556" type="curve"/>
      <point x="148.519657919" y="165.242662393"/>
      <point x="96" y="93"/>
      <point x="43" y="22" type="curve"/>
      <point x="54" y="0"/>
      <point x="43" y="22"/>
      <point x="54" y="0" type="curve"/>
      <point x="108" y="73"/>
      <point x="162.747881675" y="146.339089698"/>
      <point x="217.0" y="219.671555556" type="curve"/>
      <point x="296.144550319" y="319.462496185"/>
      <point x="340.9" y="399.412672576"/>
      <point x="340.9" y="526.671222222" type="curve"/>
      <point x="340.9" y="642.023229289"/>
      <point x="307" y="727"/>
      <point x="206" y="727" type="curve"/>
      <point x="122" y="727"/>
      <point x="83" y="657"/>
      <point x="54" y="573" type="curve"/>
    </contour>
  </outline>
</glyph>
<glyph name="three" format="1">
  <advance width="371"/>
  <unicode hex="0033"/>
  <outline>
    <contour>
      <point x="43.1" y="56.0761111111"/>
      <point x="56.3" y="72.2461111111"/>
      <point x="43.1" y="56.0761111111" type="curve"/>
      <point x="82.7270404673" y="19.789331597"/>
      <point x="117.044152011" y="-5"/>
      <point x="171.3" y="-5" type="curve"/>
      <point x="281.514322372" y="-5"/>
      <point x="333.2" y="73.248906393"/>
      <point x="333.2" y="195.409" type="curve"/>
      <point x="333.2" y="307.821498451"/>
      <point x="277.508883499" y="393.610777778"/>
      <point x="161.7" y="393.610777778" type="curve"/>
      <point x="161.7" y="375.284777778"/>
      <point x="161.7" y="393.610777778"/>
      <point x="161.7" y="375.284777778" type="curve"/>
      <point x="249.963972509" y="375.284777778"/>
      <point x="310.1" y="299.624992451"/>
      <point x="310.1" y="194.331" type="curve"/>
      <point x="310.1" y="90.4287277001"/>
      <point x="257.066994887" y="21.56"/>
      <point x="172.4" y="21.56" type="curve"/>
      <point x="124.397280372" y="21.56"/>
      <point x="92.3298222692" y="40.9699748194"/>
      <point x="56.3" y="72.2461111111" type="curve"/>
    </contour>
    <contour>
      <point x="63" y="624.889666667"/>
      <point x="47.6" y="638.903666667"/>
      <point x="63" y="624.889666667" type="curve"/>
      <point x="81.6800245395" y="659.111632365"/>
      <point x="119.506638045" y="700.44"/>
      <point x="171.1" y="700.44" type="curve"/>
      <point x="251.737835443" y="700.44"/>
      <point x="287.0" y="639.069250782"/>
      <point x="287.0" y="549.539888889" type="curve"/>
      <point x="287.0" y="460.798219104"/>
      <point x="239.151500549" y="393.610777778"/>
      <point x="161.7" y="393.610777778" type="curve"/>
      <point x="161.7" y="375.284777778"/>
      <point x="161.7" y="393.610777778"/>
      <point x="161.7" y="375.284777778" type="curve"/>
      <point x="257.426388929" y="375.284777778"/>
      <point x="310.1" y="449.161480093"/>
      <point x="310.1" y="550.617888889" type="curve"/>
      <point x="310.1" y="654.498891079"/>
      <point x="267.326393546" y="727"/>
      <point x="173.3" y="727" type="curve"/>
      <point x="113.066182827" y="727"/>
      <point x="69.0321062037" y="680.389543934"/>
      <point x="47.6" y="638.903666667" type="curve"/>
    </contour>
  </outline>
</glyph>
<glyph name="five" format="1">
  <advance width="374"/>
  <unicode hex="0035"/>
  <outline>
    <contour>
      <point x="79.8" y="722"/>
      <point x="102.9" y="700.44"/>
      <point x="79.8" y="722" type="curve"/>
      <point x="79.8" y="618.83047615"/>
      <point x="80" y="516"/>
      <point x="80" y="406" type="curve"/>
      <point x="103" y="396"/>
      <point x="80" y="406"/>
      <point x="102.9" y="396.318333333" type="curve"/>
      <point x="102.9" y="497.691208483"/>
      <point x="102.9" y="599.06712485"/>
      <point x="102.9" y="700.44" type="curve"/>
    </contour>
    <contour>
      <point x="103" y="396"/>
      <point x="80" y="406"/>
      <point x="103" y="396" type="curve"/>
      <point x="118" y="408"/>
      <point x="152" y="423"/>
      <point x="178" y="423" type="curve"/>
      <point x="273" y="423"/>
      <point x="305" y="330"/>
      <point x="305" y="224" type="curve"/>
      <point x="305" y="118"/>
      <point x="266" y="22"/>
      <point x="171" y="22" type="curve"/>
      <point x="126" y="22"/>
      <point x="103" y="35"/>
      <point x="60" y="64" type="curve"/>
      <point x="45" y="44"/>
      <point x="60" y="64"/>
      <point x="45" y="44" type="curve"/>
      <point x="83" y="13"/>
      <point x="121" y="-5"/>
      <point x="170" y="-5" type="curve"/>
      <point x="280" y="-5"/>
      <point x="329" y="101"/>
      <point x="329" y="224" type="curve"/>
      <point x="329" y="343"/>
      <point x="287" y="446"/>
      <point x="180" y="446" type="curve"/>
      <point x="143" y="446"/>
      <point x="101" y="430"/>
      <point x="80" y="406" type="curve"/>
    </contour>
    <contour>
      <point x="312" y="722"/>
      <point x="312" y="700"/>
      <point x="312" y="722" type="curve"/>
      <point x="231" y="722"/>
      <point x="160.532526" y="722"/>
      <point x="79.8" y="722" type="curve"/>
      <point x="102.9" y="700.44"/>
      <point x="79.8" y="722"/>
      <point x="102.9" y="700.44" type="curve"/>
      <point x="175.932603" y="700.44"/>
      <point x="239" y="700"/>
      <point x="312" y="700" type="curve"/>
    </contour>
  </outline>
</glyph>
<glyph name="six" format="1">
  <advance width="418"/>
  <unicode hex="0036"/>
  <outline>
    <contour>
      <point x="72" y="230"/>
      <point x="57.9" y="240.67"/>
      <point x="74.4" y="229.89" type="curve"/>
      <point x="86" y="300"/>
      <point x="133" y="384"/>
      <point x="217" y="384" type="curve"/>
      <point x="309" y="384"/>
      <point x="342" y="306"/>
      <point x="342" y="202" type="curve"/>
      <point x="342" y="113"/>
      <point x="309" y="22"/>
      <point x="221" y="22" type="curve"/>
      <point x="113" y="22"/>
      <point x="78.4" y="120.206229354"/>
      <point x="78.4" y="242.304555556" type="curve"/>
      <point x="78" y="464"/>
      <point x="178" y="634"/>
      <point x="373" y="714" type="curve"/>
      <point x="364" y="734"/>
      <point x="373" y="714"/>
      <point x="363.9" y="733.893111111" type="curve"/>
      <point x="161" y="654"/>
      <point x="53" y="480"/>
      <point x="53" y="241" type="curve"/>
      <point x="53" y="103"/>
      <point x="97.0591170737" y="-5.12033333333"/>
      <point x="219.6" y="-5.12033333333" type="curve"/>
      <point x="325.495263398" y="-5.12033333333"/>
      <point x="367" y="86"/>
      <point x="367" y="203" type="curve"/>
      <point x="367" y="320"/>
      <point x="324" y="409"/>
      <point x="219" y="409" type="curve"/>
      <point x="124" y="409"/>
      <point x="73" y="330"/>
      <point x="56" y="241" type="curve"/>
    </contour>
  </outline>
</glyph>
<glyph name="seven" format="1">
  <advance width="409"/>
  <unicode hex="0037"/>
  <outline>
    <contour>
      <point x="65" y="602"/>
      <point x="44" y="602"/>
      <point x="65" y="602" type="curve"/>
      <point x="65" y="722"/>
      <point x="65" y="602"/>
      <point x="65" y="722" type="curve"/>
      <point x="44" y="722"/>
      <point x="65" y="722"/>
      <point x="44" y="722" type="curve"/>
      <point x="44" y="602"/>
      <point x="44" y="722"/>
      <point x="44" y="602" type="curve"/>
    </contour>
    <contour>
      <point x="44" y="700"/>
      <point x="44" y="722"/>
      <point x="44" y="700" type="curve"/>
      <point x="155" y="700"/>
      <point x="267" y="700"/>
      <point x="378" y="700" type="curve"/>
      <point x="378" y="722"/>
      <point x="378" y="700"/>
      <point x="378" y="722" type="curve"/>
      <point x="258" y="722"/>
      <point x="151" y="722"/>
      <point x="44" y="722" type="curve"/>
    </contour>
    <contour>
      <point x="365" y="722"/>
      <point x="378" y="700"/>
      <point x="365" y="722" type="curve"/>
      <point x="68" y="0"/>
      <point x="365" y="722"/>
      <point x="68" y="0" type="curve"/>
      <point x="95" y="0"/>
      <point x="68" y="0"/>
      <point x="95" y="0" type="curve"/>
      <point x="378" y="700"/>
      <point x="95" y="0"/>
      <point x="378" y="700" type="curve"/>
    </contour>
  </outline>
</glyph>
<glyph name="colon" format="1">
  <advance width="201"/>
  <unicode hex="003A"/>
  <outline>
    <contour>
      <point x="117" y="428"/>
      <point x="88" y="428"/>
      <point x="117" y="428" type="curve"/>
      <point x="117" y="437"/>
      <point x="111" y="442"/>
      <point x="102" y="442" type="curve"/>
      <point x="93" y="442"/>
      <point x="88" y="436"/>
      <point x="88" y="428" type="curve"/>
      <point x="117" y="428"/>
      <point x="88" y="428"/>
      <point x="117" y="428" type="curve"/>
      <point x="117" y="419"/>
      <point x="111" y="414"/>
      <point x="102" y="414" type="curve"/>
      <point x="93" y="414"/>
      <point x="88" y="419"/>
      <point x="88" y="428" type="curve"/>
    </contour>
    <contour>
      <point x="117" y="12"/>
      <point x="88" y="12"/>
      <point x="117" y="12" type="curve"/>
      <point x="117" y="21"/>
      <point x="111" y="26"/>
      <point x="102" y="26" type="curve"/>
      <point x="93" y="26"/>
      <point x="88" y="20"/>
      <point x="88" y="12" type="curve"/>
      <point x="117" y="12"/>
      <point x="88" y="12"/>
      <point x="117" y="12" type="curve"/>
      <point x="117" y="3"/>
      <point x="111" y="-2"/>
      <point x="102" y="-2" type="curve"/>
      <point x="93" y="-2"/>
      <point x="88" y="3"/>
      <point x="88" y="12" type="curve"/>
    </contour>
  </outline>
</glyph>
<glyph name="at" format="1">
  <advance width="601"/>
  <unicode hex="0040"/>
  <outline>
    <contour>
      <point x="420" y="-104"/>
      <point x="431" y="-124"/>
      <point x="420" y="-104" type="curve"/>
      <point x="385" y="-132"/>
      <point x="356" y="-141"/>
      <point x="311" y="-141" type="curve"/>
      <point x="142" y="-141"/>
      <point x="84" y="1"/>
      <point x="84" y="189" type="curve"/>
      <point x="84" y="373"/>
      <point x="144" y="515"/>
      <point x="309" y="515" type="curve"/>
      <point x="468" y="515"/>
      <point x="518" y="373"/>
      <point x="518" y="194" type="curve"/>
      <point x="518" y="115"/>
      <point x="521" y="43"/>
      <point x="466" y="43" type="curve"/>
      <point x="400" y="43"/>
      <point x="406" y="115"/>
      <point x="406" y="194" type="curve"/>
      <point x="406" y="290"/>
      <point x="384" y="367"/>
      <point x="300" y="367" type="curve"/>
      <point x="213" y="367"/>
      <point x="185" y="292"/>
      <point x="185" y="195" type="curve"/>
      <point x="185" y="92"/>
      <point x="207" y="11"/>
      <point x="297" y="11" type="curve"/>
      <point x="380" y="11"/>
      <point x="394" y="90"/>
      <point x="402" y="184" type="curve"/>
      <point x="388" y="186"/>
      <point x="402" y="184"/>
      <point x="388" y="186" type="curve"/>
      <point x="375" y="110"/>
      <point x="363" y="33"/>
      <point x="300" y="33" type="curve"/>
      <point x="221" y="33"/>
      <point x="208" y="106"/>
      <point x="208" y="196" type="curve"/>
      <point x="208" y="280"/>
      <point x="225" y="345"/>
      <point x="297" y="345" type="curve"/>
      <point x="370" y="345"/>
      <point x="384" y="277"/>
      <point x="384" y="193" type="curve"/>
      <point x="384" y="102"/>
      <point x="385" y="23"/>
      <point x="464" y="23" type="curve"/>
      <point x="544" y="23"/>
      <point x="541" y="102"/>
      <point x="541" y="195" type="curve"/>
      <point x="541" y="390"/>
      <point x="483" y="538"/>
      <point x="311" y="538" type="curve"/>
      <point x="129" y="538"/>
      <point x="61" y="389"/>
      <point x="61" y="188" type="curve"/>
      <point x="61" y="-13"/>
      <point x="128" y="-163"/>
      <point x="309" y="-163" type="curve"/>
      <point x="359" y="-163"/>
      <point x="392" y="-154"/>
      <point x="431" y="-124" type="curve"/>
    </contour>
  </outline>
</glyph>
<glyph name="B" format="1">
  <advance width="484"/>
  <unicode hex="0042"/>
  <outline>
    <contour>
      <point x="163" y="722"/>
      <point x="163" y="700"/>
      <point x="163" y="722" type="curve"/>
      <point x="119" y="722"/>
      <point x="75" y="722"/>
      <point x="31" y="722" type="curve"/>
      <point x="31" y="700"/>
      <point x="31" y="722"/>
      <point x="31" y="700" type="curve"/>
      <point x="163" y="700"/>
      <point x="31" y="700"/>
      <point x="163" y="700" type="curve"/>
    </contour>
    <contour>
      <point x="162" y="22"/>
      <point x="162" y="0"/>
      <point x="162" y="22" type="curve"/>
      <point x="30" y="22"/>
      <point x="162" y="22"/>
      <point x="30" y="22" type="curve"/>
      <point x="30" y="0"/>
      <point x="30" y="22"/>
      <point x="30" y="0" type="curve"/>
      <point x="74" y="0"/>
      <point x="118" y="0"/>
      <point x="162" y="0" type="curve"/>
    </contour>
    <contour>
      <point x="155" y="714"/>
      <point x="155" y="708"/>
      <point x="155" y="700" type="curve"/>
      <point x="199" y="700"/>
      <point x="228" y="700"/>
      <point x="272" y="700" type="curve"/>
      <point x="355" y="700"/>
      <point x="397" y="642"/>
      <point x="397" y="555" type="curve"/>
      <point x="397" y="474"/>
      <point x="356" y="421"/>
      <point x="279" y="421" type="curve"/>
      <point x="232" y="421"/>
      <point x="202" y="421"/>
      <point x="155" y="421" type="curve"/>
      <point x="155" y="413"/>
      <point x="155" y="407"/>
      <point x="155" y="399" type="curve"/>
      <point x="197" y="399"/>
      <point x="228" y="399"/>
      <point x="270" y="399" type="curve"/>
      <point x="367" y="399"/>
      <point x="421" y="458"/>
      <point x="421" y="555" type="curve"/>
      <point x="421" y="656"/>
      <point x="369" y="722"/>
      <point x="272" y="722" type="curve"/>
      <point x="228" y="722"/>
      <point x="199" y="722"/>
      <point x="155" y="722" type="curve"/>
    </contour>
    <contour>
      <point x="176" y="0"/>
      <point x="150" y="0"/>
      <point x="176" y="0" type="curve"/>
      <point x="176" y="241"/>
      <point x="176" y="481"/>
      <point x="176" y="722" type="curve"/>
      <point x="150" y="722"/>
      <point x="176" y="722"/>
      <point x="150" y="722" type="curve"/>
      <point x="150" y="481"/>
      <point x="151" y="241"/>
      <point x="150" y="0" type="curve"/>
    </contour>
    <contour>
      <point x="155" y="413"/>
      <point x="155" y="407"/>
      <point x="155" y="399" type="curve"/>
      <point x="202" y="399"/>
      <point x="232" y="399"/>
      <point x="279" y="399" type="curve"/>
      <point x="384" y="399"/>
      <point x="430" y="318"/>
      <point x="430" y="204" type="curve"/>
      <point x="430" y="95"/>
      <point x="377" y="22"/>
      <point x="273" y="22" type="curve"/>
      <point x="228" y="22"/>
      <point x="200" y="22"/>
      <point x="155" y="22" type="curve"/>
      <point x="155" y="14"/>
      <point x="155" y="8"/>
      <point x="155" y="0" type="curve"/>
      <point x="200" y="0"/>
      <point x="228" y="0"/>
      <point x="273" y="0" type="curve"/>
      <point x="391" y="0"/>
      <point x="454" y="81"/>
      <point x="454" y="204" type="curve"/>
      <point x="454" y="334"/>
      <point x="395" y="421"/>
      <point x="271" y="421" type="curve"/>
      <point x="229" y="421"/>
      <point x="197" y="421"/>
      <point x="155" y="421" type="curve"/>
    </contour>
  </outline>
</glyph>
<glyph name="D" format="1">
  <advance width="557"/>
  <unicode hex="0044"/>
  <outline>
    <contour>
      <point x="162" y="22"/>
      <point x="162" y="0"/>
      <point x="162" y="22" type="curve"/>
      <point x="30" y="22"/>
      <point x="162" y="22"/>
      <point x="30" y="22" type="curve"/>
      <point x="30" y="0"/>
      <point x="30" y="22"/>
      <point x="30" y="0" type="curve"/>
      <point x="74" y="0"/>
      <point x="118" y="0"/>
      <point x="162" y="0" type="curve"/>
    </contour>
    <contour>
      <point x="162" y="722"/>
      <point x="162" y="700"/>
      <point x="162" y="722" type="curve"/>
      <point x="118" y="722"/>
      <point x="74" y="722"/>
      <point x="30" y="722" type="curve"/>
      <point x="30" y="700"/>
      <point x="30" y="722"/>
      <point x="30" y="700" type="curve"/>
      <point x="162" y="700"/>
      <point x="30" y="700"/>
      <point x="162" y="700" type="curve"/>
    </contour>
    <contour>
      <point x="149" y="722"/>
      <point x="173" y="722"/>
      <point x="149" y="722" type="curve"/>
      <point x="149" y="481"/>
      <point x="149" y="241"/>
      <point x="149" y="0" type="curve"/>
      <point x="173" y="0"/>
      <point x="149" y="0"/>
      <point x="173" y="0" type="curve"/>
      <point x="173" y="241"/>
      <point x="173" y="481"/>
      <point x="173" y="722" type="curve"/>
    </contour>
    <contour>
      <point x="162" y="14"/>
      <point x="162" y="8"/>
      <point x="162" y="0" type="curve"/>
      <point x="207" y="0"/>
      <point x="235" y="0"/>
      <point x="280" y="0" type="curve"/>
      <point x="462" y="0"/>
      <point x="526" y="153"/>
      <point x="526" y="356" type="curve"/>
      <point x="526" y="565"/>
      <point x="458" y="722"/>
      <point x="271" y="722" type="curve"/>
      <point x="230" y="722"/>
      <point x="203" y="722"/>
      <point x="162" y="722" type="curve"/>
      <point x="162" y="714"/>
      <point x="162" y="708"/>
      <point x="162" y="700" type="curve"/>
      <point x="203" y="700"/>
      <point x="229" y="700"/>
      <point x="270" y="700" type="curve"/>
      <point x="444" y="700"/>
      <point x="502" y="551"/>
      <point x="502" y="355" type="curve"/>
      <point x="502" y="167"/>
      <point x="449" y="22"/>
      <point x="282" y="22" type="curve"/>
      <point x="237" y="22"/>
      <point x="207" y="22"/>
      <point x="162" y="22" type="curve"/>
    </contour>
  </outline>
</glyph>
<glyph name="E" format="1">
  <advance width="489"/>
  <unicode hex="0045"/>
  <outline>
    <contour>
      <point x="460" y="11"/>
      <point x="438" y="11"/>
      <point x="460" y="11" type="curve"/>
      <point x="460" y="131"/>
      <point x="460" y="11"/>
      <point x="460" y="131" type="curve"/>
      <point x="438" y="131"/>
      <point x="460" y="131"/>
      <point x="438" y="131" type="curve"/>
      <point x="438" y="11"/>
      <point x="438" y="131"/>
      <point x="438" y="11" type="curve"/>
    </contour>
    <contour>
      <point x="414" y="711"/>
      <point x="436" y="711"/>
      <point x="414" y="711" type="curve"/>
      <point x="414" y="591"/>
      <point x="414" y="711"/>
      <point x="414" y="591" type="curve"/>
      <point x="436" y="591"/>
      <point x="414" y="591"/>
      <point x="436" y="591" type="curve"/>
      <point x="436" y="711"/>
      <point x="436" y="591"/>
      <point x="436" y="711" type="curve"/>
    </contour>
    <contour>
      <point x="160" y="22"/>
      <point x="160" y="0"/>
      <point x="160" y="22" type="curve"/>
      <point x="28" y="22"/>
      <point x="160" y="22"/>
      <point x="28" y="22" type="curve"/>
      <point x="28" y="0"/>
      <point x="28" y="22"/>
      <point x="28" y="0" type="curve"/>
      <point x="72" y="0"/>
      <point x="116" y="0"/>
      <point x="160" y="0" type="curve"/>
    </contour>
    <contour>
      <point x="160" y="722"/>
      <point x="160" y="700"/>
      <point x="160" y="722" type="curve"/>
      <point x="116" y="722"/>
      <point x="72" y="722"/>
      <point x="28" y="722" type="curve"/>
      <point x="28" y="700"/>
      <point x="28" y="722"/>
      <point x="28" y="700" type="curve"/>
      <point x="160" y="700"/>
      <point x="28" y="700"/>
      <point x="160" y="700" type="curve"/>
    </contour>
    <contour>
      <point x="162" y="363"/>
      <point x="162" y="385"/>
      <point x="162" y="363" type="curve"/>
      <point x="239" y="363"/>
      <point x="315" y="363"/>
      <point x="392" y="363" type="curve"/>
      <point x="392" y="385"/>
      <point x="392" y="363"/>
      <point x="392" y="385" type="curve"/>
      <point x="315" y="385"/>
      <point x="239" y="385"/>
      <point x="162" y="385" type="curve"/>
    </contour>
    <contour>
      <point x="152" y="700"/>
      <point x="152" y="722"/>
      <point x="152" y="700" type="curve"/>
      <point x="247" y="700"/>
      <point x="341" y="700"/>
      <point x="436" y="700" type="curve"/>
      <point x="436" y="722"/>
      <point x="436" y="700"/>
      <point x="436" y="722" type="curve"/>
      <point x="341" y="722"/>
      <point x="247" y="722"/>
      <point x="152" y="722" type="curve"/>
    </contour>
    <contour>
      <point x="172" y="0"/>
      <point x="148" y="0"/>
      <point x="172" y="0" type="curve"/>
      <point x="172" y="0"/>
      <point x="172" y="722"/>
      <point x="172" y="722" type="curve"/>
      <point x="148" y="722"/>
      <point x="172" y="722"/>
      <point x="148" y="722" type="curve"/>
      <point x="148" y="481"/>
      <point x="148" y="241"/>
      <point x="148" y="0" type="curve"/>
    </contour>
    <contour>
      <point x="152" y="0"/>
      <point x="152" y="22"/>
      <point x="152" y="0" type="curve"/>
      <point x="255" y="0"/>
      <point x="357" y="0"/>
      <point x="460" y="0" type="curve"/>
      <point x="460" y="22"/>
      <point x="460" y="0"/>
      <point x="460" y="22" type="curve"/>
      <point x="357" y="22"/>
      <point x="255" y="22"/>
      <point x="152" y="22" type="curve"/>
    </contour>
  </outline>
</glyph>
<glyph name="K" format="1">
  <advance width="595"/>
  <unicode hex="004B"/>
  <outline>
    <contour>
      <point x="455" y="22"/>
      <point x="453" y="0"/>
      <point x="455" y="22" type="curve"/>
      <point x="322" y="22"/>
      <point x="455" y="22"/>
      <point x="322" y="22" type="curve"/>
      <point x="322" y="0"/>
      <point x="322" y="22"/>
      <point x="322" y="0" type="curve"/>
      <point x="366" y="0"/>
      <point x="410" y="0"/>
      <point x="453" y="0" type="curve"/>
    </contour>
    <contour>
      <point x="438" y="722"/>
      <point x="438" y="700"/>
      <point x="438" y="722" type="curve"/>
      <point x="394" y="722"/>
      <point x="350" y="722"/>
      <point x="306" y="722" type="curve"/>
      <point x="306" y="700"/>
      <point x="306" y="722"/>
      <point x="306" y="700" type="curve"/>
      <point x="438" y="700"/>
      <point x="306" y="700"/>
      <point x="438" y="700" type="curve"/>
    </contour>
    <contour>
      <point x="454" y="0"/>
      <point x="454" y="22"/>
      <point x="454" y="0" type="curve"/>
      <point x="498" y="0"/>
      <point x="542" y="0"/>
      <point x="586" y="0" type="curve"/>
      <point x="586" y="22"/>
      <point x="586" y="0"/>
      <point x="586" y="22" type="curve"/>
      <point x="454" y="22"/>
      <point x="586" y="22"/>
      <point x="454" y="22" type="curve"/>
    </contour>
    <contour>
      <point x="438" y="700"/>
      <point x="438" y="722"/>
      <point x="438" y="700" type="curve"/>
      <point x="570" y="700"/>
      <point x="438" y="700"/>
      <point x="570" y="700" type="curve"/>
      <point x="570" y="722"/>
      <point x="570" y="700"/>
      <point x="570" y="722" type="curve"/>
      <point x="526" y="722"/>
      <point x="482" y="722"/>
      <point x="438" y="722" type="curve"/>
    </contour>
    <contour>
      <point x="152" y="722"/>
      <point x="152" y="700"/>
      <point x="152" y="722" type="curve"/>
      <point x="108" y="722"/>
      <point x="64" y="722"/>
      <point x="20" y="722" type="curve"/>
      <point x="20" y="700"/>
      <point x="20" y="722"/>
      <point x="20" y="700" type="curve"/>
      <point x="152" y="700"/>
      <point x="20" y="700"/>
      <point x="152" y="700" type="curve"/>
    </contour>
    <contour>
      <point x="152" y="700"/>
      <point x="152" y="722"/>
      <point x="152" y="700" type="curve"/>
      <point x="284" y="700"/>
      <point x="152" y="700"/>
      <point x="284" y="700" type="curve"/>
      <point x="284" y="722"/>
      <point x="284" y="700"/>
      <point x="284" y="722" type="curve"/>
      <point x="240" y="722"/>
      <point x="196" y="722"/>
      <point x="152" y="722" type="curve"/>
    </contour>
    <contour>
      <point x="152" y="0"/>
      <point x="152" y="22"/>
      <point x="152" y="0" type="curve"/>
      <point x="196" y="0"/>
      <point x="152" y="0"/>
      <point x="284" y="0" type="curve"/>
      <point x="284" y="22"/>
      <point x="284" y="0"/>
      <point x="284" y="22" type="curve"/>
      <point x="152" y="22"/>
      <point x="284" y="22"/>
      <point x="152" y="22" type="curve"/>
    </contour>
    <contour>
      <point x="152" y="22"/>
      <point x="152" y="0"/>
      <point x="152" y="22" type="curve"/>
      <point x="20" y="22"/>
      <point x="152" y="22"/>
      <point x="20" y="22" type="curve"/>
      <point x="20" y="0"/>
      <point x="20" y="22"/>
      <point x="20" y="0" type="curve"/>
      <point x="64" y="0"/>
      <point x="108" y="0"/>
      <point x="152" y="0" type="curve"/>
    </contour>
    <contour>
      <point x="426" y="722"/>
      <point x="471" y="722"/>
      <point x="431" y="722" type="curve"/>
      <point x="337" y="608"/>
      <point x="243" y="494"/>
      <point x="149" y="380" type="curve"/>
      <point x="183" y="380"/>
      <point x="144" y="380"/>
      <point x="178" y="380" type="curve"/>
      <point x="273" y="494"/>
      <point x="370" y="608"/>
      <point x="466" y="722" type="curve"/>
    </contour>
    <contour>
      <point x="164" y="0"/>
      <point x="140" y="0"/>
      <point x="164" y="0" type="curve"/>
      <point x="164" y="0"/>
      <point x="164" y="722"/>
      <point x="164" y="722" type="curve"/>
      <point x="140" y="722"/>
      <point x="164" y="722"/>
      <point x="140" y="722" type="curve"/>
      <point x="140" y="481"/>
      <point x="140" y="241"/>
      <point x="140" y="0" type="curve"/>
    </contour>
    <contour>
      <point x="488" y="0"/>
      <point x="442" y="0"/>
      <point x="483" y="0" type="curve"/>
      <point x="381" y="127"/>
      <point x="279" y="253"/>
      <point x="178" y="380" type="curve"/>
      <point x="144" y="380"/>
      <point x="183" y="380"/>
      <point x="149" y="380" type="curve"/>
      <point x="248" y="254"/>
      <point x="347" y="126"/>
      <point x="447" y="0" type="curve"/>
    </contour>
  </outline>
</glyph>
<glyph name="O" format="1">
  <advance width="573"/>
  <unicode hex="004F"/>
  <outline>
    <contour>
      <point x="94" y="360"/>
      <point x="69" y="360"/>
      <point x="94" y="360" type="curve"/>
      <point x="94" y="543"/>
      <point x="124" y="704"/>
      <point x="282" y="704" type="curve"/>
      <point x="440" y="704"/>
      <point x="474" y="545"/>
      <point x="474" y="363" type="curve"/>
      <point x="474" y="183"/>
      <point x="443" y="18"/>
      <point x="285" y="18" type="curve"/>
      <point x="126" y="18"/>
      <point x="94" y="177"/>
      <point x="94" y="360" type="curve"/>
      <point x="69" y="360"/>
      <point x="94" y="360"/>
      <point x="69" y="360" type="curve"/>
      <point x="69" y="162"/>
      <point x="112" y="-5"/>
      <point x="284" y="-5" type="curve"/>
      <point x="456" y="-5"/>
      <point x="498" y="164"/>
      <point x="498" y="363" type="curve"/>
      <point x="498" y="560"/>
      <point x="456" y="727"/>
      <point x="284" y="727" type="curve"/>
      <point x="111" y="727"/>
      <point x="69" y="558"/>
      <point x="69" y="360" type="curve"/>
    </contour>
  </outline>
</glyph>
<glyph name="P" format="1">
  <advance width="456"/>
  <unicode hex="0050"/>
  <outline>
    <contour>
      <point x="167" y="722"/>
      <point x="167" y="700"/>
      <point x="167" y="722" type="curve"/>
      <point x="123" y="722"/>
      <point x="79" y="722"/>
      <point x="35" y="722" type="curve"/>
      <point x="35" y="700"/>
      <point x="35" y="722"/>
      <point x="35" y="700" type="curve"/>
      <point x="167" y="700"/>
      <point x="35" y="700"/>
      <point x="167" y="700" type="curve"/>
    </contour>
    <contour>
      <point x="167" y="22"/>
      <point x="167" y="0"/>
      <point x="167" y="22" type="curve"/>
      <point x="35" y="22"/>
      <point x="167" y="22"/>
      <point x="35" y="22" type="curve"/>
      <point x="35" y="0"/>
      <point x="35" y="22"/>
      <point x="35" y="0" type="curve"/>
      <point x="79" y="0"/>
      <point x="123" y="0"/>
      <point x="167" y="0" type="curve"/>
    </contour>
    <contour>
      <point x="167" y="0"/>
      <point x="167" y="22"/>
      <point x="167" y="0" type="curve"/>
      <point x="211" y="0"/>
      <point x="167" y="0"/>
      <point x="299" y="0" type="curve"/>
      <point x="299" y="22"/>
      <point x="299" y="0"/>
      <point x="299" y="22" type="curve"/>
      <point x="167" y="22"/>
      <point x="299" y="22"/>
      <point x="167" y="22" type="curve"/>
    </contour>
    <contour>
      <point x="164" y="326"/>
      <point x="172" y="345"/>
      <point x="164" y="325" type="curve"/>
      <point x="196" y="300"/>
      <point x="232" y="280"/>
      <point x="275" y="280" type="curve"/>
      <point x="383" y="282"/>
      <point x="432" y="369"/>
      <point x="432" y="494" type="curve"/>
      <point x="432" y="621"/>
      <point x="376" y="722"/>
      <point x="259" y="722" type="curve"/>
      <point x="229" y="722"/>
      <point x="199" y="722"/>
      <point x="169" y="722" type="curve"/>
      <point x="169" y="700"/>
      <point x="169" y="722"/>
      <point x="169" y="700" type="curve"/>
      <point x="198" y="700"/>
      <point x="227" y="700"/>
      <point x="256" y="700" type="curve"/>
      <point x="361" y="700"/>
      <point x="408" y="608"/>
      <point x="408" y="493" type="curve"/>
      <point x="408" y="388"/>
      <point x="369" y="303"/>
      <point x="276" y="303" type="curve"/>
      <point x="233" y="303"/>
      <point x="206" y="320"/>
      <point x="172" y="346" type="curve"/>
    </contour>
    <contour>
      <point x="178" y="0"/>
      <point x="154" y="0"/>
      <point x="178" y="0" type="curve"/>
      <point x="178" y="241"/>
      <point x="178" y="481"/>
      <point x="178" y="722" type="curve"/>
      <point x="154" y="722"/>
      <point x="178" y="722"/>
      <point x="154" y="722" type="curve"/>
      <point x="154" y="481"/>
      <point x="154" y="241"/>
      <point x="154" y="0" type="curve"/>
    </contour>
  </outline>
</glyph>
<glyph name="R" format="1">
  <advance width="598"/>
  <unicode hex="0052"/>
  <outline>
    <contour>
      <point x="455" y="0"/>
      <point x="455" y="22"/>
      <point x="455" y="0" type="curve"/>
      <point x="499" y="0"/>
      <point x="543" y="0"/>
      <point x="588" y="0" type="curve"/>
      <point x="588" y="22"/>
      <point x="588" y="0"/>
      <point x="588" y="22" type="curve"/>
      <point x="455" y="22"/>
      <point x="588" y="22"/>
      <point x="455" y="22" type="curve"/>
    </contour>
    <contour>
      <point x="140" y="722"/>
      <point x="140" y="700"/>
      <point x="140" y="722" type="curve"/>
      <point x="96" y="722"/>
      <point x="52" y="722"/>
      <point x="8" y="722" type="curve"/>
      <point x="8" y="700"/>
      <point x="8" y="722"/>
      <point x="8" y="700" type="curve"/>
      <point x="140" y="700"/>
      <point x="8" y="700"/>
      <point x="140" y="700" type="curve"/>
    </contour>
    <contour>
      <point x="140" y="22"/>
      <point x="140" y="0"/>
      <point x="140" y="22" type="curve"/>
      <point x="8" y="22"/>
      <point x="140" y="22"/>
      <point x="8" y="22" type="curve"/>
      <point x="8" y="0"/>
      <point x="8" y="22"/>
      <point x="8" y="0" type="curve"/>
      <point x="52" y="0"/>
      <point x="96" y="0"/>
      <point x="140" y="0" type="curve"/>
    </contour>
    <contour>
      <point x="140" y="0"/>
      <point x="140" y="22"/>
      <point x="140" y="0" type="curve"/>
      <point x="184" y="0"/>
      <point x="140" y="0"/>
      <point x="273" y="0" type="curve"/>
      <point x="273" y="22"/>
      <point x="273" y="0"/>
      <point x="273" y="22" type="curve"/>
      <point x="140" y="22"/>
      <point x="273" y="22"/>
      <point x="140" y="22" type="curve"/>
    </contour>
    <contour>
      <point x="271" y="354"/>
      <point x="300" y="354"/>
      <point x="271" y="354" type="curve"/>
      <point x="331" y="236"/>
      <point x="391" y="118"/>
      <point x="450" y="0" type="curve"/>
      <point x="479" y="0"/>
      <point x="450" y="0"/>
      <point x="479" y="0" type="curve"/>
      <point x="420" y="118"/>
      <point x="360" y="236"/>
      <point x="300" y="354" type="curve"/>
    </contour>
    <contour>
      <point x="153" y="0"/>
      <point x="129" y="0"/>
      <point x="153" y="0" type="curve"/>
      <point x="153" y="241"/>
      <point x="153" y="481"/>
      <point x="153" y="722" type="curve"/>
      <point x="129" y="722"/>
      <point x="153" y="722"/>
      <point x="129" y="722" type="curve"/>
      <point x="129" y="481"/>
      <point x="129" y="241"/>
      <point x="129" y="0" type="curve"/>
    </contour>
    <contour>
      <point x="143" y="340"/>
      <point x="143" y="362"/>
      <point x="143" y="340" type="curve"/>
      <point x="182" y="340"/>
      <point x="221" y="340"/>
      <point x="261" y="340" type="curve"/>
      <point x="369" y="340"/>
      <point x="419" y="420"/>
      <point x="419" y="537" type="curve"/>
      <point x="419" y="650"/>
      <point x="366" y="722"/>
      <point x="258" y="722" type="curve"/>
      <point x="216" y="722"/>
      <point x="184" y="722"/>
      <point x="143" y="722" type="curve"/>
      <point x="143" y="700"/>
      <point x="143" y="722"/>
      <point x="143" y="700" type="curve"/>
      <point x="183" y="700"/>
      <point x="213" y="700"/>
      <point x="254" y="700" type="curve"/>
      <point x="349" y="700"/>
      <point x="394" y="635"/>
      <point x="394" y="535" type="curve"/>
      <point x="394" y="434"/>
      <point x="356" y="362"/>
      <point x="264" y="362" type="curve"/>
      <point x="224" y="362"/>
      <point x="183" y="362"/>
      <point x="143" y="362" type="curve"/>
    </contour>
  </outline>
</glyph>
<glyph name="T" format="1">
  <advance width="474"/>
  <unicode hex="0054"/>
  <outline>
    <contour>
      <point x="18.2" y="710.222222222"/>
      <point x="39.98" y="710.222222222"/>
      <point x="18.2" y="710.222222222" type="curve"/>
      <point x="18.2" y="590.222222222"/>
      <point x="18.2" y="710.222222222"/>
      <point x="18.2" y="590.222222222" type="curve"/>
      <point x="39.98" y="590.222222222"/>
      <point x="18.2" y="590.222222222"/>
      <point x="39.98" y="590.222222222" type="curve"/>
      <point x="39.98" y="710.222222222"/>
      <point x="39.98" y="590.222222222"/>
      <point x="39.98" y="710.222222222" type="curve"/>
    </contour>
    <contour>
      <point x="430.42" y="710.222222222"/>
      <point x="452.2" y="710.222222222"/>
      <point x="430.42" y="710.222222222" type="curve"/>
      <point x="430.42" y="590.222222222"/>
      <point x="430.42" y="710.222222222"/>
      <point x="430.42" y="590.222222222" type="curve"/>
      <point x="452.2" y="590.222222222"/>
      <point x="430.42" y="590.222222222"/>
      <point x="452.2" y="590.222222222" type="curve"/>
      <point x="452.2" y="710.222222222"/>
      <point x="452.2" y="590.222222222"/>
      <point x="452.2" y="710.222222222" type="curve"/>
    </contour>
    <contour>
      <point x="234.5" y="0"/>
      <point x="234.5" y="21.56"/>
      <point x="234.5" y="0" type="curve"/>
      <point x="278.532893" y="0"/>
      <point x="322.567107" y="0"/>
      <point x="366.6" y="0" type="curve"/>
      <point x="366.6" y="21.56"/>
      <point x="366.6" y="0"/>
      <point x="366.6" y="21.56" type="curve"/>
      <point x="234.5" y="21.56"/>
      <point x="366.6" y="21.56"/>
      <point x="234.5" y="21.56" type="curve"/>
    </contour>
    <contour>
      <point x="234.5" y="21.56"/>
      <point x="234.5" y="0"/>
      <point x="234.5" y="21.56" type="curve"/>
      <point x="102.4" y="21.56"/>
      <point x="234.5" y="21.56"/>
      <point x="102.4" y="21.56" type="curve"/>
      <point x="102.4" y="0"/>
      <point x="102.4" y="21.56"/>
      <point x="102.4" y="0" type="curve"/>
      <point x="146.432893" y="-5.3922960545e-15"/>
      <point x="190.467107" y="5.3922960545e-15"/>
      <point x="234.5" y="0" type="curve"/>
    </contour>
    <contour>
      <point x="247.3" y="0"/>
      <point x="223.1" y="1.45213821436e-15"/>
      <point x="247.3" y="0" type="curve"/>
      <point x="247.3" y="236.6643"/>
      <point x="247.3" y="473.3357"/>
      <point x="247.3" y="710" type="curve"/>
      <point x="223.1" y="710"/>
      <point x="247.3" y="710"/>
      <point x="223.1" y="710" type="curve"/>
      <point x="223.1" y="473.3357"/>
      <point x="223.1" y="236.6643"/>
      <point x="223.1" y="1.45213821436e-15" type="curve"/>
    </contour>
    <contour>
      <point x="18.2" y="698.364222222"/>
      <point x="18.2" y="722.080222222"/>
      <point x="18.2" y="698.364222222" type="curve"/>
      <point x="162.86522" y="698.364222222"/>
      <point x="307.53478" y="698.364222222"/>
      <point x="452.2" y="698.364222222" type="curve"/>
      <point x="452.2" y="722.080222222"/>
      <point x="452.2" y="698.364222222"/>
      <point x="452.2" y="722.080222222" type="curve"/>
      <point x="307.53478" y="722.080222222"/>
      <point x="162.86522" y="722.080222222"/>
      <point x="18.2" y="722.080222222" type="curve"/>
    </contour>
  </outline>
</glyph>
<glyph name="U" format="1">
  <advance width="654"/>
  <unicode hex="0055"/>
  <outline>
    <contour>
      <point x="501" y="700"/>
      <point x="501" y="722"/>
      <point x="501" y="700" type="curve"/>
      <point x="633" y="700"/>
      <point x="501" y="700"/>
      <point x="633" y="700" type="curve"/>
      <point x="633" y="722"/>
      <point x="633" y="700"/>
      <point x="633" y="722" type="curve"/>
      <point x="589" y="722"/>
      <point x="545" y="722"/>
      <point x="501" y="722" type="curve"/>
    </contour>
    <contour>
      <point x="501" y="722"/>
      <point x="501" y="700"/>
      <point x="501" y="722" type="curve"/>
      <point x="457" y="722"/>
      <point x="413" y="722"/>
      <point x="369" y="722" type="curve"/>
      <point x="369" y="700"/>
      <point x="369" y="722"/>
      <point x="369" y="700" type="curve"/>
      <point x="501" y="700"/>
      <point x="369" y="700"/>
      <point x="501" y="700" type="curve"/>
    </contour>
    <contour>
      <point x="151" y="722"/>
      <point x="151" y="700"/>
      <point x="151" y="722" type="curve"/>
      <point x="107" y="722"/>
      <point x="63" y="722"/>
      <point x="19" y="722" type="curve"/>
      <point x="19" y="700"/>
      <point x="19" y="722"/>
      <point x="19" y="700" type="curve"/>
      <point x="151" y="700"/>
      <point x="19" y="700"/>
      <point x="151" y="700" type="curve"/>
    </contour>
    <contour>
      <point x="151" y="700"/>
      <point x="151" y="722"/>
      <point x="151" y="700" type="curve"/>
      <point x="283" y="700"/>
      <point x="151" y="700"/>
      <point x="283" y="700" type="curve"/>
      <point x="283" y="722"/>
      <point x="283" y="700"/>
      <point x="283" y="722" type="curve"/>
      <point x="239" y="722"/>
      <point x="195" y="722"/>
      <point x="151" y="722" type="curve"/>
    </contour>
    <contour>
      <point x="138" y="721"/>
      <point x="159" y="721"/>
      <point x="137" y="721" type="curve"/>
      <point x="137" y="571"/>
      <point x="137" y="421"/>
      <point x="137" y="271" type="curve"/>
      <point x="137" y="106"/>
      <point x="178" y="-5"/>
      <point x="326" y="-5" type="curve"/>
      <point x="470" y="-5"/>
      <point x="513" y="103"/>
      <point x="513" y="263" type="curve"/>
      <point x="513" y="416"/>
      <point x="513" y="569"/>
      <point x="513" y="721" type="curve"/>
      <point x="491" y="721"/>
      <point x="512" y="721"/>
      <point x="490" y="721" type="curve"/>
      <point x="490" y="567"/>
      <point x="490" y="413"/>
      <point x="490" y="259" type="curve"/>
      <point x="490" y="117"/>
      <point x="451" y="19"/>
      <point x="328" y="19" type="curve"/>
      <point x="194" y="19"/>
      <point x="160" y="124"/>
      <point x="160" y="275" type="curve"/>
      <point x="160" y="424"/>
      <point x="160" y="573"/>
      <point x="160" y="721" type="curve"/>
    </contour>
  </outline>
</glyph>
<glyph name="V" format="1">
  <advance width="686"/>
  <unicode hex="0056"/>
  <outline>
    <contour>
      <point x="531" y="722"/>
      <point x="531" y="700"/>
      <point x="531" y="722" type="curve"/>
      <point x="486" y="722"/>
      <point x="440" y="722"/>
      <point x="394" y="722" type="curve"/>
      <point x="394" y="700"/>
      <point x="394" y="722"/>
      <point x="394" y="700" type="curve"/>
      <point x="531" y="700"/>
      <point x="394" y="700"/>
      <point x="531" y="700" type="curve"/>
    </contour>
    <contour>
      <point x="152" y="722"/>
      <point x="152" y="700"/>
      <point x="152" y="722" type="curve"/>
      <point x="108" y="722"/>
      <point x="64" y="722"/>
      <point x="20" y="722" type="curve"/>
      <point x="20" y="700"/>
      <point x="20" y="722"/>
      <point x="20" y="700" type="curve"/>
      <point x="152" y="700"/>
      <point x="20" y="700"/>
      <point x="152" y="700" type="curve"/>
    </contour>
    <contour>
      <point x="531" y="700"/>
      <point x="531" y="722"/>
      <point x="531" y="700" type="curve"/>
      <point x="664" y="700"/>
      <point x="531" y="700"/>
      <point x="664" y="700" type="curve"/>
      <point x="664" y="722"/>
      <point x="664" y="700"/>
      <point x="664" y="722" type="curve"/>
      <point x="619" y="722"/>
      <point x="575" y="722"/>
      <point x="531" y="722" type="curve"/>
    </contour>
    <contour>
      <point x="152" y="700"/>
      <point x="152" y="722"/>
      <point x="152" y="700" type="curve"/>
      <point x="290" y="700"/>
      <point x="152" y="700"/>
      <point x="290" y="700" type="curve"/>
      <point x="290" y="722"/>
      <point x="290" y="700"/>
      <point x="290" y="722" type="curve"/>
      <point x="244" y="722"/>
      <point x="198" y="722"/>
      <point x="152" y="722" type="curve"/>
    </contour>
    <contour>
      <point x="527" y="722"/>
      <point x="553" y="722"/>
      <point x="527" y="722" type="curve"/>
      <point x="462" y="481"/>
      <point x="397" y="241"/>
      <point x="332" y="0" type="curve"/>
      <point x="359" y="0"/>
      <point x="332" y="0"/>
      <point x="359" y="0" type="curve"/>
      <point x="424" y="241"/>
      <point x="488" y="481"/>
      <point x="553" y="722" type="curve"/>
    </contour>
    <contour>
      <point x="130" y="722"/>
      <point x="158" y="722"/>
      <point x="130" y="722" type="curve"/>
      <point x="196" y="481"/>
      <point x="262" y="241"/>
      <point x="328" y="0" type="curve"/>
      <point x="355" y="0"/>
      <point x="328" y="0"/>
      <point x="355" y="0" type="curve"/>
      <point x="289" y="241"/>
      <point x="223" y="481"/>
      <point x="158" y="722" type="curve"/>
    </contour>
  </outline>
</glyph>
<glyph name="W" format="1">
  <advance width="822"/>
  <unicode hex="0057"/>
  <outline>
    <contour>
      <point x="154" y="700"/>
      <point x="154" y="722"/>
      <point x="154" y="700" type="curve"/>
      <point x="287" y="700"/>
      <point x="154" y="700"/>
      <point x="287" y="700" type="curve"/>
      <point x="287" y="722"/>
      <point x="287" y="700"/>
      <point x="287" y="722" type="curve"/>
      <point x="242" y="722"/>
      <point x="198" y="722"/>
      <point x="154" y="722" type="curve"/>
    </contour>
    <contour>
      <point x="154" y="722"/>
      <point x="154" y="700"/>
      <point x="154" y="722" type="curve"/>
      <point x="110" y="722"/>
      <point x="66" y="722"/>
      <point x="22" y="722" type="curve"/>
      <point x="22" y="700"/>
      <point x="22" y="722"/>
      <point x="22" y="700" type="curve"/>
      <point x="154" y="700"/>
      <point x="22" y="700"/>
      <point x="154" y="700" type="curve"/>
    </contour>
    <contour>
      <point x="670" y="722"/>
      <point x="670" y="700"/>
      <point x="670" y="722" type="curve"/>
      <point x="626" y="722"/>
      <point x="582" y="722"/>
      <point x="538" y="722" type="curve"/>
      <point x="538" y="700"/>
      <point x="538" y="722"/>
      <point x="538" y="700" type="curve"/>
      <point x="670" y="700"/>
      <point x="538" y="700"/>
      <point x="670" y="700" type="curve"/>
    </contour>
    <contour>
      <point x="670" y="700"/>
      <point x="670" y="722"/>
      <point x="670" y="700" type="curve"/>
      <point x="802" y="700"/>
      <point x="670" y="700"/>
      <point x="802" y="700" type="curve"/>
      <point x="802" y="722"/>
      <point x="802" y="700"/>
      <point x="802" y="722" type="curve"/>
      <point x="758" y="722"/>
      <point x="714" y="722"/>
      <point x="670" y="722" type="curve"/>
    </contour>
    <contour>
      <point x="283" y="0"/>
      <point x="266" y="0"/>
      <point x="284" y="0" type="curve"/>
      <point x="331" y="241"/>
      <point x="377" y="481"/>
      <point x="424" y="722" type="curve"/>
      <point x="401" y="722"/>
      <point x="425" y="722"/>
      <point x="402" y="722" type="curve"/>
      <point x="357" y="481"/>
      <point x="310" y="241"/>
      <point x="265" y="0" type="curve"/>
    </contour>
    <contour>
      <point x="407" y="722"/>
      <point x="431" y="722"/>
      <point x="408" y="722" type="curve"/>
      <point x="451" y="481"/>
      <point x="492" y="241"/>
      <point x="535" y="0" type="curve"/>
      <point x="553" y="0"/>
      <point x="536" y="0"/>
      <point x="554" y="0" type="curve"/>
      <point x="513" y="241"/>
      <point x="471" y="481"/>
      <point x="430" y="722" type="curve"/>
    </contour>
    <contour>
      <point x="133" y="722"/>
      <point x="158" y="722"/>
      <point x="133" y="722" type="curve"/>
      <point x="176" y="481"/>
      <point x="219" y="241"/>
      <point x="262" y="0" type="curve"/>
      <point x="280" y="0"/>
      <point x="263" y="0"/>
      <point x="281" y="0" type="curve"/>
      <point x="240" y="241"/>
      <point x="199" y="481"/>
      <point x="158" y="722" type="curve"/>
    </contour>
    <contour>
      <point x="666" y="722"/>
      <point x="691" y="722"/>
      <point x="666" y="722" type="curve"/>
      <point x="623" y="481"/>
      <point x="580" y="241"/>
      <point x="538" y="0" type="curve"/>
      <point x="556" y="0"/>
      <point x="539" y="0"/>
      <point x="557" y="0" type="curve"/>
      <point x="602" y="241"/>
      <point x="646" y="481"/>
      <point x="691" y="722" type="curve"/>
    </contour>
  </outline>
</glyph>
<glyph name="X" format="1">
  <advance width="681"/>
  <unicode hex="0058"/>
  <outline>
    <contour>
      <point x="161" y="0"/>
      <point x="161" y="22"/>
      <point x="161" y="0" type="curve"/>
      <point x="205" y="0"/>
      <point x="161" y="0"/>
      <point x="293" y="0" type="curve"/>
      <point x="293" y="22"/>
      <point x="293" y="0"/>
      <point x="293" y="22" type="curve"/>
      <point x="161" y="22"/>
      <point x="293" y="22"/>
      <point x="161" y="22" type="curve"/>
    </contour>
    <contour>
      <point x="161" y="22"/>
      <point x="161" y="0"/>
      <point x="161" y="22" type="curve"/>
      <point x="29" y="22"/>
      <point x="161" y="22"/>
      <point x="29" y="22" type="curve"/>
      <point x="29" y="0"/>
      <point x="29" y="22"/>
      <point x="29" y="0" type="curve"/>
      <point x="73" y="0"/>
      <point x="117" y="0"/>
      <point x="161" y="0" type="curve"/>
    </contour>
    <contour>
      <point x="510" y="0"/>
      <point x="510" y="22"/>
      <point x="510" y="0" type="curve"/>
      <point x="554" y="0"/>
      <point x="598" y="0"/>
      <point x="642" y="0" type="curve"/>
      <point x="642" y="22"/>
      <point x="642" y="0"/>
      <point x="642" y="22" type="curve"/>
      <point x="510" y="22"/>
      <point x="642" y="22"/>
      <point x="510" y="22" type="curve"/>
    </contour>
    <contour>
      <point x="510" y="22"/>
      <point x="510" y="0"/>
      <point x="510" y="22" type="curve"/>
      <point x="378" y="22"/>
      <point x="510" y="22"/>
      <point x="378" y="22" type="curve"/>
      <point x="378" y="0"/>
      <point x="378" y="22"/>
      <point x="378" y="0" type="curve"/>
      <point x="422" y="0"/>
      <point x="466" y="0"/>
      <point x="510" y="0" type="curve"/>
    </contour>
    <contour>
      <point x="492" y="700"/>
      <point x="492" y="722"/>
      <point x="492" y="700" type="curve"/>
      <point x="624" y="700"/>
      <point x="492" y="700"/>
      <point x="624" y="700" type="curve"/>
      <point x="624" y="722"/>
      <point x="624" y="700"/>
      <point x="624" y="722" type="curve"/>
      <point x="580" y="722"/>
      <point x="536" y="722"/>
      <point x="492" y="722" type="curve"/>
    </contour>
    <contour>
      <point x="492" y="722"/>
      <point x="492" y="700"/>
      <point x="492" y="722" type="curve"/>
      <point x="448" y="722"/>
      <point x="404" y="722"/>
      <point x="360" y="722" type="curve"/>
      <point x="360" y="700"/>
      <point x="360" y="722"/>
      <point x="360" y="700" type="curve"/>
      <point x="492" y="700"/>
      <point x="360" y="700"/>
      <point x="492" y="700" type="curve"/>
    </contour>
    <contour>
      <point x="182" y="722"/>
      <point x="182" y="700"/>
      <point x="182" y="722" type="curve"/>
      <point x="138" y="722"/>
      <point x="94" y="722"/>
      <point x="50" y="722" type="curve"/>
      <point x="50" y="700"/>
      <point x="50" y="722"/>
      <point x="50" y="700" type="curve"/>
      <point x="182" y="700"/>
      <point x="50" y="700"/>
      <point x="182" y="700" type="curve"/>
    </contour>
    <contour>
      <point x="182" y="700"/>
      <point x="182" y="722"/>
      <point x="182" y="700" type="curve"/>
      <point x="314" y="700"/>
      <point x="182" y="700"/>
      <point x="314" y="700" type="curve"/>
      <point x="314" y="722"/>
      <point x="314" y="700"/>
      <point x="314" y="722" type="curve"/>
      <point x="270" y="722"/>
      <point x="226" y="722"/>
      <point x="182" y="722" type="curve"/>
    </contour>
    <contour>
      <point x="487" y="722"/>
      <point x="515" y="722"/>
      <point x="487" y="722" type="curve"/>
      <point x="370" y="481"/>
      <point x="254" y="241"/>
      <point x="137" y="0" type="curve"/>
      <point x="168" y="0"/>
      <point x="137" y="0"/>
      <point x="168" y="0" type="curve"/>
      <point x="284" y="241"/>
      <point x="399" y="481"/>
      <point x="515" y="722" type="curve"/>
    </contour>
    <contour>
      <point x="161" y="722"/>
      <point x="189" y="722"/>
      <point x="161" y="722" type="curve"/>
      <point x="275" y="481"/>
      <point x="390" y="241"/>
      <point x="505" y="0" type="curve"/>
      <point x="535" y="0"/>
      <point x="505" y="0"/>
      <point x="535" y="0" type="curve"/>
      <point x="420" y="241"/>
      <point x="304" y="481"/>
      <point x="189" y="722" type="curve"/>
    </contour>
  </outline>
</glyph>
<glyph name="bracketleft" format="1">
  <advance width="238"/>
  <unicode hex="005B"/>
  <outline>
    <contour>
      <point x="180" y="771"/>
      <point x="180" y="747"/>
      <point x="180" y="771" type="curve"/>
      <point x="145" y="771"/>
      <point x="109" y="771"/>
      <point x="73" y="771" type="curve"/>
      <point x="71" y="771"/>
      <point x="68" y="771"/>
      <point x="66" y="771" type="curve"/>
      <point x="66" y="769"/>
      <point x="66" y="767"/>
      <point x="66" y="765" type="curve"/>
      <point x="66" y="470"/>
      <point x="66" y="175"/>
      <point x="66" y="-120" type="curve"/>
      <point x="66" y="-121"/>
      <point x="66" y="-123"/>
      <point x="66" y="-124" type="curve"/>
      <point x="68" y="-124"/>
      <point x="71" y="-124"/>
      <point x="72" y="-124" type="curve"/>
      <point x="108" y="-124"/>
      <point x="144" y="-124"/>
      <point x="180" y="-124" type="curve"/>
      <point x="180" y="-100"/>
      <point x="180" y="-124"/>
      <point x="180" y="-100" type="curve"/>
      <point x="144" y="-100"/>
      <point x="108" y="-100"/>
      <point x="72" y="-100" type="curve"/>
      <point x="90" y="-100"/>
      <point x="72" y="-100"/>
      <point x="90" y="-100" type="curve"/>
      <point x="90" y="-120"/>
      <point x="90" y="-100"/>
      <point x="90" y="-120" type="curve"/>
      <point x="90" y="175"/>
      <point x="90" y="470"/>
      <point x="90" y="765" type="curve"/>
      <point x="90" y="747"/>
      <point x="90" y="765"/>
      <point x="90" y="747" type="curve"/>
      <point x="73" y="747"/>
      <point x="90" y="747"/>
      <point x="73" y="747" type="curve"/>
      <point x="109" y="747"/>
      <point x="145" y="747"/>
      <point x="180" y="747" type="curve"/>
    </contour>
  </outline>
</glyph>
<glyph name="a" format="1">
  <advance width="428"/>
  <unicode hex="0061"/>
  <outline>
    <contour>
      <point x="42.6" y="463.943923518"/>
      <point x="64.38" y="463.943923518"/>
      <point x="42.6" y="463.943923518" type="curve"/>
      <point x="42.6" y="343.943923518"/>
      <point x="42.6" y="463.943923518"/>
      <point x="42.6" y="343.943923518" type="curve"/>
      <point x="64.38" y="343.943923518"/>
      <point x="42.6" y="343.943923518"/>
      <point x="64.38" y="343.943923518" type="curve"/>
      <point x="64.38" y="463.943923518"/>
      <point x="64.38" y="343.943923518"/>
      <point x="64.38" y="463.943923518" type="curve"/>
    </contour>
    <contour>
      <point x="299.1" y="0"/>
      <point x="274.9" y="1.45213821436e-15"/>
      <point x="299.1" y="0" type="curve"/>
      <point x="299.1" y="129.884311087"/>
      <point x="299.1" y="259.772518741"/>
      <point x="299.1" y="389.656829828" type="curve"/>
      <point x="299.1" y="485.184935711"/>
      <point x="264" y="538"/>
      <point x="179" y="538" type="curve"/>
      <point x="114" y="538"/>
      <point x="72.026634037" y="500.868823753"/>
      <point x="42.6" y="463.943923518" type="curve"/>
      <point x="53" y="444"/>
      <point x="43" y="464"/>
      <point x="53" y="444" type="curve"/>
      <point x="79" y="479"/>
      <point x="116" y="516"/>
      <point x="176" y="516" type="curve"/>
      <point x="249" y="516"/>
      <point x="274.9" y="468.076774203"/>
      <point x="274.9" y="383.188829828" type="curve"/>
      <point x="274.9" y="255.460497181"/>
      <point x="274.9" y="127.728332647"/>
      <point x="274.9" y="1.45213821436e-15" type="curve"/>
    </contour>
    <contour>
      <point x="288.4" y="0"/>
      <point x="288.4" y="21.56"/>
      <point x="288.4" y="0" type="curve"/>
      <point x="330.099583" y="0"/>
      <point x="371.800417" y="0"/>
      <point x="413.5" y="0" type="curve"/>
      <point x="413.5" y="21.56"/>
      <point x="413.5" y="0"/>
      <point x="413.5" y="21.56" type="curve"/>
      <point x="288.4" y="21.56"/>
      <point x="413.5" y="21.56"/>
      <point x="288.4" y="21.56" type="curve"/>
    </contour>
    <contour>
      <point x="286.1" y="319.52919883"/>
      <point x="287.2" y="301.20319883"/>
      <point x="286.1" y="319.52919883" type="curve"/>
      <point x="230.303258734" y="308.621768371"/>
      <point x="204" y="305"/>
      <point x="148" y="294" type="curve"/>
      <point x="72" y="278"/>
      <point x="29" y="231"/>
      <point x="29" y="152" type="curve"/>
      <point x="29" y="61"/>
      <point x="55.1654125599" y="-5.0"/>
      <point x="136.4" y="-5.0" type="curve"/>
      <point x="228.764625443" y="-5.0"/>
      <point x="250.319143046" y="66.527594292"/>
      <point x="292.7" y="152.899421053" type="curve"/>
      <point x="280.6" y="164.757421053"/>
      <point x="292.7" y="152.899421053"/>
      <point x="280.6" y="164.757421053" type="curve"/>
      <point x="240" y="85"/>
      <point x="216" y="17"/>
      <point x="140.8" y="16.56" type="curve"/>
      <point x="71.1080327428" y="16.56"/>
      <point x="53" y="75"/>
      <point x="53" y="154" type="curve"/>
      <point x="53" y="219"/>
      <point x="87" y="261"/>
      <point x="147" y="274" type="curve"/>
      <point x="204" y="285"/>
      <point x="230.370108199" y="290.192091961"/>
      <point x="287.2" y="301.20319883" type="curve"/>
    </contour>
  </outline>
</glyph>
<glyph name="d" format="1">
  <advance width="553"/>
  <unicode hex="0064"/>
  <outline>
    <contour>
      <point x="372.4" y="799.989873418"/>
      <point x="372.4" y="778.429873418"/>
      <point x="372.4" y="799.989873418" type="curve"/>
      <point x="328.367106806" y="799.989873418"/>
      <point x="284.332893194" y="800"/>
      <point x="240.3" y="800" type="curve"/>
      <point x="240.3" y="778.44"/>
      <point x="240.3" y="800"/>
      <point x="240.3" y="778.44" type="curve"/>
      <point x="372.4" y="778.429873418"/>
      <point x="240.3" y="778.44"/>
      <point x="372.4" y="778.429873418" type="curve"/>
    </contour>
    <contour>
      <point x="373.1" y="-0.0101265822785"/>
      <point x="373.1" y="21.5498734177"/>
      <point x="373.1" y="-0.0101265822785" type="curve"/>
      <point x="417.132893194" y="-0.0101265822785"/>
      <point x="461.167106806" y="0"/>
      <point x="505.2" y="0" type="curve"/>
      <point x="505.2" y="21.56"/>
      <point x="505.2" y="0"/>
      <point x="505.2" y="21.56" type="curve"/>
      <point x="373.1" y="21.5498734177"/>
      <point x="505.2" y="21.56"/>
      <point x="373.1" y="21.5498734177" type="curve"/>
    </contour>
    <contour>
      <point x="379.7" y="448.055877193"/>
      <point x="365.4" y="431.885877193"/>
      <point x="379.7" y="448.055877193" type="curve"/>
      <point x="347.063620317" y="498.844495901"/>
      <point x="301" y="538"/>
      <point x="237" y="538" type="curve"/>
      <point x="108" y="538"/>
      <point x="62.8" y="409.826623841"/>
      <point x="62.8" y="263.967081871" type="curve"/>
      <point x="62.8" y="120.436900779"/>
      <point x="111" y="-5"/>
      <point x="239" y="-5" type="curve"/>
      <point x="312" y="-5"/>
      <point x="352.523228598" y="49.9032936166"/>
      <point x="379.7" y="118.881251462" type="curve"/>
      <point x="365.4" y="133.973251462"/>
      <point x="379.7" y="118.881251462"/>
      <point x="365.4" y="133.973251462" type="curve"/>
      <point x="338.960798482" y="70.3834166967"/>
      <point x="302" y="17"/>
      <point x="238" y="17" type="curve"/>
      <point x="127" y="17"/>
      <point x="87.0" y="134.058134083"/>
      <point x="87" y="265.045081871" type="curve"/>
      <point x="87.0" y="397.219225596"/>
      <point x="126" y="516"/>
      <point x="238" y="516" type="curve"/>
      <point x="293" y="516"/>
      <point x="337.164169271" y="479.127564695"/>
      <point x="365.4" y="431.885877193" type="curve"/>
    </contour>
    <contour>
      <point x="385.4" y="0"/>
      <point x="360.1" y="1.51814449683e-15"/>
      <point x="385.4" y="0" type="curve"/>
      <point x="385.4" y="266.664"/>
      <point x="385.4" y="533.336"/>
      <point x="385.4" y="800" type="curve"/>
      <point x="360.1" y="800"/>
      <point x="385.4" y="800"/>
      <point x="360.1" y="800" type="curve"/>
      <point x="360.1" y="533.336"/>
      <point x="360.1" y="266.664"/>
      <point x="360.1" y="1.51814449683e-15" type="curve"/>
    </contour>
  </outline>
</glyph>
<glyph name="f" format="1">
  <advance width="412"/>
  <unicode hex="0066"/>
  <outline>
    <contour>
      <point x="329" y="777"/>
      <point x="350" y="777"/>
      <point x="329" y="777" type="curve"/>
      <point x="329" y="657"/>
      <point x="329" y="777"/>
      <point x="329" y="657" type="curve"/>
      <point x="350" y="657"/>
      <point x="329" y="657"/>
      <point x="350" y="657" type="curve"/>
      <point x="350" y="777"/>
      <point x="350" y="657"/>
      <point x="350" y="777" type="curve"/>
    </contour>
    <contour>
      <point x="177.8" y="-0.0101265822785"/>
      <point x="177.8" y="21.5498734177"/>
      <point x="177.8" y="-0.0101265822785" type="curve"/>
      <point x="221.832893194" y="-0.0101265822785"/>
      <point x="265.867106806" y="0"/>
      <point x="309.9" y="0" type="curve"/>
      <point x="309.9" y="21.56"/>
      <point x="309.9" y="0"/>
      <point x="309.9" y="21.56" type="curve"/>
      <point x="177.8" y="21.5498734177"/>
      <point x="309.9" y="21.56"/>
      <point x="177.8" y="21.5498734177" type="curve"/>
    </contour>
    <contour>
      <point x="177.8" y="21.5498734177"/>
      <point x="177.8" y="-0.0101265822785"/>
      <point x="177.8" y="21.5498734177" type="curve"/>
      <point x="45.7" y="21.56"/>
      <point x="177.8" y="21.5498734177"/>
      <point x="45.7" y="21.56" type="curve"/>
      <point x="45.7" y="0"/>
      <point x="45.7" y="21.56"/>
      <point x="45.7" y="0" type="curve"/>
      <point x="89.7328931941" y="-5.39229607826e-15"/>
      <point x="133.767106806" y="-0.0101265822785"/>
      <point x="177.8" y="-0.0101265822785" type="curve"/>
    </contour>
    <contour>
      <point x="48.3" y="487.013873418"/>
      <point x="48.3" y="508.573873418"/>
      <point x="48.3" y="487.013873418" type="curve"/>
      <point x="48.3" y="487.013873418"/>
      <point x="343" y="487.013873418"/>
      <point x="343" y="487.013873418" type="curve"/>
      <point x="343" y="508.573873418"/>
      <point x="343" y="487.013873418"/>
      <point x="343" y="508.573873418" type="curve"/>
      <point x="343" y="508.573873418"/>
      <point x="48.3" y="508.573873418"/>
      <point x="48.3" y="508.573873418" type="curve"/>
    </contour>
    <contour>
      <point x="189.9" y="0"/>
      <point x="165.7" y="1.45213821436e-15"/>
      <point x="189.9" y="0" type="curve"/>
      <point x="189.9" y="0"/>
      <point x="190" y="640"/>
      <point x="190" y="640" type="curve"/>
      <point x="190" y="718"/>
      <point x="210" y="784"/>
      <point x="274" y="784" type="curve"/>
      <point x="299" y="784"/>
      <point x="321" y="774"/>
      <point x="341" y="760" type="curve"/>
      <point x="350" y="777"/>
      <point x="341" y="760"/>
      <point x="350" y="777" type="curve"/>
      <point x="328" y="793"/>
      <point x="301" y="805"/>
      <point x="274" y="805" type="curve"/>
      <point x="195" y="805"/>
      <point x="165" y="729"/>
      <point x="166" y="640" type="curve"/>
      <point x="166" y="640"/>
      <point x="165.7" y="1.45213821436e-15"/>
      <point x="165.7" y="1.45213821436e-15" type="curve"/>
    </contour>
  </outline>
</glyph>
<glyph name="h" format="1">
  <advance width="583"/>
  <unicode hex="0068"/>
  <outline>
    <contour>
      <point x="421" y="0"/>
      <point x="421" y="22"/>
      <point x="421" y="0" type="curve"/>
      <point x="465" y="0"/>
      <point x="509" y="0"/>
      <point x="553" y="0" type="curve"/>
      <point x="553" y="22"/>
      <point x="553" y="0"/>
      <point x="553" y="22" type="curve"/>
      <point x="421" y="22"/>
      <point x="553" y="22"/>
      <point x="421" y="22" type="curve"/>
    </contour>
    <contour>
      <point x="161" y="0"/>
      <point x="161" y="22"/>
      <point x="161" y="0" type="curve"/>
      <point x="203" y="0"/>
      <point x="151" y="0"/>
      <point x="276" y="0" type="curve"/>
      <point x="276" y="22"/>
      <point x="276" y="0"/>
      <point x="276" y="22" type="curve"/>
      <point x="151" y="22"/>
      <point x="286" y="22"/>
      <point x="161" y="22" type="curve"/>
    </contour>
    <contour>
      <point x="161" y="800"/>
      <point x="161" y="778"/>
      <point x="161" y="800" type="curve"/>
      <point x="117" y="800"/>
      <point x="73" y="800"/>
      <point x="29" y="800" type="curve"/>
      <point x="29" y="778"/>
      <point x="29" y="800"/>
      <point x="29" y="778" type="curve"/>
      <point x="161" y="778"/>
      <point x="29" y="778"/>
      <point x="161" y="778" type="curve"/>
    </contour>
    <contour>
      <point x="161" y="22"/>
      <point x="161" y="0"/>
      <point x="161" y="22" type="curve"/>
      <point x="29" y="22"/>
      <point x="161" y="22"/>
      <point x="29" y="22" type="curve"/>
      <point x="29" y="0"/>
      <point x="29" y="22"/>
      <point x="29" y="0" type="curve"/>
      <point x="73" y="0"/>
      <point x="117" y="0"/>
      <point x="161" y="0" type="curve"/>
    </contour>
    <contour>
      <point x="421" y="22"/>
      <point x="421" y="0"/>
      <point x="421" y="22" type="curve"/>
      <point x="296" y="22"/>
      <point x="431" y="22"/>
      <point x="306" y="22" type="curve"/>
      <point x="306" y="0"/>
      <point x="306" y="22"/>
      <point x="306" y="0" type="curve"/>
      <point x="348" y="0"/>
      <point x="379" y="0"/>
      <point x="421" y="0" type="curve"/>
    </contour>
    <contour>
      <point x="168" y="354"/>
      <point x="155" y="364"/>
      <point x="167" y="353" type="curve"/>
      <point x="188" y="430"/>
      <point x="232" y="516"/>
      <point x="308" y="516" type="curve"/>
      <point x="393" y="516"/>
      <point x="410" y="438"/>
      <point x="410" y="341" type="curve"/>
      <point x="410" y="228"/>
      <point x="410" y="114"/>
      <point x="410" y="0" type="curve"/>
      <point x="434" y="0"/>
      <point x="410" y="0"/>
      <point x="434" y="0" type="curve"/>
      <point x="434" y="115"/>
      <point x="434" y="229"/>
      <point x="434" y="344" type="curve"/>
      <point x="434" y="454"/>
      <point x="408" y="538"/>
      <point x="311" y="538" type="curve"/>
      <point x="227" y="538"/>
      <point x="172" y="452"/>
      <point x="156" y="365" type="curve"/>
    </contour>
    <contour>
      <point x="173" y="0"/>
      <point x="149" y="0"/>
      <point x="173" y="0" type="curve"/>
      <point x="173" y="267"/>
      <point x="173" y="533"/>
      <point x="173" y="800" type="curve"/>
      <point x="149" y="800"/>
      <point x="173" y="800"/>
      <point x="149" y="800" type="curve"/>
      <point x="149" y="533"/>
      <point x="149" y="267"/>
      <point x="149" y="0" type="curve"/>
    </contour>
  </outline>
</glyph>
<glyph name="i" format="1">
  <advance width="311"/>
  <unicode hex="0069"/>
  <outline>
    <contour>
      <point x="159" y="22"/>
      <point x="159" y="0"/>
      <point x="159" y="22" type="curve"/>
      <point x="27" y="22"/>
      <point x="159" y="22"/>
      <point x="27" y="22" type="curve"/>
      <point x="27" y="0"/>
      <point x="27" y="22"/>
      <point x="27" y="0" type="curve"/>
      <point x="71" y="0"/>
      <point x="115" y="0"/>
      <point x="159" y="0" type="curve"/>
    </contour>
    <contour>
      <point x="159" y="0"/>
      <point x="159" y="22"/>
      <point x="159" y="0" type="curve"/>
      <point x="200" y="0"/>
      <point x="242" y="0"/>
      <point x="284" y="0" type="curve"/>
      <point x="284" y="22"/>
      <point x="284" y="0"/>
      <point x="284" y="22" type="curve"/>
      <point x="159" y="22"/>
      <point x="284" y="22"/>
      <point x="159" y="22" type="curve"/>
    </contour>
    <contour>
      <point x="159" y="533"/>
      <point x="159" y="511"/>
      <point x="159" y="533" type="curve"/>
      <point x="115" y="533"/>
      <point x="71" y="533"/>
      <point x="27" y="533" type="curve"/>
      <point x="27" y="511"/>
      <point x="27" y="533"/>
      <point x="27" y="511" type="curve"/>
      <point x="159" y="511"/>
      <point x="27" y="511"/>
      <point x="159" y="511" type="curve"/>
    </contour>
    <contour>
      <point x="173" y="670"/>
      <point x="144" y="670"/>
      <point x="173" y="670" type="curve"/>
      <point x="173" y="679"/>
      <point x="167" y="684"/>
      <point x="158" y="684" type="curve"/>
      <point x="150" y="684"/>
      <point x="144" y="678"/>
      <point x="144" y="670" type="curve"/>
      <point x="173" y="670"/>
      <point x="144" y="670"/>
      <point x="173" y="670" type="curve"/>
      <point x="173" y="661"/>
      <point x="167" y="657"/>
      <point x="158" y="657" type="curve"/>
      <point x="150" y="657"/>
      <point x="144" y="662"/>
      <point x="144" y="670" type="curve"/>
    </contour>
    <contour>
      <point x="172" y="0"/>
      <point x="146" y="0"/>
      <point x="172" y="0" type="curve"/>
      <point x="172" y="178"/>
      <point x="172" y="355"/>
      <point x="172" y="533" type="curve"/>
      <point x="146" y="533"/>
      <point x="172" y="533"/>
      <point x="146" y="533" type="curve"/>
      <point x="146" y="355"/>
      <point x="146" y="178"/>
      <point x="146" y="0" type="curve"/>
    </contour>
  </outline>
</glyph>
<glyph name="k" format="1">
  <advance width="589"/>
  <unicode hex="006B"/>
  <outline>
    <contour>
      <point x="166" y="22"/>
      <point x="166" y="0"/>
      <point x="166" y="22" type="curve"/>
      <point x="34" y="22"/>
      <point x="166" y="22"/>
      <point x="34" y="22" type="curve"/>
      <point x="34" y="0"/>
      <point x="34" y="22"/>
      <point x="34" y="0" type="curve"/>
      <point x="78" y="0"/>
      <point x="122" y="0"/>
      <point x="166" y="0" type="curve"/>
    </contour>
    <contour>
      <point x="434" y="0"/>
      <point x="434" y="22"/>
      <point x="434" y="0" type="curve"/>
      <point x="478" y="0"/>
      <point x="522" y="0"/>
      <point x="566" y="0" type="curve"/>
      <point x="566" y="22"/>
      <point x="566" y="0"/>
      <point x="566" y="22" type="curve"/>
      <point x="434" y="22"/>
      <point x="566" y="22"/>
      <point x="434" y="22" type="curve"/>
    </contour>
    <contour>
      <point x="416" y="511"/>
      <point x="416" y="533"/>
      <point x="416" y="511" type="curve"/>
      <point x="539" y="511"/>
      <point x="416" y="511"/>
      <point x="539" y="511" type="curve"/>
      <point x="539" y="533"/>
      <point x="539" y="511"/>
      <point x="539" y="533" type="curve"/>
      <point x="498" y="533"/>
      <point x="456" y="533"/>
      <point x="416" y="533" type="curve"/>
    </contour>
    <contour>
      <point x="166" y="0"/>
      <point x="166" y="22"/>
      <point x="166" y="0" type="curve"/>
      <point x="207" y="0"/>
      <point x="166" y="0"/>
      <point x="289" y="0" type="curve"/>
      <point x="289" y="22"/>
      <point x="289" y="0"/>
      <point x="289" y="22" type="curve"/>
      <point x="166" y="22"/>
      <point x="289" y="22"/>
      <point x="166" y="22" type="curve"/>
    </contour>
    <contour>
      <point x="416" y="533"/>
      <point x="416" y="511"/>
      <point x="416" y="533" type="curve"/>
      <point x="374" y="533"/>
      <point x="332" y="533"/>
      <point x="290" y="533" type="curve"/>
      <point x="290" y="511"/>
      <point x="290" y="533"/>
      <point x="290" y="511" type="curve"/>
      <point x="416" y="511"/>
      <point x="290" y="511"/>
      <point x="416" y="511" type="curve"/>
    </contour>
    <contour>
      <point x="167" y="800"/>
      <point x="167" y="778"/>
      <point x="167" y="800" type="curve"/>
      <point x="123" y="800"/>
      <point x="79" y="800"/>
      <point x="35" y="800" type="curve"/>
      <point x="35" y="778"/>
      <point x="35" y="800"/>
      <point x="35" y="778" type="curve"/>
      <point x="167" y="778"/>
      <point x="35" y="778"/>
      <point x="167" y="778" type="curve"/>
    </contour>
    <contour>
      <point x="178" y="0"/>
      <point x="154" y="0"/>
      <point x="178" y="0" type="curve"/>
      <point x="178" y="0"/>
      <point x="178" y="800"/>
      <point x="178" y="800" type="curve"/>
      <point x="154" y="800"/>
      <point x="178" y="800"/>
      <point x="154" y="800" type="curve"/>
      <point x="154" y="533"/>
      <point x="154" y="267"/>
      <point x="154" y="0" type="curve"/>
    </contour>
    <contour>
      <point x="405" y="533"/>
      <point x="446" y="533"/>
      <point x="409" y="533" type="curve"/>
      <point x="327" y="447"/>
      <point x="245" y="361"/>
      <point x="164" y="275" type="curve"/>
      <point x="200" y="275"/>
      <point x="160" y="275"/>
      <point x="196" y="275" type="curve"/>
      <point x="278" y="361"/>
      <point x="360" y="447"/>
      <point x="442" y="533" type="curve"/>
    </contour>
    <contour>
      <point x="464" y="0"/>
      <point x="423" y="0"/>
      <point x="460" y="0" type="curve"/>
      <point x="372" y="92"/>
      <point x="284" y="183"/>
      <point x="196" y="275" type="curve"/>
      <point x="160" y="275"/>
      <point x="200" y="275"/>
      <point x="164" y="275" type="curve"/>
      <point x="252" y="183"/>
      <point x="340" y="92"/>
      <point x="427" y="0" type="curve"/>
    </contour>
  </outline>
</glyph>
<glyph name="l" format="1">
  <advance width="335"/>
  <unicode hex="006C"/>
  <outline>
    <contour>
      <point x="167" y="22"/>
      <point x="167" y="0"/>
      <point x="167" y="22" type="curve"/>
      <point x="35" y="22"/>
      <point x="167" y="22"/>
      <point x="35" y="22" type="curve"/>
      <point x="35" y="0"/>
      <point x="35" y="22"/>
      <point x="35" y="0" type="curve"/>
      <point x="79" y="0"/>
      <point x="123" y="0"/>
      <point x="167" y="0" type="curve"/>
    </contour>
    <contour>
      <point x="168" y="800"/>
      <point x="168" y="778"/>
      <point x="168" y="800" type="curve"/>
      <point x="124" y="800"/>
      <point x="80" y="800"/>
      <point x="36" y="800" type="curve"/>
      <point x="36" y="778"/>
      <point x="36" y="800"/>
      <point x="36" y="778" type="curve"/>
      <point x="168" y="778"/>
      <point x="36" y="778"/>
      <point x="168" y="778" type="curve"/>
    </contour>
    <contour>
      <point x="167" y="0"/>
      <point x="167" y="22"/>
      <point x="167" y="0" type="curve"/>
      <point x="211" y="0"/>
      <point x="255" y="0"/>
      <point x="299" y="0" type="curve"/>
      <point x="299" y="22"/>
      <point x="299" y="0"/>
      <point x="299" y="22" type="curve"/>
      <point x="167" y="22"/>
      <point x="299" y="22"/>
      <point x="167" y="22" type="curve"/>
    </contour>
    <contour>
      <point x="178" y="0"/>
      <point x="154" y="0"/>
      <point x="178" y="0" type="curve"/>
      <point x="178" y="267"/>
      <point x="178" y="533"/>
      <point x="178" y="800" type="curve"/>
      <point x="154" y="800"/>
      <point x="178" y="800"/>
      <point x="154" y="800" type="curve"/>
      <point x="154" y="533"/>
      <point x="154" y="267"/>
      <point x="154" y="0" type="curve"/>
    </contour>
  </outline>
</glyph>
<glyph name="m" format="1">
  <advance width="780"/>
  <unicode hex="006D"/>
  <outline>
    <contour>
      <point x="385" y="0"/>
      <point x="385" y="22"/>
      <point x="385" y="0" type="curve"/>
      <point x="503" y="0"/>
      <point x="375" y="0"/>
      <point x="493" y="0" type="curve"/>
      <point x="493" y="22"/>
      <point x="493" y="0"/>
      <point x="493" y="22" type="curve"/>
      <point x="375" y="22"/>
      <point x="503" y="22"/>
      <point x="385" y="22" type="curve"/>
    </contour>
    <contour>
      <point x="385" y="22"/>
      <point x="385" y="0"/>
      <point x="385" y="22" type="curve"/>
      <point x="267" y="22"/>
      <point x="395" y="22"/>
      <point x="277" y="22" type="curve"/>
      <point x="277" y="0"/>
      <point x="277" y="22"/>
      <point x="277" y="0" type="curve"/>
      <point x="395" y="0"/>
      <point x="267" y="0"/>
      <point x="385" y="0" type="curve"/>
    </contour>
    <contour>
      <point x="618" y="0"/>
      <point x="618" y="22"/>
      <point x="618" y="0" type="curve"/>
      <point x="662" y="0"/>
      <point x="706" y="0"/>
      <point x="750" y="0" type="curve"/>
      <point x="750" y="22"/>
      <point x="750" y="0"/>
      <point x="750" y="22" type="curve"/>
      <point x="618" y="22"/>
      <point x="750" y="22"/>
      <point x="618" y="22" type="curve"/>
    </contour>
    <contour>
      <point x="152" y="22"/>
      <point x="152" y="0"/>
      <point x="152" y="22" type="curve"/>
      <point x="20" y="22"/>
      <point x="152" y="22"/>
      <point x="20" y="22" type="curve"/>
      <point x="20" y="0"/>
      <point x="20" y="22"/>
      <point x="20" y="0" type="curve"/>
      <point x="64" y="0"/>
      <point x="108" y="0"/>
      <point x="152" y="0" type="curve"/>
    </contour>
    <contour>
      <point x="152" y="0"/>
      <point x="152" y="22"/>
      <point x="152" y="0" type="curve"/>
      <point x="192" y="0"/>
      <point x="142" y="0"/>
      <point x="260" y="0" type="curve"/>
      <point x="260" y="22"/>
      <point x="260" y="0"/>
      <point x="260" y="22" type="curve"/>
      <point x="142" y="22"/>
      <point x="270" y="22"/>
      <point x="152" y="22" type="curve"/>
    </contour>
    <contour>
      <point x="152" y="533"/>
      <point x="152" y="511"/>
      <point x="152" y="533" type="curve"/>
      <point x="108" y="533"/>
      <point x="64" y="533"/>
      <point x="20" y="533" type="curve"/>
      <point x="20" y="511"/>
      <point x="20" y="533"/>
      <point x="20" y="511" type="curve"/>
      <point x="152" y="511"/>
      <point x="20" y="511"/>
      <point x="152" y="511" type="curve"/>
    </contour>
    <contour>
      <point x="618" y="22"/>
      <point x="618" y="0"/>
      <point x="618" y="22" type="curve"/>
      <point x="500" y="22"/>
      <point x="628" y="22"/>
      <point x="510" y="22" type="curve"/>
      <point x="510" y="0"/>
      <point x="510" y="22"/>
      <point x="510" y="0" type="curve"/>
      <point x="549" y="0"/>
      <point x="578" y="0"/>
      <point x="618" y="0" type="curve"/>
    </contour>
    <contour>
      <point x="391" y="354"/>
      <point x="379" y="365"/>
      <point x="391" y="354" type="curve"/>
      <point x="413" y="434"/>
      <point x="448" y="517"/>
      <point x="517" y="517" type="curve"/>
      <point x="604" y="517"/>
      <point x="605" y="443"/>
      <point x="605" y="341" type="curve"/>
      <point x="605" y="228"/>
      <point x="605" y="114"/>
      <point x="605" y="0" type="curve"/>
      <point x="629" y="0"/>
      <point x="605" y="0"/>
      <point x="629" y="0" type="curve"/>
      <point x="629" y="115"/>
      <point x="629" y="229"/>
      <point x="629" y="344" type="curve"/>
      <point x="629" y="458"/>
      <point x="620" y="538"/>
      <point x="521" y="538" type="curve"/>
      <point x="436" y="538"/>
      <point x="396" y="455"/>
      <point x="379" y="365" type="curve"/>
    </contour>
    <contour>
      <point x="159" y="354"/>
      <point x="147" y="365"/>
      <point x="159" y="354" type="curve"/>
      <point x="181" y="435"/>
      <point x="212" y="518"/>
      <point x="284" y="518" type="curve"/>
      <point x="371" y="518"/>
      <point x="373" y="443"/>
      <point x="373" y="341" type="curve"/>
      <point x="373" y="228"/>
      <point x="373" y="114"/>
      <point x="373" y="0" type="curve"/>
      <point x="397" y="0"/>
      <point x="373" y="0"/>
      <point x="397" y="0" type="curve"/>
      <point x="397" y="115"/>
      <point x="397" y="229"/>
      <point x="397" y="344" type="curve"/>
      <point x="397" y="458"/>
      <point x="388" y="539"/>
      <point x="289" y="539" type="curve"/>
      <point x="203" y="539"/>
      <point x="164" y="456"/>
      <point x="147" y="365" type="curve"/>
    </contour>
    <contour>
      <point x="164" y="0"/>
      <point x="140" y="0"/>
      <point x="164" y="0" type="curve"/>
      <point x="164" y="178"/>
      <point x="164" y="355"/>
      <point x="164" y="533" type="curve"/>
      <point x="140" y="533"/>
      <point x="164" y="533"/>
      <point x="140" y="533" type="curve"/>
      <point x="140" y="355"/>
      <point x="140" y="178"/>
      <point x="140" y="0" type="curve"/>
    </contour>
  </outline>
</glyph>
<glyph name="n" format="1">
  <advance width="578"/>
  <unicode hex="006E"/>
  <outline>
    <contour>
      <point x="169" y="354"/>
      <point x="157" y="363"/>
      <point x="169" y="352" type="curve"/>
      <point x="188" y="429"/>
      <point x="239" y="516"/>
      <point x="309" y="516" type="curve"/>
      <point x="391" y="516"/>
      <point x="411" y="438"/>
      <point x="411" y="341" type="curve"/>
      <point x="411" y="228"/>
      <point x="411" y="114"/>
      <point x="411" y="0" type="curve"/>
      <point x="435" y="0"/>
      <point x="411" y="0"/>
      <point x="435" y="0" type="curve"/>
      <point x="435" y="115"/>
      <point x="435" y="229"/>
      <point x="435" y="344" type="curve"/>
      <point x="435" y="453"/>
      <point x="410" y="538"/>
      <point x="313" y="538" type="curve"/>
      <point x="229" y="538"/>
      <point x="174" y="452"/>
      <point x="157" y="365" type="curve"/>
    </contour>
    <contour>
      <point x="422" y="0"/>
      <point x="422" y="22"/>
      <point x="422" y="0" type="curve"/>
      <point x="466" y="0"/>
      <point x="510" y="0"/>
      <point x="554" y="0" type="curve"/>
      <point x="554" y="22"/>
      <point x="554" y="0"/>
      <point x="554" y="22" type="curve"/>
      <point x="422" y="22"/>
      <point x="554" y="22"/>
      <point x="422" y="22" type="curve"/>
    </contour>
    <contour>
      <point x="163" y="22"/>
      <point x="163" y="0"/>
      <point x="163" y="22" type="curve"/>
      <point x="31" y="22"/>
      <point x="163" y="22"/>
      <point x="31" y="22" type="curve"/>
      <point x="31" y="0"/>
      <point x="31" y="22"/>
      <point x="31" y="0" type="curve"/>
      <point x="75" y="0"/>
      <point x="119" y="0"/>
      <point x="163" y="0" type="curve"/>
    </contour>
    <contour>
      <point x="163" y="0"/>
      <point x="163" y="22"/>
      <point x="163" y="0" type="curve"/>
      <point x="204" y="0"/>
      <point x="156" y="0"/>
      <point x="281" y="0" type="curve"/>
      <point x="281" y="22"/>
      <point x="281" y="0"/>
      <point x="281" y="22" type="curve"/>
      <point x="156" y="22"/>
      <point x="288" y="22"/>
      <point x="163" y="22" type="curve"/>
    </contour>
    <contour>
      <point x="175" y="0"/>
      <point x="151" y="0"/>
      <point x="175" y="0" type="curve"/>
      <point x="175" y="178"/>
      <point x="175" y="355"/>
      <point x="175" y="533" type="curve"/>
      <point x="151" y="533"/>
      <point x="175" y="533"/>
      <point x="151" y="533" type="curve"/>
      <point x="151" y="355"/>
      <point x="151" y="178"/>
      <point x="151" y="0" type="curve"/>
    </contour>
    <contour>
      <point x="163" y="533"/>
      <point x="163" y="511"/>
      <point x="163" y="533" type="curve"/>
      <point x="119" y="533"/>
      <point x="75" y="533"/>
      <point x="31" y="533" type="curve"/>
      <point x="31" y="511"/>
      <point x="31" y="533"/>
      <point x="31" y="511" type="curve"/>
      <point x="163" y="511"/>
      <point x="31" y="511"/>
      <point x="163" y="511" type="curve"/>
    </contour>
    <contour>
      <point x="422" y="22"/>
      <point x="422" y="0"/>
      <point x="422" y="22" type="curve"/>
      <point x="297" y="22"/>
      <point x="429" y="22"/>
      <point x="304" y="22" type="curve"/>
      <point x="304" y="0"/>
      <point x="304" y="22"/>
      <point x="304" y="0" type="curve"/>
      <point x="346" y="0"/>
      <point x="381" y="0"/>
      <point x="422" y="0" type="curve"/>
    </contour>
  </outline>
</glyph>
<glyph name="s" format="1">
  <advance width="317"/>
  <unicode hex="0073"/>
  <outline>
    <contour>
      <point x="29" y="49"/>
      <point x="41" y="68"/>
      <point x="29" y="49" type="curve"/>
      <point x="71" y="17"/>
      <point x="116" y="-5"/>
      <point x="167" y="-5" type="curve"/>
      <point x="247" y="-5"/>
      <point x="286" y="56"/>
      <point x="286" y="140" type="curve"/>
      <point x="285" y="218"/>
      <point x="237" y="253"/>
      <point x="164" y="287" type="curve"/>
      <point x="106" y="313"/>
      <point x="75" y="350"/>
      <point x="75" y="414" type="curve"/>
      <point x="75" y="471"/>
      <point x="102" y="516"/>
      <point x="155" y="516" type="curve"/>
      <point x="196" y="516"/>
      <point x="227" y="501"/>
      <point x="257" y="473" type="curve"/>
      <point x="261" y="480"/>
      <point x="264" y="485"/>
      <point x="268" y="492" type="curve"/>
      <point x="235" y="522"/>
      <point x="201" y="538"/>
      <point x="156" y="538" type="curve"/>
      <point x="90" y="538"/>
      <point x="53" y="484"/>
      <point x="53" y="414" type="curve"/>
      <point x="53" y="340"/>
      <point x="89" y="297"/>
      <point x="157" y="266" type="curve"/>
      <point x="219" y="237"/>
      <point x="263" y="208"/>
      <point x="262" y="140" type="curve"/>
      <point x="262" y="71"/>
      <point x="230" y="17"/>
      <point x="171" y="17" type="curve"/>
      <point x="122" y="17"/>
      <point x="81" y="38"/>
      <point x="41" y="68" type="curve"/>
    </contour>
    <contour>
      <point x="260" y="492"/>
      <point x="254" y="492"/>
      <point x="246" y="492" type="curve"/>
      <point x="246" y="372"/>
      <point x="246" y="492"/>
      <point x="246" y="372" type="curve"/>
      <point x="268" y="372"/>
      <point x="246" y="372"/>
      <point x="268" y="372" type="curve"/>
      <point x="268" y="492"/>
      <point x="268" y="372"/>
      <point x="268" y="492" type="curve"/>
    </contour>
    <contour>
      <point x="51" y="49"/>
      <point x="29" y="49"/>
      <point x="51" y="49" type="curve"/>
      <point x="51" y="169"/>
      <point x="51" y="49"/>
      <point x="51" y="169" type="curve"/>
      <point x="29" y="169"/>
      <point x="51" y="169"/>
      <point x="29" y="169" type="curve"/>
      <point x="29" y="49"/>
      <point x="29" y="169"/>
      <point x="29" y="49" type="curve"/>
    </contour>
  </outline>
</glyph>
<glyph name="v" format="1">
  <advance width="588"/>
  <unicode hex="0076"/>
  <outline>
    <contour>
      <point x="148" y="533"/>
      <point x="148" y="511"/>
      <point x="148" y="533" type="curve"/>
      <point x="104" y="533"/>
      <point x="60" y="533"/>
      <point x="16" y="533" type="curve"/>
      <point x="16" y="511"/>
      <point x="16" y="533"/>
      <point x="16" y="511" type="curve"/>
      <point x="148" y="511"/>
      <point x="16" y="511"/>
      <point x="148" y="511" type="curve"/>
    </contour>
    <contour>
      <point x="148" y="511"/>
      <point x="148" y="533"/>
      <point x="148" y="511" type="curve"/>
      <point x="281" y="511"/>
      <point x="148" y="511"/>
      <point x="281" y="511" type="curve"/>
      <point x="281" y="533"/>
      <point x="281" y="511"/>
      <point x="281" y="533" type="curve"/>
      <point x="236" y="533"/>
      <point x="192" y="533"/>
      <point x="148" y="533" type="curve"/>
    </contour>
    <contour>
      <point x="435" y="533"/>
      <point x="435" y="511"/>
      <point x="435" y="533" type="curve"/>
      <point x="391" y="533"/>
      <point x="347" y="533"/>
      <point x="303" y="533" type="curve"/>
      <point x="303" y="511"/>
      <point x="303" y="533"/>
      <point x="303" y="511" type="curve"/>
      <point x="435" y="511"/>
      <point x="303" y="511"/>
      <point x="435" y="511" type="curve"/>
    </contour>
    <contour>
      <point x="435" y="511"/>
      <point x="435" y="533"/>
      <point x="435" y="511" type="curve"/>
      <point x="567" y="511"/>
      <point x="435" y="511"/>
      <point x="567" y="511" type="curve"/>
      <point x="567" y="533"/>
      <point x="567" y="511"/>
      <point x="567" y="533" type="curve"/>
      <point x="523" y="533"/>
      <point x="479" y="533"/>
      <point x="435" y="533" type="curve"/>
    </contour>
    <contour>
      <point x="128" y="533"/>
      <point x="155" y="533"/>
      <point x="128" y="533" type="curve"/>
      <point x="177" y="355"/>
      <point x="226" y="178"/>
      <point x="274" y="0" type="curve"/>
      <point x="298" y="0"/>
      <point x="274" y="0"/>
      <point x="298" y="0" type="curve"/>
      <point x="250" y="178"/>
      <point x="202" y="355"/>
      <point x="155" y="533" type="curve"/>
    </contour>
    <contour>
      <point x="429" y="533"/>
      <point x="455" y="533"/>
      <point x="429" y="533" type="curve"/>
      <point x="429" y="533"/>
      <point x="277" y="0"/>
      <point x="277" y="0" type="curve"/>
      <point x="302" y="0"/>
      <point x="277" y="0"/>
      <point x="302" y="0" type="curve"/>
      <point x="353" y="178"/>
      <point x="404" y="355"/>
      <point x="455" y="533" type="curve"/>
    </contour>
  </outline>
</glyph>
<glyph name="w" format="1">
  <advance width="833"/>
  <unicode hex="0077"/>
  <outline>
    <contour>
      <point x="668" y="511"/>
      <point x="668" y="533"/>
      <point x="668" y="511" type="curve"/>
      <point x="800" y="511"/>
      <point x="668" y="511"/>
      <point x="800" y="511" type="curve"/>
      <point x="800" y="533"/>
      <point x="800" y="511"/>
      <point x="800" y="533" type="curve"/>
      <point x="756" y="533"/>
      <point x="712" y="533"/>
      <point x="668" y="533" type="curve"/>
    </contour>
    <contour>
      <point x="668" y="533"/>
      <point x="668" y="511"/>
      <point x="668" y="533" type="curve"/>
      <point x="624" y="533"/>
      <point x="600" y="533"/>
      <point x="556" y="533" type="curve"/>
      <point x="556" y="511"/>
      <point x="556" y="533"/>
      <point x="556" y="511" type="curve"/>
      <point x="688" y="511"/>
      <point x="536" y="511"/>
      <point x="668" y="511" type="curve"/>
    </contour>
    <contour>
      <point x="154" y="533"/>
      <point x="154" y="511"/>
      <point x="154" y="533" type="curve"/>
      <point x="110" y="533"/>
      <point x="66" y="533"/>
      <point x="22" y="533" type="curve"/>
      <point x="22" y="511"/>
      <point x="22" y="533"/>
      <point x="22" y="511" type="curve"/>
      <point x="154" y="511"/>
      <point x="22" y="511"/>
      <point x="154" y="511" type="curve"/>
    </contour>
    <contour>
      <point x="154" y="511"/>
      <point x="154" y="533"/>
      <point x="154" y="511" type="curve"/>
      <point x="286" y="511"/>
      <point x="144" y="511"/>
      <point x="276" y="511" type="curve"/>
      <point x="276" y="533"/>
      <point x="276" y="511"/>
      <point x="276" y="533" type="curve"/>
      <point x="232" y="533"/>
      <point x="198" y="533"/>
      <point x="154" y="533" type="curve"/>
    </contour>
    <contour>
      <point x="284" y="0"/>
      <point x="261" y="0"/>
      <point x="284" y="0" type="curve"/>
      <point x="332" y="178"/>
      <point x="379" y="355"/>
      <point x="427" y="533" type="curve"/>
      <point x="400" y="533"/>
      <point x="427" y="533"/>
      <point x="400" y="533" type="curve"/>
      <point x="354" y="355"/>
      <point x="307" y="178"/>
      <point x="261" y="0" type="curve"/>
    </contour>
    <contour>
      <point x="664" y="533"/>
      <point x="691" y="533"/>
      <point x="664" y="533" type="curve"/>
      <point x="621" y="355"/>
      <point x="577" y="178"/>
      <point x="534" y="0" type="curve"/>
      <point x="557" y="0"/>
      <point x="534" y="0"/>
      <point x="557" y="0" type="curve"/>
      <point x="602" y="178"/>
      <point x="646" y="355"/>
      <point x="691" y="533" type="curve"/>
    </contour>
    <contour>
      <point x="405" y="533"/>
      <point x="430" y="533"/>
      <point x="405" y="533" type="curve"/>
      <point x="448" y="355"/>
      <point x="490" y="178"/>
      <point x="533" y="0" type="curve"/>
      <point x="556" y="0"/>
      <point x="533" y="0"/>
      <point x="556" y="0" type="curve"/>
      <point x="514" y="178"/>
      <point x="472" y="355"/>
      <point x="430" y="533" type="curve"/>
    </contour>
    <contour>
      <point x="132" y="533"/>
      <point x="158" y="533"/>
      <point x="132" y="533" type="curve"/>
      <point x="175" y="355"/>
      <point x="218" y="178"/>
      <point x="260" y="0" type="curve"/>
      <point x="283" y="0"/>
      <point x="260" y="0"/>
      <point x="283" y="0" type="curve"/>
      <point x="241" y="178"/>
      <point x="200" y="355"/>
      <point x="158" y="533" type="curve"/>
    </contour>
  </outline>
</glyph>
<glyph name="z" format="1">
  <advance width="437"/>
  <unicode hex="007A"/>
  <outline>
    <contour>
      <point x="76" y="511"/>
      <point x="76" y="533"/>
      <point x="76" y="511" type="curve"/>
      <point x="164" y="511"/>
      <point x="245.000882" y="511.44"/>
      <point x="333.2" y="511.44" type="curve"/>
      <point x="330.923970354" y="513.504662183"/>
      <point x="328.676029646" y="515.60021501"/>
      <point x="326.4" y="517.664877193" type="curve"/>
      <point x="324.408203168" y="519.056040138"/>
      <point x="323.891796832" y="521.825796119"/>
      <point x="321.9" y="523.216959064" type="curve"/>
      <point x="319.418314297" y="519.405178394"/>
      <point x="316.281685703" y="516.062190028"/>
      <point x="313.8" y="512.250409357" type="curve"/>
      <point x="229.599509174" y="348.894502751"/>
      <point x="313.8" y="512.250409357"/>
      <point x="62.4" y="21.56" type="curve"/>
      <point x="62.4" y="9.78304093567"/>
      <point x="62.4" y="21.56"/>
      <point x="62.4" y="9.78304093567" type="curve"/>
      <point x="62.4" y="0"/>
      <point x="62.4" y="9.78304093567"/>
      <point x="62.4" y="0" type="curve"/>
      <point x="69.3" y="0"/>
      <point x="62.4" y="0"/>
      <point x="69.3" y="0" type="curve"/>
      <point x="367.5" y="0"/>
      <point x="266" y="0"/>
      <point x="366" y="0" type="curve"/>
      <point x="366" y="22"/>
      <point x="366" y="0"/>
      <point x="366" y="22" type="curve"/>
      <point x="266" y="22"/>
      <point x="168.699006" y="21.56"/>
      <point x="69.3" y="21.56" type="curve"/>
      <point x="71.3069171886" y="19.6805208938"/>
      <point x="73.6930828114" y="18.2520814453"/>
      <point x="75.7" y="16.3726023392" type="curve"/>
      <point x="78.0316743692" y="14.6717011013"/>
      <point x="78.7683256308" y="11.4839421736"/>
      <point x="81.1" y="9.78304093567" type="curve"/>
      <point x="83.5816857031" y="13.5948216065"/>
      <point x="86.7183142969" y="16.9378099725"/>
      <point x="89.2" y="20.7495906433" type="curve"/>
      <point x="173.692374364" y="184.143182418"/>
      <point x="89.2" y="20.7495906433"/>
      <point x="341.7" y="511.44" type="curve"/>
      <point x="341.7" y="523.216959064"/>
      <point x="341.7" y="511.44"/>
      <point x="341.7" y="523.216959064" type="curve"/>
      <point x="341.7" y="533"/>
      <point x="341.7" y="523.216959064"/>
      <point x="341.7" y="533" type="curve"/>
      <point x="333.2" y="533"/>
      <point x="341.7" y="533"/>
      <point x="333.2" y="533" type="curve"/>
      <point x="245.000882" y="533"/>
      <point x="164" y="533"/>
      <point x="76" y="533" type="curve"/>
    </contour>
    <contour>
      <point x="76" y="522"/>
      <point x="97" y="522"/>
      <point x="76" y="522" type="curve"/>
      <point x="76" y="402"/>
      <point x="76" y="522"/>
      <point x="76" y="402" type="curve"/>
      <point x="97" y="402"/>
      <point x="76" y="402"/>
      <point x="97" y="402" type="curve"/>
      <point x="97" y="522"/>
      <point x="97" y="402"/>
      <point x="97" y="522" type="curve"/>
    </contour>
    <contour>
      <point x="366" y="11"/>
      <point x="344" y="11"/>
      <point x="366" y="11" type="curve"/>
      <point x="366" y="131"/>
      <point x="366" y="11"/>
      <point x="366" y="131" type="curve"/>
      <point x="344" y="131"/>
      <point x="366" y="131"/>
      <point x="344" y="131" type="curve"/>
      <point x="344" y="11"/>
      <point x="344" y="131"/>
      <point x="344" y="11" type="curve"/>
    </contour>
  </outline>
</glyph>
<glyph name="dvAA" format="1">
  <advance width="845"/>
  <unicode hex="0906"/>
  <outline>
    <contour>
      <point x="717" y="0"/>
      <point x="717" y="22"/>
      <point x="717" y="0" type="curve"/>
      <point x="756" y="0"/>
      <point x="795" y="0"/>
      <point x="835" y="0" type="curve"/>
      <point x="835" y="22"/>
      <point x="835" y="0"/>
      <point x="835" y="22" type="curve"/>
      <point x="717" y="22"/>
      <point x="835" y="22"/>
      <point x="717" y="22" type="curve"/>
    </contour>
    <contour>
      <point x="717" y="22"/>
      <point x="717" y="0"/>
      <point x="717" y="22" type="curve"/>
      <point x="592" y="22"/>
      <point x="717" y="22"/>
      <point x="592" y="22" type="curve"/>
      <point x="592" y="0"/>
      <point x="592" y="22"/>
      <point x="592" y="0" type="curve"/>
      <point x="633" y="0"/>
      <point x="675" y="0"/>
      <point x="717" y="0" type="curve"/>
    </contour>
    <contour>
      <point x="708" y="698"/>
      <point x="708" y="722"/>
      <point x="708" y="698" type="curve"/>
      <point x="759.71641791" y="698.0"/>
      <point x="810.28358209" y="698.0"/>
      <point x="862" y="698" type="curve"/>
      <point x="862" y="722"/>
      <point x="862" y="698"/>
      <point x="862" y="722" type="curve"/>
      <point x="810.28358209" y="722.0"/>
      <point x="759.71641791" y="722.0"/>
      <point x="708" y="722" type="curve"/>
    </contour>
    <contour>
      <point x="728" y="0"/>
      <point x="704" y="0"/>
      <point x="728" y="0" type="curve"/>
      <point x="728" y="241"/>
      <point x="728" y="481"/>
      <point x="728" y="722" type="curve"/>
      <point x="704" y="722"/>
      <point x="728" y="722"/>
      <point x="704" y="722" type="curve"/>
      <point x="704" y="481"/>
      <point x="704" y="241"/>
      <point x="704" y="0" type="curve"/>
    </contour>
    <contour>
      <point x="448" y="698"/>
      <point x="448" y="722"/>
      <point x="448" y="698" type="curve"/>
      <point x="543" y="698"/>
      <point x="637" y="698"/>
      <point x="732" y="698" type="curve"/>
      <point x="732" y="722"/>
      <point x="732" y="698"/>
      <point x="732" y="722" type="curve"/>
      <point x="637" y="722"/>
      <point x="543" y="722"/>
      <point x="448" y="722" type="curve"/>
    </contour>
    <contour>
      <point x="457" y="0"/>
      <point x="457" y="22"/>
      <point x="457" y="0" type="curve"/>
      <point x="496" y="0"/>
      <point x="535" y="0"/>
      <point x="575" y="0" type="curve"/>
      <point x="575" y="22"/>
      <point x="575" y="0"/>
      <point x="575" y="22" type="curve"/>
      <point x="457" y="22"/>
      <point x="575" y="22"/>
      <point x="457" y="22" type="curve"/>
    </contour>
    <contour>
      <point x="457" y="22"/>
      <point x="457" y="0"/>
      <point x="457" y="22" type="curve"/>
      <point x="332" y="22"/>
      <point x="457" y="22"/>
      <point x="332" y="22" type="curve"/>
      <point x="332" y="0"/>
      <point x="332" y="22"/>
      <point x="332" y="0" type="curve"/>
      <point x="373" y="0"/>
      <point x="415" y="0"/>
      <point x="457" y="0" type="curve"/>
    </contour>
    <contour>
      <point x="468" y="0"/>
      <point x="444" y="0"/>
      <point x="468" y="0" type="curve"/>
      <point x="468" y="241"/>
      <point x="468" y="481"/>
      <point x="468" y="722" type="curve"/>
      <point x="444" y="722"/>
      <point x="468" y="722"/>
      <point x="444" y="722" type="curve"/>
      <point x="444" y="481"/>
      <point x="444" y="241"/>
      <point x="444" y="0" type="curve"/>
    </contour>
    <contour>
      <point x="44" y="122"/>
      <point x="22" y="122"/>
      <point x="44" y="122" type="curve"/>
      <point x="44" y="242"/>
      <point x="44" y="122"/>
      <point x="44" y="242" type="curve"/>
      <point x="22" y="242"/>
      <point x="44" y="242"/>
      <point x="22" y="242" type="curve"/>
      <point x="22" y="122"/>
      <point x="22" y="242"/>
      <point x="22" y="122" type="curve"/>
    </contour>
    <contour>
      <point x="22" y="122"/>
      <point x="39" y="136"/>
      <point x="22" y="122" type="curve"/>
      <point x="52" y="71"/>
      <point x="100" y="32"/>
      <point x="158" y="32" type="curve"/>
      <point x="262" y="26"/>
      <point x="320" y="105"/>
      <point x="318" y="216" type="curve"/>
      <point x="317" y="329"/>
      <point x="236" y="394"/>
      <point x="120" y="394" type="curve"/>
      <point x="120" y="376"/>
      <point x="120" y="394"/>
      <point x="120" y="376" type="curve"/>
      <point x="224" y="376"/>
      <point x="293" y="316"/>
      <point x="294" y="214" type="curve"/>
      <point x="295" y="119"/>
      <point x="249" y="49"/>
      <point x="160" y="53" type="curve"/>
      <point x="107" y="53"/>
      <point x="67" y="90"/>
      <point x="39" y="136" type="curve"/>
    </contour>
    <contour>
      <point x="450" y="421"/>
      <point x="458" y="403"/>
      <point x="450" y="421" type="curve"/>
      <point x="360" y="359"/>
      <point x="274" y="366"/>
      <point x="167" y="391" type="curve"/>
      <point x="162" y="378"/>
      <point x="167" y="391"/>
      <point x="162" y="378" type="curve"/>
      <point x="257" y="343"/>
      <point x="358" y="332"/>
      <point x="458" y="403" type="curve"/>
    </contour>
    <contour>
      <point x="57" y="641"/>
      <point x="43" y="659"/>
      <point x="57" y="641" type="curve"/>
      <point x="88" y="678"/>
      <point x="117" y="705"/>
      <point x="166" y="705" type="curve"/>
      <point x="242" y="705"/>
      <point x="273" y="636"/>
      <point x="272" y="550" type="curve"/>
      <point x="272" y="458"/>
      <point x="213" y="399"/>
      <point x="120" y="399" type="curve"/>
      <point x="120" y="379"/>
      <point x="120" y="399"/>
      <point x="120" y="379" type="curve"/>
      <point x="228" y="379"/>
      <point x="297" y="446"/>
      <point x="297" y="553" type="curve"/>
      <point x="296" y="651"/>
      <point x="258" y="727"/>
      <point x="169" y="727" type="curve"/>
      <point x="114" y="727"/>
      <point x="78" y="701"/>
      <point x="43" y="659" type="curve"/>
    </contour>
  </outline>
</glyph>
<glyph name="dvU" format="1">
  <advance width="371"/>
  <unicode hex="0909"/>
  <outline>
    <contour>
      <point x="31.3" y="101.056333333"/>
      <point x="47.8" y="115.070333333"/>
      <point x="31.3" y="101.056333333" type="curve"/>
      <point x="61.5670366026" y="51.3830618963"/>
      <point x="103.862769179" y="9.97777777778"/>
      <point x="166.9" y="9.97777777778" type="curve"/>
      <point x="266.946293231" y="4.39801810587"/>
      <point x="327.1" y="84.336455574"/>
      <point x="327.1" y="188.424555556" type="curve"/>
      <point x="327.1" y="305.989270707"/>
      <point x="245.189038491" y="384.630777778"/>
      <point x="128.8" y="384.630777778" type="curve"/>
      <point x="128.8" y="366.304777778"/>
      <point x="128.8" y="384.630777778"/>
      <point x="128.8" y="366.304777778" type="curve"/>
      <point x="232.596280303" y="366.304777778"/>
      <point x="302.9" y="288.672624482"/>
      <point x="302.9" y="187.346555556" type="curve"/>
      <point x="302.9" y="101.865335602"/>
      <point x="254.119758659" y="27.1339504443"/>
      <point x="169.1" y="31.5377777778" type="curve"/>
      <point x="112.568919619" y="31.5377777778"/>
      <point x="77.3676281615" y="71.315791534"/>
      <point x="47.8" y="115.070333333" type="curve"/>
    </contour>
    <contour>
      <point x="174.3" y="700.520222222"/>
      <point x="174.3" y="719.924222222"/>
      <point x="174.3" y="700.520222222" type="curve"/>
      <point x="254.574766139" y="700.520222222"/>
      <point x="288.2" y="624.935008711"/>
      <point x="288.2" y="534.533111111" type="curve"/>
      <point x="288.2" y="451.254884685"/>
      <point x="220.418434918" y="388.662"/>
      <point x="128.8" y="388.662" type="curve"/>
      <point x="128.8" y="369.258"/>
      <point x="128.8" y="388.662"/>
      <point x="128.8" y="369.258" type="curve"/>
      <point x="234.58402277" y="369.258"/>
      <point x="312.4" y="433.417581677"/>
      <point x="312.4" y="536.689111111" type="curve"/>
      <point x="312.4" y="637.449526441"/>
      <point x="266.734654475" y="719.924222222"/>
      <point x="174.3" y="719.924222222" type="curve"/>
    </contour>
    <contour>
      <point x="375.9" y="722"/>
      <point x="375.9" y="700.44"/>
      <point x="375.9" y="722" type="curve"/>
      <point x="247.334619" y="722"/>
      <point x="118.765381" y="722"/>
      <point x="-9.8" y="722" type="curve"/>
      <point x="-9.8" y="700.44"/>
      <point x="-9.8" y="722"/>
      <point x="-9.8" y="700.44" type="curve"/>
      <point x="118.765381" y="700.44"/>
      <point x="247.334619" y="700.44"/>
      <point x="375.9" y="700.44" type="curve"/>
    </contour>
  </outline>
</glyph>
<glyph name="dvvL" format="1">
  <advance width="545"/>
  <unicode hex="090C"/>
  <outline>
    <contour>
      <point x="274.2" y="274.353777778"/>
      <point x="252.2" y="270.041777778"/>
      <point x="274.2" y="274.353777778" type="curve"/>
      <point x="257.341495644" y="389.950842609"/>
      <point x="260.094332494" y="496.893333333"/>
      <point x="361.3" y="496.893333333" type="curve"/>
      <point x="432.869467076" y="496.893333333"/>
      <point x="470.2" y="435.03564618"/>
      <point x="470.2" y="357.966555556" type="curve"/>
      <point x="470.2" y="293.394467506"/>
      <point x="442.971219467" y="247.333879691"/>
      <point x="407.1" y="193.057444444" type="curve"/>
      <point x="365.541896755" y="129.680530818"/>
      <point x="320.651193386" y="81.8017723373"/>
      <point x="319.9" y="5.751" type="curve"/>
      <point x="319.9" y="-60.2073633399"/>
      <point x="351.651238992" y="-111.791222222"/>
      <point x="411.9" y="-111.791222222" type="curve"/>
      <point x="449.843686153" y="-111.791222222"/>
      <point x="474.804838391" y="-92.9843860704"/>
      <point x="500.6" y="-64.7352222222" type="curve"/>
      <point x="488.5" y="-46.4092222222"/>
      <point x="500.6" y="-64.7352222222"/>
      <point x="488.5" y="-46.4092222222" type="curve"/>
      <point x="466.172127735" y="-69.1849840079"/>
      <point x="446.590133611" y="-89.1532222222"/>
      <point x="414.1" y="-89.1532222222" type="curve"/>
      <point x="365.869870557" y="-89.1532222222"/>
      <point x="343" y="-46.1914536609"/>
      <point x="343" y="6.829" type="curve"/>
      <point x="342.878964449" y="70.9720829837"/>
      <point x="383.140875179" y="117.673800763"/>
      <point x="420.3" y="174.731444444" type="curve"/>
      <point x="461.17414371" y="236.15600143"/>
      <point x="494.4" y="286.658036989"/>
      <point x="494.4" y="359.044555556" type="curve"/>
      <point x="494.4" y="448.612878501"/>
      <point x="448.260146502" y="518.453333333"/>
      <point x="364.6" y="518.453333333" type="curve"/>
      <point x="248.769697273" y="518.453333333"/>
      <point x="232.953343282" y="400.100204247"/>
      <point x="252.2" y="270.041777778" type="curve"/>
    </contour>
    <contour>
      <point x="553" y="722"/>
      <point x="553" y="700.44"/>
      <point x="553" y="722" type="curve"/>
      <point x="365.635207" y="722"/>
      <point x="178.264793" y="722"/>
      <point x="-9.1" y="722" type="curve"/>
      <point x="-9.1" y="700.44"/>
      <point x="-9.1" y="722"/>
      <point x="-9.1" y="700.44" type="curve"/>
      <point x="178.264793" y="700.44"/>
      <point x="365.635207" y="700.44"/>
      <point x="553" y="700.44" type="curve"/>
    </contour>
    <contour>
      <point x="351.9" y="710.222222222"/>
      <point x="376.1" y="710.222222222"/>
      <point x="351.9" y="710.222222222" type="curve"/>
      <point x="351.9" y="643.039190356"/>
      <point x="351.9" y="575.854142978"/>
      <point x="351.9" y="508.671111111" type="curve"/>
      <point x="376.1" y="508.671111111"/>
      <point x="351.9" y="508.671111111"/>
      <point x="376.1" y="508.671111111" type="curve"/>
      <point x="376.1" y="575.854142978"/>
      <point x="376.1" y="643.039190356"/>
      <point x="376.1" y="710.222222222" type="curve"/>
    </contour>
    <contour>
      <point x="152.7" y="74.3218888889"/>
      <point x="140.6" y="55.9958888889"/>
      <point x="152.7" y="74.3218888889" type="curve"/>
      <point x="78.9016811763" y="139.85260705"/>
      <point x="52.0" y="217.21231013"/>
      <point x="52" y="316.140111111" type="curve"/>
      <point x="52.0" y="411.51786752"/>
      <point x="66.8742241859" y="498.888888889"/>
      <point x="148.7" y="498.888888889" type="curve"/>
      <point x="202.913166473" y="498.888888889"/>
      <point x="237.798926178" y="467.05290671"/>
      <point x="267.5" y="421.222666667" type="curve"/>
      <point x="278.5" y="438.470666667"/>
      <point x="267.5" y="421.222666667"/>
      <point x="278.5" y="438.470666667" type="curve"/>
      <point x="247.069238194" y="487.787614763"/>
      <point x="208.566540949" y="520.448888889"/>
      <point x="150.9" y="520.448888889" type="curve"/>
      <point x="55.4997109195" y="520.448888889"/>
      <point x="27.8" y="424.326202821"/>
      <point x="27.8" y="315.062111111" type="curve"/>
      <point x="27.8" y="208.82140989"/>
      <point x="60.2640609496" y="125.922840096"/>
      <point x="140.6" y="55.9958888889" type="curve"/>
    </contour>
  </outline>
</glyph>
<glyph name="dvOcandra" format="1">
  <advance width="812"/>
  <unicode hex="0911"/>
  <outline>
    <contour>
      <point x="478" y="0"/>
      <point x="478" y="22"/>
      <point x="478" y="0" type="curve"/>
      <point x="515" y="0"/>
      <point x="478" y="0"/>
      <point x="589" y="0" type="curve"/>
      <point x="589" y="22"/>
      <point x="589" y="0"/>
      <point x="589" y="22" type="curve"/>
      <point x="478" y="22"/>
      <point x="589" y="22"/>
      <point x="478" y="22" type="curve"/>
    </contour>
    <contour>
      <point x="478" y="22"/>
      <point x="478" y="0"/>
      <point x="478" y="22" type="curve"/>
      <point x="360" y="22"/>
      <point x="478" y="22"/>
      <point x="360" y="22" type="curve"/>
      <point x="360" y="0"/>
      <point x="360" y="22"/>
      <point x="360" y="0" type="curve"/>
      <point x="399" y="0"/>
      <point x="438" y="0"/>
      <point x="478" y="0" type="curve"/>
    </contour>
    <contour>
      <point x="43" y="122"/>
      <point x="60" y="136"/>
      <point x="43" y="122" type="curve"/>
      <point x="73" y="71"/>
      <point x="121" y="32"/>
      <point x="179" y="32" type="curve"/>
      <point x="282" y="26"/>
      <point x="341" y="104"/>
      <point x="339" y="215" type="curve"/>
      <point x="338" y="328"/>
      <point x="258" y="394"/>
      <point x="141" y="394" type="curve"/>
      <point x="141" y="376"/>
      <point x="141" y="394"/>
      <point x="141" y="376" type="curve"/>
      <point x="245" y="376"/>
      <point x="314" y="316"/>
      <point x="315" y="214" type="curve"/>
      <point x="316" y="119"/>
      <point x="270" y="49"/>
      <point x="181" y="53" type="curve"/>
      <point x="128" y="53"/>
      <point x="88" y="90"/>
      <point x="60" y="136" type="curve"/>
    </contour>
    <contour>
      <point x="827" y="722"/>
      <point x="827" y="700"/>
      <point x="827" y="722" type="curve"/>
      <point x="728" y="722"/>
      <point x="568" y="722"/>
      <point x="469" y="722" type="curve"/>
      <point x="469" y="700"/>
      <point x="469" y="722"/>
      <point x="469" y="700" type="curve"/>
      <point x="568" y="700"/>
      <point x="728" y="700"/>
      <point x="827" y="700" type="curve"/>
    </contour>
    <contour>
      <point x="669" y="22"/>
      <point x="669" y="0"/>
      <point x="669" y="22" type="curve"/>
      <point x="551" y="22"/>
      <point x="669" y="22"/>
      <point x="551" y="22" type="curve"/>
      <point x="551" y="0"/>
      <point x="551" y="22"/>
      <point x="551" y="0" type="curve"/>
      <point x="590" y="0"/>
      <point x="629" y="0"/>
      <point x="669" y="0" type="curve"/>
    </contour>
    <contour>
      <point x="78" y="641"/>
      <point x="64" y="659"/>
      <point x="78" y="641" type="curve"/>
      <point x="111" y="675"/>
      <point x="139" y="700"/>
      <point x="187" y="700" type="curve"/>
      <point x="262" y="700"/>
      <point x="294" y="634"/>
      <point x="293" y="550" type="curve"/>
      <point x="293" y="458"/>
      <point x="234" y="399"/>
      <point x="141" y="399" type="curve"/>
      <point x="141" y="379"/>
      <point x="141" y="399"/>
      <point x="141" y="379" type="curve"/>
      <point x="249" y="379"/>
      <point x="318" y="446"/>
      <point x="318" y="553" type="curve"/>
      <point x="317" y="649"/>
      <point x="277" y="722"/>
      <point x="190" y="722" type="curve"/>
      <point x="135" y="722"/>
      <point x="101" y="698"/>
      <point x="64" y="659" type="curve"/>
    </contour>
    <contour>
      <point x="64" y="122"/>
      <point x="43" y="122"/>
      <point x="64" y="122" type="curve"/>
      <point x="64" y="242"/>
      <point x="64" y="122"/>
      <point x="64" y="242" type="curve"/>
      <point x="43" y="242"/>
      <point x="64" y="242"/>
      <point x="43" y="242" type="curve"/>
      <point x="43" y="122"/>
      <point x="43" y="242"/>
      <point x="43" y="122" type="curve"/>
    </contour>
    <contour>
      <point x="669" y="0"/>
      <point x="669" y="22"/>
      <point x="669" y="0" type="curve"/>
      <point x="710" y="0"/>
      <point x="752" y="0"/>
      <point x="794" y="0" type="curve"/>
      <point x="794" y="22"/>
      <point x="794" y="0"/>
      <point x="794" y="22" type="curve"/>
      <point x="669" y="22"/>
      <point x="794" y="22"/>
      <point x="669" y="22" type="curve"/>
    </contour>
    <contour>
      <point x="465" y="722"/>
      <point x="489" y="722"/>
      <point x="465" y="722" type="curve"/>
      <point x="465" y="481"/>
      <point x="465" y="241"/>
      <point x="465" y="0" type="curve"/>
      <point x="489" y="0"/>
      <point x="465" y="0"/>
      <point x="489" y="0" type="curve"/>
      <point x="489" y="241"/>
      <point x="489" y="481"/>
      <point x="489" y="722" type="curve"/>
    </contour>
    <contour>
      <point x="471" y="420"/>
      <point x="479" y="404"/>
      <point x="471" y="420" type="curve"/>
      <point x="381" y="359"/>
      <point x="295" y="366"/>
      <point x="188" y="391" type="curve"/>
      <point x="183" y="378"/>
      <point x="188" y="391"/>
      <point x="183" y="378" type="curve"/>
      <point x="296" y="349"/>
      <point x="389" y="334"/>
      <point x="479" y="404" type="curve"/>
    </contour>
    <contour>
      <point x="655" y="722"/>
      <point x="680" y="722"/>
      <point x="655" y="722" type="curve"/>
      <point x="655" y="481"/>
      <point x="655" y="241"/>
      <point x="655" y="0" type="curve"/>
      <point x="680" y="0"/>
      <point x="655" y="0"/>
      <point x="680" y="0" type="curve"/>
      <point x="680" y="241"/>
      <point x="680" y="481"/>
      <point x="680" y="722" type="curve"/>
    </contour>
    <contour>
      <point x="681" y="1029"/>
      <point x="704" y="1029"/>
      <point x="681" y="1029" type="curve"/>
      <point x="681" y="944"/>
      <point x="652" y="880"/>
      <point x="577" y="880" type="curve"/>
      <point x="502" y="880"/>
      <point x="474" y="945"/>
      <point x="474" y="1029" type="curve"/>
      <point x="450" y="1029"/>
      <point x="474" y="1029"/>
      <point x="450" y="1029" type="curve"/>
      <point x="450" y="931"/>
      <point x="486" y="855"/>
      <point x="575" y="855" type="curve"/>
      <point x="665" y="855"/>
      <point x="704" y="929"/>
      <point x="704" y="1029" type="curve"/>
    </contour>
  </outline>
</glyph>
<glyph name="dvO" format="1">
  <advance width="782"/>
  <unicode hex="0913"/>
  <outline>
    <contour>
      <point x="450" y="420"/>
      <point x="458" y="404"/>
      <point x="450" y="420" type="curve"/>
      <point x="360" y="359"/>
      <point x="274" y="366"/>
      <point x="167" y="391" type="curve"/>
      <point x="162" y="378"/>
      <point x="167" y="391"/>
      <point x="162" y="378" type="curve"/>
      <point x="275" y="349"/>
      <point x="368" y="334"/>
      <point x="458" y="404" type="curve"/>
    </contour>
    <contour>
      <point x="22" y="122"/>
      <point x="39" y="136"/>
      <point x="22" y="122" type="curve"/>
      <point x="52" y="71"/>
      <point x="100" y="32"/>
      <point x="158" y="32" type="curve"/>
      <point x="261" y="26"/>
      <point x="320" y="104"/>
      <point x="318" y="215" type="curve"/>
      <point x="317" y="328"/>
      <point x="237" y="394"/>
      <point x="120" y="394" type="curve"/>
      <point x="120" y="376"/>
      <point x="120" y="394"/>
      <point x="120" y="376" type="curve"/>
      <point x="224" y="376"/>
      <point x="293" y="316"/>
      <point x="294" y="214" type="curve"/>
      <point x="295" y="119"/>
      <point x="249" y="49"/>
      <point x="160" y="53" type="curve"/>
      <point x="107" y="53"/>
      <point x="67" y="90"/>
      <point x="39" y="136" type="curve"/>
    </contour>
    <contour>
      <point x="43" y="122"/>
      <point x="22" y="122"/>
      <point x="43" y="122" type="curve"/>
      <point x="43" y="242"/>
      <point x="43" y="122"/>
      <point x="43" y="242" type="curve"/>
      <point x="22" y="242"/>
      <point x="43" y="242"/>
      <point x="22" y="242" type="curve"/>
      <point x="22" y="122"/>
      <point x="22" y="242"/>
      <point x="22" y="122" type="curve"/>
    </contour>
    <contour>
      <point x="796" y="722"/>
      <point x="796" y="700"/>
      <point x="796" y="722" type="curve"/>
      <point x="680.686390533" y="722.0"/>
      <point x="564.343195266" y="722.0"/>
      <point x="448" y="722" type="curve"/>
      <point x="448" y="700"/>
      <point x="448" y="722"/>
      <point x="448" y="700" type="curve"/>
      <point x="564.343195266" y="700.0"/>
      <point x="680.686390533" y="700.0"/>
      <point x="796" y="700" type="curve"/>
    </contour>
    <contour>
      <point x="457" y="22"/>
      <point x="457" y="0"/>
      <point x="457" y="22" type="curve"/>
      <point x="339" y="22"/>
      <point x="457" y="22"/>
      <point x="339" y="22" type="curve"/>
      <point x="339" y="0"/>
      <point x="339" y="22"/>
      <point x="339" y="0" type="curve"/>
      <point x="378" y="0"/>
      <point x="417" y="0"/>
      <point x="457" y="0" type="curve"/>
    </contour>
    <contour>
      <point x="57" y="641"/>
      <point x="43" y="659"/>
      <point x="57" y="641" type="curve"/>
      <point x="90" y="675"/>
      <point x="118" y="700"/>
      <point x="166" y="700" type="curve"/>
      <point x="241" y="700"/>
      <point x="273" y="634"/>
      <point x="272" y="550" type="curve"/>
      <point x="272" y="458"/>
      <point x="213" y="399"/>
      <point x="120" y="399" type="curve"/>
      <point x="120" y="379"/>
      <point x="120" y="399"/>
      <point x="120" y="379" type="curve"/>
      <point x="228" y="379"/>
      <point x="297" y="446"/>
      <point x="297" y="553" type="curve"/>
      <point x="296" y="649"/>
      <point x="256" y="722"/>
      <point x="169" y="722" type="curve"/>
      <point x="114" y="722"/>
      <point x="80" y="698"/>
      <point x="43" y="659" type="curve"/>
    </contour>
    <contour>
      <point x="457" y="0"/>
      <point x="457" y="22"/>
      <point x="457" y="0" type="curve"/>
      <point x="494" y="0"/>
      <point x="457" y="0"/>
      <point x="568" y="0" type="curve"/>
      <point x="568" y="22"/>
      <point x="568" y="0"/>
      <point x="568" y="22" type="curve"/>
      <point x="457" y="22"/>
      <point x="568" y="22"/>
      <point x="457" y="22" type="curve"/>
    </contour>
    <contour>
      <point x="634" y="722"/>
      <point x="659" y="722"/>
      <point x="634" y="722" type="curve"/>
      <point x="634" y="481"/>
      <point x="634" y="241"/>
      <point x="634" y="0" type="curve"/>
      <point x="659" y="0"/>
      <point x="634" y="0"/>
      <point x="659" y="0" type="curve"/>
      <point x="659" y="241"/>
      <point x="659" y="481"/>
      <point x="659" y="722" type="curve"/>
    </contour>
    <contour>
      <point x="444" y="722"/>
      <point x="468" y="722"/>
      <point x="444" y="722" type="curve"/>
      <point x="444" y="481"/>
      <point x="444" y="241"/>
      <point x="444" y="0" type="curve"/>
      <point x="468" y="0"/>
      <point x="444" y="0"/>
      <point x="468" y="0" type="curve"/>
      <point x="468" y="241"/>
      <point x="468" y="481"/>
      <point x="468" y="722" type="curve"/>
    </contour>
    <contour>
      <point x="648" y="22"/>
      <point x="648" y="0"/>
      <point x="648" y="22" type="curve"/>
      <point x="530" y="22"/>
      <point x="648" y="22"/>
      <point x="530" y="22" type="curve"/>
      <point x="530" y="0"/>
      <point x="530" y="22"/>
      <point x="530" y="0" type="curve"/>
      <point x="569" y="0"/>
      <point x="608" y="0"/>
      <point x="648" y="0" type="curve"/>
    </contour>
    <contour>
      <point x="648" y="0"/>
      <point x="648" y="22"/>
      <point x="648" y="0" type="curve"/>
      <point x="689" y="0"/>
      <point x="731" y="0"/>
      <point x="773" y="0" type="curve"/>
      <point x="773" y="22"/>
      <point x="773" y="0"/>
      <point x="773" y="22" type="curve"/>
      <point x="648" y="22"/>
      <point x="773" y="22"/>
      <point x="648" y="22" type="curve"/>
    </contour>
    <contour>
      <point x="357" y="992"/>
      <point x="346" y="1015"/>
      <point x="357" y="992" type="curve"/>
      <point x="385" y="1009"/>
      <point x="407" y="1026"/>
      <point x="441" y="1026" type="curve"/>
      <point x="593" y="1026"/>
      <point x="589" y="855"/>
      <point x="638" y="704" type="curve"/>
      <point x="660" y="709"/>
      <point x="638" y="704"/>
      <point x="660" y="709" type="curve"/>
      <point x="610" y="872"/>
      <point x="606" y="1050"/>
      <point x="444" y="1050" type="curve"/>
      <point x="406" y="1050"/>
      <point x="378" y="1035"/>
      <point x="346" y="1015" type="curve"/>
    </contour>
  </outline>
</glyph>
<glyph name="dvNGA" format="1">
  <advance width="515"/>
  <unicode hex="0919"/>
  <outline>
    <contour>
      <point x="420.735" y="405.9"/>
      <point x="389.165" y="405.9"/>
      <point x="420.735" y="405.9" type="curve"/>
      <point x="420.735" y="415.023733351"/>
      <point x="414.49402447" y="420.992"/>
      <point x="405.3" y="420.992" type="curve"/>
      <point x="395.365306813" y="420.992"/>
      <point x="389.165" y="414.255122172"/>
      <point x="389.165" y="405.9" type="curve"/>
      <point x="420.735" y="405.9"/>
      <point x="389.165" y="405.9"/>
      <point x="420.735" y="405.9" type="curve"/>
      <point x="420.735" y="396.015955536"/>
      <point x="414.49402447" y="390.808"/>
      <point x="405.3" y="390.808" type="curve"/>
      <point x="395.365306813" y="390.808"/>
      <point x="389.165" y="396.785321267"/>
      <point x="389.165" y="405.9" type="curve"/>
    </contour>
    <contour>
      <point x="296.3" y="521.837777778"/>
      <point x="272.1" y="543.397777778"/>
      <point x="296.3" y="521.837777778" type="curve"/>
      <point x="296.3" y="584.631964644"/>
      <point x="296.3" y="647.428035356"/>
      <point x="296.3" y="710.222222222" type="curve"/>
      <point x="272.1" y="710.222222222"/>
      <point x="296.3" y="710.222222222"/>
      <point x="272.1" y="710.222222222" type="curve"/>
      <point x="272.1" y="654.614630156"/>
      <point x="272.1" y="599.005369844"/>
      <point x="272.1" y="543.397777778" type="curve"/>
    </contour>
    <contour>
      <point x="272.1" y="543.397777778"/>
      <point x="296.3" y="521.837777778"/>
      <point x="272.1" y="543.397777778" type="curve"/>
      <point x="229.933755" y="543.397777778"/>
      <point x="187.766245" y="543.397777778"/>
      <point x="145.6" y="543.397777778" type="curve"/>
      <point x="70.5287528543" y="543.397777778"/>
      <point x="28.5" y="496.74739241"/>
      <point x="28.5" y="416.875555556" type="curve"/>
      <point x="28.5" y="349.894524163"/>
      <point x="53.0967144566" y="309.605490928"/>
      <point x="100.9" y="266.206111111" type="curve"/>
      <point x="104.2" y="293.156111111"/>
      <point x="100.9" y="266.206111111"/>
      <point x="104.2" y="293.156111111" type="curve"/>
      <point x="69.3177743268" y="329.731430603"/>
      <point x="52.7" y="363.364929439"/>
      <point x="52.7" y="416.875555556" type="curve"/>
      <point x="52.7" y="482.569080959"/>
      <point x="85.5230027996" y="521.837777778"/>
      <point x="145.6" y="521.837777778" type="curve"/>
      <point x="195.832831" y="521.837777778"/>
      <point x="246.067169" y="521.837777778"/>
      <point x="296.3" y="521.837777778" type="curve"/>
    </contour>
    <contour>
      <point x="100.9" y="266.206111111"/>
      <point x="104.2" y="293.156111111"/>
      <point x="100.9" y="266.206111111" type="curve"/>
      <point x="144.974065385" y="295.708985817"/>
      <point x="176.103677231" y="309.466873014"/>
      <point x="229.2" y="309.311111111" type="curve"/>
      <point x="289.625544358" y="309.311111111"/>
      <point x="315.622478014" y="264.260228573"/>
      <point x="315.5" y="197.364444444" type="curve"/>
      <point x="315.5" y="107.373631916"/>
      <point x="267.247924157" y="51.5334444444"/>
      <point x="179.2" y="51.5334444444" type="curve"/>
      <point x="104.702011694" y="51.5334444444"/>
      <point x="76.5539800656" y="91.5316475967"/>
      <point x="46.6" y="127.083777778" type="curve"/>
      <point x="29.0" y="111.991777778"/>
      <point x="46.6" y="127.083777778"/>
      <point x="29.0" y="111.991777778" type="curve"/>
      <point x="59.452429627" y="70.2919788472"/>
      <point x="94.7524682757" y="28.8954444444"/>
      <point x="179.2" y="28.8954444444" type="curve"/>
      <point x="282.479791953" y="28.8954444444"/>
      <point x="339.7" y="93.0230344168"/>
      <point x="339.7" y="197.364444444" type="curve"/>
      <point x="338.93650786" y="276.374956827"/>
      <point x="305.864333673" y="330.871111111"/>
      <point x="231.4" y="330.871111111" type="curve"/>
      <point x="179.491826883" y="331.74436992"/>
      <point x="146.562880551" y="321.465945506"/>
      <point x="104.2" y="293.156111111" type="curve"/>
    </contour>
    <contour>
      <point x="-10.5" y="700.44"/>
      <point x="-10.5" y="722"/>
      <point x="-10.5" y="700.44" type="curve"/>
      <point x="158.198313" y="700.44"/>
      <point x="357" y="700"/>
      <point x="526" y="700" type="curve"/>
      <point x="526" y="722"/>
      <point x="526" y="700"/>
      <point x="526" y="722" type="curve"/>
      <point x="357" y="722"/>
      <point x="158.198313" y="722"/>
      <point x="-10.5" y="722" type="curve"/>
    </contour>
  </outline>
</glyph>
<glyph name="dvCA" format="1">
  <advance width="534"/>
  <unicode hex="091A"/>
  <outline>
    <contour>
      <point x="46.2" y="493.9"/>
      <point x="46.2" y="515.46"/>
      <point x="46.2" y="493.9" type="curve"/>
      <point x="127.632519" y="493.9"/>
      <point x="209.067481" y="493.9"/>
      <point x="290.5" y="493.9" type="curve"/>
      <point x="290.5" y="515.46"/>
      <point x="290.5" y="493.9"/>
      <point x="290.5" y="515.46" type="curve"/>
      <point x="209.067481" y="515.46"/>
      <point x="127.632519" y="515.46"/>
      <point x="46.2" y="515.46" type="curve"/>
    </contour>
    <contour>
      <point x="399.5" y="710"/>
      <point x="423.7" y="710"/>
      <point x="399.5" y="710" type="curve"/>
      <point x="399.5" y="473.3357"/>
      <point x="399.5" y="236.6643"/>
      <point x="399.5" y="1.45213821436e-15" type="curve"/>
      <point x="423.7" y="-2.90427642873e-15"/>
      <point x="399.5" y="1.45213821436e-15"/>
      <point x="423.7" y="-2.90427642873e-15" type="curve"/>
      <point x="423.7" y="236.6643"/>
      <point x="423.7" y="473.3357"/>
      <point x="423.7" y="710" type="curve"/>
    </contour>
    <contour>
      <point x="403" y="299"/>
      <point x="420.4" y="289.796777778"/>
      <point x="402.8" y="299.498777778" type="curve"/>
      <point x="381.970212861" y="238.444883516"/>
      <point x="342.785712555" y="177.213333333"/>
      <point x="273.4" y="177.213333333" type="curve"/>
      <point x="195.421264198" y="177.213333333"/>
      <point x="161.2" y="239.915882878"/>
      <point x="161.2" y="322.126777778" type="curve"/>
      <point x="161.2" y="419.99234205"/>
      <point x="197.726715896" y="493.980222222"/>
      <point x="290.5" y="493.980222222" type="curve"/>
      <point x="290.5" y="513.384222222"/>
      <point x="290.5" y="493.980222222"/>
      <point x="290.5" y="513.384222222" type="curve"/>
      <point x="182.27039017" y="513.384222222"/>
      <point x="137" y="432.621781815"/>
      <point x="137" y="321.048777778" type="curve"/>
      <point x="137" y="226.889350531"/>
      <point x="181.075677199" y="155.653333333"/>
      <point x="271.2" y="155.653333333" type="curve"/>
      <point x="350.865128513" y="155.653333333"/>
      <point x="399" y="219"/>
      <point x="420" y="290" type="curve"/>
    </contour>
    <contour>
      <point x="540" y="722"/>
      <point x="540" y="700"/>
      <point x="540" y="722" type="curve"/>
      <point x="356.988425926" y="722.0"/>
      <point x="174.257124028" y="722.0"/>
      <point x="-8.4" y="722" type="curve"/>
      <point x="-8.4" y="700.44"/>
      <point x="-8.4" y="722"/>
      <point x="-8.4" y="700.44" type="curve"/>
      <point x="174.257124028" y="700.44"/>
      <point x="356.988425926" y="700.0"/>
      <point x="540" y="700" type="curve"/>
    </contour>
  </outline>
</glyph>
<glyph name="dvTTHA" format="1">
  <advance width="454"/>
  <unicode hex="0920"/>
  <outline>
    <contour>
      <point x="217.5" y="711.22"/>
      <point x="241.7" y="711.22"/>
      <point x="217.5" y="711.22" type="curve"/>
      <point x="217.5" y="645.034735933"/>
      <point x="217.5" y="578.847486289"/>
      <point x="217.5" y="512.662222222" type="curve"/>
      <point x="241.7" y="512.662222222"/>
      <point x="217.5" y="512.662222222"/>
      <point x="241.7" y="512.662222222" type="curve"/>
      <point x="241.7" y="578.847486289"/>
      <point x="241.7" y="645.034735933"/>
      <point x="241.7" y="711.22" type="curve"/>
    </contour>
    <contour>
      <point x="469.7" y="722"/>
      <point x="469.7" y="700.44"/>
      <point x="469.7" y="722" type="curve"/>
      <point x="310.568258" y="722"/>
      <point x="151.431742" y="722"/>
      <point x="-7.7" y="722" type="curve"/>
      <point x="-7.7" y="700.44"/>
      <point x="-7.7" y="722"/>
      <point x="-7.7" y="700.44" type="curve"/>
      <point x="151.431742" y="700.44"/>
      <point x="310.568258" y="700.44"/>
      <point x="469.7" y="700.44" type="curve"/>
    </contour>
    <contour>
      <point x="230.3" y="501.802"/>
      <point x="230.3" y="525.518"/>
      <point x="230.3" y="501.802" type="curve"/>
      <point x="344.159046943" y="501.802"/>
      <point x="384.8" y="406.425348269"/>
      <point x="384.8" y="283.173333333" type="curve"/>
      <point x="384.8" y="154.641910937"/>
      <point x="343.611889125" y="56.4822222222"/>
      <point x="228.9" y="56.4822222222" type="curve"/>
      <point x="116.266058337" y="56.4822222222"/>
      <point x="66.7" y="146.352018843"/>
      <point x="66.7" y="269.204444444" type="curve"/>
      <point x="66.7" y="399.875842048"/>
      <point x="109.74308423" y="501.802"/>
      <point x="230.3" y="501.802" type="curve"/>
      <point x="230.3" y="525.518"/>
      <point x="230.3" y="501.802"/>
      <point x="230.3" y="525.518" type="curve"/>
      <point x="94.9185182417" y="525.518"/>
      <point x="42.5" y="414.804305709"/>
      <point x="42.5" y="269.204444444" type="curve"/>
      <point x="42.5" y="131.581387832"/>
      <point x="101.559162228" y="34.9222222222"/>
      <point x="228.9" y="34.9222222222" type="curve"/>
      <point x="358.048662348" y="34.9222222222"/>
      <point x="409" y="139.911107853"/>
      <point x="409" y="283.173333333" type="curve"/>
      <point x="409" y="420.484440709"/>
      <point x="359.008842939" y="525.518"/>
      <point x="230.3" y="525.518" type="curve"/>
    </contour>
  </outline>
</glyph>
<glyph name="dvLA" format="1">
  <advance width="601"/>
  <unicode hex="0932"/>
  <outline>
    <contour>
      <point x="444.3" y="709.224444444"/>
      <point x="468.5" y="709.224444444"/>
      <point x="444.3" y="709.224444444" type="curve"/>
      <point x="444.3" y="473.086065111"/>
      <point x="444.3" y="236.940601556"/>
      <point x="444.3" y="0.802222222222" type="curve"/>
      <point x="468.5" y="0.802222222222"/>
      <point x="444.3" y="0.802222222222"/>
      <point x="468.5" y="0.802222222222" type="curve"/>
      <point x="468.5" y="236.940601556"/>
      <point x="468.5" y="473.086065111"/>
      <point x="468.5" y="709.224444444" type="curve"/>
    </contour>
    <contour>
      <point x="608" y="722"/>
      <point x="608" y="700"/>
      <point x="608" y="722" type="curve"/>
      <point x="420" y="722"/>
      <point x="179.431455" y="722"/>
      <point x="-8.4" y="722" type="curve"/>
      <point x="-8.4" y="700.44"/>
      <point x="-7" y="722"/>
      <point x="-7" y="700" type="curve"/>
      <point x="180" y="700"/>
      <point x="420" y="700"/>
      <point x="608" y="700" type="curve"/>
    </contour>
    <contour>
      <point x="458.5" y="467.446333333"/>
      <point x="450.8" y="449.120333333"/>
      <point x="458.5" y="467.446333333" type="curve"/>
      <point x="431.886775206" y="492.141457047"/>
      <point x="406.292073193" y="510.471111111"/>
      <point x="368.6" y="510.471111111" type="curve"/>
      <point x="260.163546025" y="510.471111111"/>
      <point x="251.2" y="404.62004385"/>
      <point x="251.2" y="277.186666667" type="curve"/>
      <point x="271.0" y="277.186666667"/>
      <point x="251.2" y="277.186666667"/>
      <point x="271.0" y="277.186666667" type="curve"/>
      <point x="271.0" y="385.940576222"/>
      <point x="275" y="489"/>
      <point x="366.4" y="488.911111111" type="curve"/>
      <point x="401.789304704" y="488.911111111"/>
      <point x="425.087610653" y="473.824659712"/>
      <point x="450.8" y="449.120333333" type="curve"/>
    </contour>
    <contour>
      <point x="208.9" y="9.46633333333"/>
      <point x="195.7" y="-8.85966666667"/>
      <point x="208.9" y="9.46633333333" type="curve"/>
      <point x="115.367156544" y="102.494987535"/>
      <point x="59.7" y="191.840858652"/>
      <point x="59.7" y="328.113444444" type="curve"/>
      <point x="59.7" y="418.19995658"/>
      <point x="87" y="492"/>
      <point x="152.9" y="491.904444444" type="curve"/>
      <point x="210.375257235" y="491.904444444"/>
      <point x="240.228894361" y="453.613732075"/>
      <point x="271.7" y="404.260444444" type="curve"/>
      <point x="282.7" y="421.508444444"/>
      <point x="271.7" y="404.260444444"/>
      <point x="282.7" y="421.508444444" type="curve"/>
      <point x="249.383710802" y="473.554954786"/>
      <point x="215.984761584" y="513.464444444"/>
      <point x="155.1" y="513.464444444" type="curve"/>
      <point x="67.0992306862" y="513.464444444"/>
      <point x="35.5" y="431.031344942"/>
      <point x="35.5" y="327.035444444" type="curve"/>
      <point x="35.5" y="183.273666402"/>
      <point x="94.9048808662" y="88.7999328246"/>
      <point x="195.7" y="-8.85966666667" type="curve"/>
    </contour>
    <contour>
      <point x="455.0" y="0"/>
      <point x="455.0" y="21.56"/>
      <point x="455.0" y="0" type="curve"/>
      <point x="496.699583" y="0"/>
      <point x="538.400417" y="0"/>
      <point x="580.1" y="0" type="curve"/>
      <point x="580.1" y="21.56"/>
      <point x="580.1" y="0"/>
      <point x="580.1" y="21.56" type="curve"/>
      <point x="455.0" y="21.56"/>
      <point x="580.1" y="21.56"/>
      <point x="455.0" y="21.56" type="curve"/>
    </contour>
    <contour>
      <point x="455.0" y="21.56"/>
      <point x="455.0" y="0"/>
      <point x="455.0" y="21.56" type="curve"/>
      <point x="322.9" y="21.56"/>
      <point x="455.0" y="21.56"/>
      <point x="322.9" y="21.56" type="curve"/>
      <point x="322.9" y="0"/>
      <point x="322.9" y="21.56"/>
      <point x="322.9" y="0" type="curve"/>
      <point x="366.932893" y="-5.3922960545e-15"/>
      <point x="410.967107" y="5.3922960545e-15"/>
      <point x="455.0" y="0" type="curve"/>
    </contour>
  </outline>
</glyph>
<glyph name="dvmAA" format="1">
  <advance width="282"/>
  <unicode hex="093E"/>
  <outline>
    <contour>
      <point x="147" y="22"/>
      <point x="147" y="0"/>
      <point x="147" y="22" type="curve"/>
      <point x="14" y="22"/>
      <point x="147" y="22"/>
      <point x="14" y="22" type="curve"/>
      <point x="14" y="0"/>
      <point x="14" y="22"/>
      <point x="14" y="0" type="curve"/>
      <point x="58" y="0"/>
      <point x="102" y="0"/>
      <point x="147" y="0" type="curve"/>
    </contour>
    <contour>
      <point x="147" y="0"/>
      <point x="147" y="22"/>
      <point x="147" y="0" type="curve"/>
      <point x="191" y="0"/>
      <point x="235" y="0"/>
      <point x="279" y="0" type="curve"/>
      <point x="279" y="22"/>
      <point x="279" y="0"/>
      <point x="279" y="22" type="curve"/>
      <point x="147" y="22"/>
      <point x="279" y="22"/>
      <point x="147" y="22" type="curve"/>
    </contour>
    <contour>
      <point x="289" y="722"/>
      <point x="289" y="700"/>
      <point x="289" y="722" type="curve"/>
      <point x="189.707317073" y="722.0"/>
      <point x="91.5306122449" y="722.0"/>
      <point x="-6" y="722" type="curve"/>
      <point x="-6" y="700"/>
      <point x="-6" y="722"/>
      <point x="-6" y="700" type="curve"/>
      <point x="91.5306122449" y="700.0"/>
      <point x="189.707317073" y="700.0"/>
      <point x="289" y="700" type="curve"/>
    </contour>
    <contour>
      <point x="134" y="722"/>
      <point x="159" y="722"/>
      <point x="134" y="722" type="curve"/>
      <point x="134" y="481"/>
      <point x="134" y="241"/>
      <point x="134" y="0" type="curve"/>
      <point x="159" y="0"/>
      <point x="134" y="0"/>
      <point x="159" y="0" type="curve"/>
      <point x="159" y="241"/>
      <point x="159" y="481"/>
      <point x="159" y="722" type="curve"/>
    </contour>
  </outline>
</glyph>
<glyph name="dvmI" format="1">
  <advance width="287"/>
  <unicode hex="093F"/>
  <outline>
    <contour>
      <point x="153" y="715"/>
      <point x="136" y="705"/>
      <point x="153" y="715" type="curve"/>
      <point x="145" y="746"/>
      <point x="135" y="792"/>
      <point x="135" y="836" type="curve"/>
      <point x="135" y="908"/>
      <point x="185" y="959"/>
      <point x="256" y="959" type="curve"/>
      <point x="398" y="959"/>
      <point x="474" y="842"/>
      <point x="530" y="702" type="curve"/>
      <point x="547" y="713"/>
      <point x="530" y="702"/>
      <point x="547" y="713" type="curve"/>
      <point x="490" y="859"/>
      <point x="409" y="980"/>
      <point x="258" y="980" type="curve"/>
      <point x="172" y="980"/>
      <point x="112" y="920"/>
      <point x="112" y="834" type="curve"/>
      <point x="112" y="787"/>
      <point x="124" y="739"/>
      <point x="136" y="705" type="curve"/>
    </contour>
    <contour>
      <point x="129" y="710"/>
      <point x="154" y="710"/>
      <point x="129" y="710" type="curve"/>
      <point x="129" y="473"/>
      <point x="129" y="237"/>
      <point x="129" y="0" type="curve"/>
      <point x="154" y="0"/>
      <point x="129" y="0"/>
      <point x="154" y="0" type="curve"/>
      <point x="154" y="237"/>
      <point x="154" y="473"/>
      <point x="154" y="710" type="curve"/>
    </contour>
    <contour>
      <point x="293" y="724"/>
      <point x="293" y="700"/>
      <point x="293" y="724" type="curve"/>
      <point x="224" y="724"/>
      <point x="60" y="724"/>
      <point x="-8" y="724" type="curve"/>
      <point x="-8" y="700"/>
      <point x="-8" y="724"/>
      <point x="-8" y="700" type="curve"/>
      <point x="60" y="700"/>
      <point x="224" y="700"/>
      <point x="293" y="700" type="curve"/>
    </contour>
    <contour>
      <point x="142" y="0"/>
      <point x="142" y="22"/>
      <point x="142" y="0" type="curve"/>
      <point x="184" y="0"/>
      <point x="226" y="0"/>
      <point x="267" y="0" type="curve"/>
      <point x="267" y="22"/>
      <point x="267" y="0"/>
      <point x="267" y="22" type="curve"/>
      <point x="142" y="22"/>
      <point x="267" y="22"/>
      <point x="142" y="22" type="curve"/>
    </contour>
    <contour>
      <point x="142" y="22"/>
      <point x="142" y="0"/>
      <point x="142" y="22" type="curve"/>
      <point x="10" y="22"/>
      <point x="142" y="22"/>
      <point x="10" y="22" type="curve"/>
      <point x="10" y="0"/>
      <point x="10" y="22"/>
      <point x="10" y="0" type="curve"/>
      <point x="54" y="0"/>
      <point x="98" y="0"/>
      <point x="142" y="0" type="curve"/>
    </contour>
  </outline>
</glyph>
<glyph name="dvmII" format="1">
  <advance width="274"/>
  <unicode hex="0940"/>
  <outline>
    <contour>
      <point x="-52" y="710"/>
      <point x="-49" y="716"/>
      <point x="-44" y="722" type="curve"/>
      <point x="-82" y="764"/>
      <point x="-97" y="808"/>
      <point x="-97" y="864" type="curve"/>
      <point x="-97" y="926"/>
      <point x="-63" y="977"/>
      <point x="-12" y="977" type="curve"/>
      <point x="106" y="977"/>
      <point x="112" y="839"/>
      <point x="130" y="704" type="curve"/>
      <point x="138" y="708"/>
      <point x="144" y="710"/>
      <point x="152" y="714" type="curve"/>
      <point x="132" y="856"/>
      <point x="121" y="998"/>
      <point x="-9" y="998" type="curve"/>
      <point x="-80" y="998"/>
      <point x="-120" y="938"/>
      <point x="-120" y="862" type="curve"/>
      <point x="-120" y="799"/>
      <point x="-100" y="750"/>
      <point x="-57" y="704" type="curve"/>
    </contour>
    <contour>
      <point x="127" y="710"/>
      <point x="152" y="710"/>
      <point x="127" y="710" type="curve"/>
      <point x="127" y="473"/>
      <point x="127" y="237"/>
      <point x="127" y="0" type="curve"/>
      <point x="152" y="0"/>
      <point x="127" y="0"/>
      <point x="152" y="0" type="curve"/>
      <point x="152" y="237"/>
      <point x="152" y="473"/>
      <point x="152" y="710" type="curve"/>
    </contour>
    <contour>
      <point x="282" y="724"/>
      <point x="282" y="700"/>
      <point x="282" y="724" type="curve"/>
      <point x="213" y="724"/>
      <point x="65" y="724"/>
      <point x="-3" y="724" type="curve"/>
      <point x="-3" y="700"/>
      <point x="-3" y="724"/>
      <point x="-3" y="700" type="curve"/>
      <point x="65" y="700"/>
      <point x="213" y="700"/>
      <point x="282" y="700" type="curve"/>
    </contour>
    <contour>
      <point x="140" y="0"/>
      <point x="140" y="22"/>
      <point x="140" y="0" type="curve"/>
      <point x="182" y="0"/>
      <point x="224" y="0"/>
      <point x="265" y="0" type="curve"/>
      <point x="265" y="22"/>
      <point x="265" y="0"/>
      <point x="265" y="22" type="curve"/>
      <point x="140" y="22"/>
      <point x="265" y="22"/>
      <point x="140" y="22" type="curve"/>
    </contour>
    <contour>
      <point x="140" y="22"/>
      <point x="140" y="0"/>
      <point x="140" y="22" type="curve"/>
      <point x="8" y="22"/>
      <point x="140" y="22"/>
      <point x="8" y="22" type="curve"/>
      <point x="8" y="0"/>
      <point x="8" y="22"/>
      <point x="8" y="0" type="curve"/>
      <point x="52" y="0"/>
      <point x="96" y="0"/>
      <point x="140" y="0" type="curve"/>
    </contour>
  </outline>
</glyph>
<glyph name="dvmU" format="1">
  <advance width="0"/>
  <unicode hex="0941"/>
  <outline>
    <contour>
      <point x="-161" y="-27.8575555556"/>
      <point x="-168.7" y="-8.45355555556"/>
      <point x="-161" y="-27.8575555556" type="curve"/>
      <point x="-140.077951291" y="-15.7791579466"/>
      <point x="-124.788716279" y="-11.9733333333"/>
      <point x="-102.4" y="-11.9733333333" type="curve"/>
      <point x="-31.9965057239" y="-11.9733333333"/>
      <point x="-6.5" y="-78.1722931235"/>
      <point x="-6.5" y="-157.844444444" type="curve"/>
      <point x="-6.5" y="-231.246445629"/>
      <point x="-38.6155741039" y="-289.746666667"/>
      <point x="-106.4" y="-289.746666667" type="curve"/>
      <point x="-226.885377004" y="-289.746666667"/>
      <point x="-272.837697114" y="-186.297771499"/>
      <point x="-331.9" y="-77.4606666667" type="curve"/>
      <point x="-350.6" y="-92.5526666667"/>
      <point x="-331.9" y="-77.4606666667"/>
      <point x="-350.6" y="-92.5526666667" type="curve"/>
      <point x="-288.365212541" y="-208.118084969"/>
      <point x="-233.927414646" y="-311.306666667"/>
      <point x="-106.4" y="-311.306666667" type="curve"/>
      <point x="-24.793410188" y="-311.306666667"/>
      <point x="17.7" y="-245.04537386"/>
      <point x="17.7" y="-157.844444444" type="curve"/>
      <point x="17.7" y="-65.3259189897"/>
      <point x="-18.2945748254" y="9.58666666667"/>
      <point x="-101.3" y="9.58666666667" type="curve"/>
      <point x="-127.013048354" y="9.58666666667"/>
      <point x="-145.997807734" y="4.3332676572"/>
      <point x="-168.7" y="-8.45355555556" type="curve"/>
    </contour>
  </outline>
</glyph>
<glyph name="dvmvR" format="1">
  <advance width="0"/>
  <unicode hex="0943"/>
  <outline>
    <contour>
      <point x="13.9" y="-206.053666667"/>
      <point x="26" y="-224.379666667"/>
      <point x="13.9" y="-206.053666667" type="curve"/>
      <point x="-29.9468710419" y="-248.093606281"/>
      <point x="-67.1374531111" y="-287.751111111"/>
      <point x="-127.9" y="-287.751111111" type="curve"/>
      <point x="-196.335075859" y="-287.751111111"/>
      <point x="-226.6" y="-223.120912974"/>
      <point x="-226.6" y="-146.868888889" type="curve"/>
      <point x="-226.6" y="-73.6868279456"/>
      <point x="-195.60021015" y="-11.9733333333"/>
      <point x="-129.3" y="-11.9733333333" type="curve"/>
      <point x="-111.166848" y="-11.9733333333"/>
      <point x="-93.033152" y="-11.9733333333"/>
      <point x="-74.9" y="-11.9733333333" type="curve"/>
      <point x="-74.9" y="9.58666666667"/>
      <point x="-74.9" y="-11.9733333333"/>
      <point x="-74.9" y="9.58666666667" type="curve"/>
      <point x="-93.399815" y="9.58666666667"/>
      <point x="-111.900185" y="9.58666666667"/>
      <point x="-130.4" y="9.58666666667" type="curve"/>
      <point x="-209.492915337" y="9.58666666667"/>
      <point x="-250.8" y="-60.8415821914"/>
      <point x="-250.8" y="-146.868888889" type="curve"/>
      <point x="-250.8" y="-235.954948258"/>
      <point x="-210.15796333" y="-309.311111111"/>
      <point x="-129" y="-309.311111111" type="curve"/>
      <point x="-63.0538156599" y="-309.311111111"/>
      <point x="-20.5946243544" y="-270.811636733"/>
      <point x="26" y="-224.379666667" type="curve"/>
    </contour>
  </outline>
</glyph>
<glyph name="dvvLL" format="1">
  <advance width="572"/>
  <unicode hex="0961"/>
  <outline>
    <contour>
      <point x="530.1" y="-231.955777778"/>
      <point x="544.4" y="-251.359777778"/>
      <point x="530.1" y="-231.955777778" type="curve"/>
      <point x="504.830238726" y="-262.573324205"/>
      <point x="481.629492091" y="-287.751111111"/>
      <point x="442.6" y="-287.751111111" type="curve"/>
      <point x="391.607344725" y="-287.751111111"/>
      <point x="363.24932345" y="-245.491889801"/>
      <point x="364" y="-190.610666667" type="curve"/>
      <point x="364.792286926" y="-154.738663802"/>
      <point x="374.380538785" y="-127.445695589"/>
      <point x="395.5" y="-99.4568888889" type="curve"/>
      <point x="380.1" y="-86.5208888889"/>
      <point x="395.5" y="-99.4568888889"/>
      <point x="380.1" y="-86.5208888889" type="curve"/>
      <point x="352.726086626" y="-119.947834821"/>
      <point x="340.749806236" y="-152.644523127"/>
      <point x="340.9" y="-194.922666667" type="curve"/>
      <point x="341.043656528" y="-260.389644033"/>
      <point x="378.637802025" y="-309.311111111"/>
      <point x="441.5" y="-309.311111111" type="curve"/>
      <point x="485.81733195" y="-309.311111111"/>
      <point x="515.479531651" y="-285.090890213"/>
      <point x="544.4" y="-251.359777778" type="curve"/>
    </contour>
    <contour>
      <point x="186" y="37.4041111111"/>
      <point x="171.7" y="19.0781111111"/>
      <point x="186" y="37.4041111111" type="curve"/>
      <point x="96.9088584389" y="116.819318904"/>
      <point x="52.7" y="201.695428525"/>
      <point x="52.7" y="317.137888889" type="curve"/>
      <point x="52.7" y="412.563524484"/>
      <point x="75" y="500"/>
      <point x="148.7" y="499.886666667" type="curve"/>
      <point x="201.402684073" y="499.886666667"/>
      <point x="236" y="469"/>
      <point x="264" y="425" type="curve"/>
      <point x="275" y="442"/>
      <point x="264" y="425"/>
      <point x="275" y="442" type="curve"/>
      <point x="245" y="490"/>
      <point x="207.063102509" y="521.446666667"/>
      <point x="150.9" y="521.446666667" type="curve"/>
      <point x="56.2289942404" y="521.446666667"/>
      <point x="28.5" y="424.437165508"/>
      <point x="28.5" y="316.059888889" type="curve"/>
      <point x="28.5" y="193.178289295"/>
      <point x="76.2794493834" y="102.35441227"/>
      <point x="171.7" y="19.0781111111" type="curve"/>
    </contour>
    <contour>
      <point x="580" y="722"/>
      <point x="580" y="700"/>
      <point x="580" y="722" type="curve"/>
      <point x="383.322790371" y="722.0"/>
      <point x="187.264703" y="722.0"/>
      <point x="-9.1" y="722" type="curve"/>
      <point x="-9.1" y="700.44"/>
      <point x="-9.1" y="722"/>
      <point x="-9.1" y="700.44" type="curve"/>
      <point x="187.264703" y="700.44"/>
      <point x="383.322790371" y="700.0"/>
      <point x="580" y="700" type="curve"/>
    </contour>
    <contour>
      <point x="351.9" y="710.222222222"/>
      <point x="376.1" y="710.222222222"/>
      <point x="351.9" y="710.222222222" type="curve"/>
      <point x="351.9" y="643.704368889"/>
      <point x="351.9" y="577.18452"/>
      <point x="351.9" y="510.666666667" type="curve"/>
      <point x="376.1" y="510.666666667"/>
      <point x="351.9" y="510.666666667"/>
      <point x="376.1" y="510.666666667" type="curve"/>
      <point x="376.1" y="577.18452"/>
      <point x="376.1" y="643.704368889"/>
      <point x="376.1" y="710.222222222" type="curve"/>
    </contour>
    <contour>
      <point x="273.1" y="288.322666667"/>
      <point x="253.3" y="284.010666667"/>
      <point x="273.1" y="288.322666667" type="curve"/>
      <point x="257.035472312" y="400.939275071"/>
      <point x="275" y="497"/>
      <point x="361.3" y="496.893333333" type="curve"/>
      <point x="438.050404704" y="496.893333333"/>
      <point x="477.2" y="439.877850801"/>
      <point x="477.2" y="358.924222222" type="curve"/>
      <point x="477.2" y="292.152608805"/>
      <point x="451.963487229" y="251.423539387"/>
      <point x="415.3" y="196.010666667" type="curve"/>
      <point x="371.567529845" y="129.537868597"/>
      <point x="327.666316932" y="85.6834844883"/>
      <point x="326.9" y="5.751" type="curve"/>
      <point x="326.9" y="-62.0215268546"/>
      <point x="356.185788057" y="-111.751111111"/>
      <point x="418.9" y="-111.751111111" type="curve"/>
      <point x="457.612406827" y="-111.751111111"/>
      <point x="481.176567238" y="-93.8784257725"/>
      <point x="507.6" y="-64.7352222222" type="curve"/>
      <point x="495.5" y="-46.4092222222"/>
      <point x="507.6" y="-64.7352222222"/>
      <point x="495.5" y="-46.4092222222" type="curve"/>
      <point x="471.764233217" y="-70.2465371841"/>
      <point x="454.442306469" y="-90.1911111111"/>
      <point x="421.1" y="-90.1911111111" type="curve"/>
      <point x="371.16941566" y="-90.1911111111"/>
      <point x="350" y="-48.0830493883"/>
      <point x="350" y="6.829" type="curve"/>
      <point x="349.873335979" y="78.1331636578"/>
      <point x="390.980054155" y="119.617156818"/>
      <point x="429.6" y="178.762666667" type="curve"/>
      <point x="472.127578532" y="242.554597391"/>
      <point x="501.4" y="283.917579985"/>
      <point x="501.4" y="361.080222222" type="curve"/>
      <point x="501.4" y="453.100406916"/>
      <point x="452.637461994" y="518.453333333"/>
      <point x="364.6" y="518.453333333" type="curve"/>
      <point x="257.560020802" y="518.453333333"/>
      <point x="233.948537657" y="412.101352529"/>
      <point x="253.3" y="284.010666667" type="curve"/>
    </contour>
  </outline>
</glyph>
<glyph name="dvJ_NYA" format="1">
  <advance width="599"/>
  <unicode hex="E042"/>
  <outline>
    <contour>
      <point x="457.1" y="0"/>
      <point x="457.1" y="21.56"/>
      <point x="457.1" y="0" type="curve"/>
      <point x="501.132893" y="0"/>
      <point x="545.167107" y="0"/>
      <point x="589.2" y="0" type="curve"/>
      <point x="589.2" y="21.56"/>
      <point x="589.2" y="0"/>
      <point x="589.2" y="21.56" type="curve"/>
      <point x="457.1" y="21.56"/>
      <point x="589.2" y="21.56"/>
      <point x="457.1" y="21.56" type="curve"/>
    </contour>
    <contour>
      <point x="457.1" y="21.56"/>
      <point x="457.1" y="0"/>
      <point x="457.1" y="21.56" type="curve"/>
      <point x="332" y="21.56"/>
      <point x="457.1" y="21.56"/>
      <point x="332" y="21.56" type="curve"/>
      <point x="332" y="0"/>
      <point x="332" y="21.56"/>
      <point x="332" y="0" type="curve"/>
      <point x="373.699583" y="-5.10655742935e-15"/>
      <point x="415.400417" y="5.10655742935e-15"/>
      <point x="457.1" y="0" type="curve"/>
    </contour>
    <contour>
      <point x="445.0" y="710"/>
      <point x="469.2" y="710"/>
      <point x="445.0" y="710" type="curve"/>
      <point x="445.0" y="473.3357"/>
      <point x="445.0" y="236.6643"/>
      <point x="445.0" y="1.45213821436e-15" type="curve"/>
      <point x="469.2" y="-2.90427642873e-15"/>
      <point x="445.0" y="1.45213821436e-15"/>
      <point x="469.2" y="-2.90427642873e-15" type="curve"/>
      <point x="469.2" y="236.6643"/>
      <point x="469.2" y="473.3357"/>
      <point x="469.2" y="710" type="curve"/>
    </contour>
    <contour>
      <point x="-8.4" y="700.44"/>
      <point x="-8.4" y="722"/>
      <point x="-8.4" y="700.44" type="curve"/>
      <point x="197.434469856" y="700.44"/>
      <point x="403" y="700"/>
      <point x="609" y="700" type="curve"/>
      <point x="609" y="722"/>
      <point x="609" y="700"/>
      <point x="609" y="722" type="curve"/>
      <point x="403" y="722"/>
      <point x="197.434469856" y="722.0"/>
      <point x="-8.4" y="722" type="curve"/>
    </contour>
    <contour>
      <point x="457.1" y="524.44"/>
      <point x="457.1" y="502.88"/>
      <point x="457.1" y="524.44" type="curve"/>
      <point x="358.167656" y="524.44"/>
      <point x="259.232344" y="524.44"/>
      <point x="160.3" y="524.44" type="curve"/>
      <point x="160.3" y="502.88"/>
      <point x="160.3" y="524.44"/>
      <point x="160.3" y="502.88" type="curve"/>
      <point x="259.232344" y="502.88"/>
      <point x="358.167656" y="502.88"/>
      <point x="457.1" y="502.88" type="curve"/>
    </contour>
    <contour>
      <point x="160.3" y="502.88"/>
      <point x="160.3" y="524.44"/>
      <point x="160.3" y="502.88" type="curve"/>
      <point x="256.621511068" y="502.88"/>
      <point x="310.6" y="425.193196377"/>
      <point x="310.6" y="323.004222222" type="curve"/>
      <point x="310.6" y="231.299725728"/>
      <point x="276.000224054" y="160.251111111"/>
      <point x="197.6" y="160.251111111" type="curve"/>
      <point x="119.609898994" y="160.251111111"/>
      <point x="83.920186381" y="231.763688796"/>
      <point x="65" y="313.387444444" type="curve"/>
      <point x="46.3" y="305.841444444"/>
      <point x="65" y="313.387444444"/>
      <point x="46.3" y="305.841444444" type="curve"/>
      <point x="64.0347169166" y="213.716859338"/>
      <point x="109.33423043" y="138.691111111"/>
      <point x="196.5" y="138.691111111" type="curve"/>
      <point x="288.703636598" y="138.691111111"/>
      <point x="334.8" y="219.441295737"/>
      <point x="334.8" y="325.160222222" type="curve"/>
      <point x="334.8" y="438.266551496"/>
      <point x="268.76422251" y="524.44"/>
      <point x="160.3" y="524.44" type="curve"/>
    </contour>
    <contour>
      <point x="46.3" y="305.841444444"/>
      <point x="65" y="313.387444444"/>
      <point x="46.3" y="305.841444444" type="curve"/>
      <point x="64.931449048" y="211.073084903"/>
      <point x="83.468550952" y="116.283248431"/>
      <point x="102.1" y="21.5148888889" type="curve"/>
      <point x="121.9" y="27.9828888889"/>
      <point x="102.1" y="21.5148888889"/>
      <point x="121.9" y="27.9828888889" type="curve"/>
      <point x="102.965116321" y="123.123085303"/>
      <point x="83.934883679" y="218.24724803"/>
      <point x="65" y="313.387444444" type="curve"/>
    </contour>
  </outline>
</glyph>
<glyph name="dvC" format="1">
  <advance width="504"/>
  <unicode hex="E048"/>
  <outline>
    <contour>
      <point x="53.2" y="493.9"/>
      <point x="53.2" y="515.46"/>
      <point x="53.2" y="493.9" type="curve"/>
      <point x="132.299209" y="493.9"/>
      <point x="211.400791" y="493.9"/>
      <point x="290.5" y="493.9" type="curve"/>
      <point x="290.5" y="515.46"/>
      <point x="290.5" y="493.9"/>
      <point x="290.5" y="515.46" type="curve"/>
      <point x="211.400791" y="515.46"/>
      <point x="132.299209" y="515.46"/>
      <point x="53.2" y="515.46" type="curve"/>
    </contour>
    <contour>
      <point x="388.8" y="299.498777778"/>
      <point x="406.4" y="289.796777778"/>
      <point x="388.8" y="299.498777778" type="curve"/>
      <point x="364.218084596" y="235.61530549"/>
      <point x="336" y="177"/>
      <point x="273.4" y="177.213333333" type="curve"/>
      <point x="203" y="177"/>
      <point x="168.2" y="239.924807461"/>
      <point x="168.2" y="322.126777778" type="curve"/>
      <point x="168.2" y="419.062674969"/>
      <point x="211.270302036" y="493.980222222"/>
      <point x="290.5" y="493.980222222" type="curve"/>
      <point x="290.5" y="513.384222222"/>
      <point x="290.5" y="493.980222222"/>
      <point x="290.5" y="513.384222222" type="curve"/>
      <point x="193.300631247" y="513.384222222"/>
      <point x="144" y="430.757338912"/>
      <point x="144" y="321.048777778" type="curve"/>
      <point x="144" y="226.929783925"/>
      <point x="187.216815823" y="155.653333333"/>
      <point x="271.2" y="155.653333333" type="curve"/>
      <point x="344.828649175" y="155.653333333"/>
      <point x="381.286697098" y="216.383526722"/>
      <point x="406.4" y="289.796777778" type="curve"/>
    </contour>
    <contour>
      <point x="509.6" y="722"/>
      <point x="509.6" y="700.44"/>
      <point x="509.6" y="722" type="curve"/>
      <point x="336.93506" y="722"/>
      <point x="164.26494" y="722"/>
      <point x="-8.4" y="722" type="curve"/>
      <point x="-8.4" y="700.44"/>
      <point x="-8.4" y="722"/>
      <point x="-8.4" y="700.44" type="curve"/>
      <point x="164.26494" y="700.44"/>
      <point x="336.93506" y="700.44"/>
      <point x="509.6" y="700.44" type="curve"/>
    </contour>
  </outline>
</glyph>
<glyph name="dvJ" format="1">
  <advance width="498"/>
  <unicode hex="E04A"/>
  <outline>
    <contour>
      <point x="-8.4" y="700.44"/>
      <point x="-8.4" y="722"/>
      <point x="-8.4" y="700.44" type="curve"/>
      <point x="146.765115" y="700.44"/>
      <point x="301.934885" y="700.44"/>
      <point x="457.1" y="700.44" type="curve"/>
      <point x="457.1" y="722"/>
      <point x="457.1" y="700.44"/>
      <point x="457.1" y="722" type="curve"/>
      <point x="301.934885" y="722"/>
      <point x="146.765115" y="722"/>
      <point x="-8.4" y="722" type="curve"/>
    </contour>
    <contour>
      <point x="457.1" y="484.528888889"/>
      <point x="457.1" y="462.968888889"/>
      <point x="457.1" y="484.528888889" type="curve"/>
      <point x="353.501036" y="484.528888889"/>
      <point x="249.898964" y="484.528888889"/>
      <point x="146.3" y="484.528888889" type="curve"/>
      <point x="146.3" y="462.968888889"/>
      <point x="146.3" y="484.528888889"/>
      <point x="146.3" y="462.968888889" type="curve"/>
      <point x="249.898964" y="462.968888889"/>
      <point x="353.501036" y="462.968888889"/>
      <point x="457.1" y="462.968888889" type="curve"/>
    </contour>
    <contour>
      <point x="146.3" y="462.968888889"/>
      <point x="146.3" y="484.528888889"/>
      <point x="146.3" y="462.968888889" type="curve"/>
      <point x="242.521302142" y="462.968888889"/>
      <point x="296.6" y="385.282085266"/>
      <point x="296.6" y="283.093111111" type="curve"/>
      <point x="296.6" y="192.218705988"/>
      <point x="258.377622531" y="120.34"/>
      <point x="176.6" y="120.34" type="curve"/>
      <point x="98.0557855901" y="120.34"/>
      <point x="60.7495509968" y="192.157550295"/>
      <point x="41.9" y="273.476333333" type="curve"/>
      <point x="23.2" y="265.930333333"/>
      <point x="41.9" y="273.476333333"/>
      <point x="23.2" y="265.930333333" type="curve"/>
      <point x="40.8752750895" y="174.1148504"/>
      <point x="87.7567223405" y="98.78"/>
      <point x="175.5" y="98.78" type="curve"/>
      <point x="271.274223137" y="98.78"/>
      <point x="320.8" y="180.359226013"/>
      <point x="320.8" y="285.249111111" type="curve"/>
      <point x="320.8" y="398.355440385"/>
      <point x="254.669820876" y="484.528888889"/>
      <point x="146.3" y="484.528888889" type="curve"/>
    </contour>
  </outline>
</glyph>
<glyph name="dvNY" format="1"><advance width="656"/><unicode hex="E04C"/><outline><contour><point x="295.4" y="321.2042222222222"/><point x="295.4" y="344.9202222222222"/><point x="295.4" y="321.2042222222222" type="curve"/><point x="352.5700925009121" y="294.4113321652001"/><point x="394.62087754059905" y="291.17185790977476"/><point x="446.6" y="326.31344444444443" type="curve"/><point x="438.9" y="346.7954444444444"/><point x="446.6" y="326.31344444444443"/><point x="438.9" y="346.7954444444444" type="curve"/><point x="389.2872220499676" y="313.293489269867"/><point x="350.22661182623676" y="319.48296833346865"/><point x="295.4" y="344.9202222222222" type="curve"/></contour><contour><point x="83.89999999999999" y="477.0982222222222"/><point x="72.89999999999999" y="494.34622222222225"/><point x="83.89999999999999" y="477.0982222222222" type="curve"/><point x="108.17125656563421" y="504.60978229086055"/><point x="131.1792081973307" y="523.8333333333334"/><point x="168" y="523.8333333333334" type="curve"/><point x="257.8086771424346" y="523.8333333333334"/><point x="281.8172430765033" y="436.1491096009844"/><point x="282.59999999999997" y="334.06" type="curve"/><point x="283.3715437741379" y="229.80965248006555"/><point x="246.67261023427588" y="145.28444444444443"/><point x="152.8" y="145.28444444444443" type="curve"/><point x="93.29760094655146" y="145.28444444444443"/><point x="66.08205236208134" y="191.70425373491693"/><point x="41.5" y="247.6544444444444" type="curve"/><point x="25" y="236.87444444444444"/><point x="41.5" y="247.6544444444444"/><point x="25" y="236.87444444444444" type="curve"/><point x="52.23960814778641" y="173.5487454689079"/><point x="84.60278721448111" y="123.72444444444444"/><point x="151.7" y="123.72444444444443" type="curve"/><point x="258.486181409545" y="123.72444444444442"/><point x="306.6566511764167" y="216.53562853800366"/><point x="306.8" y="334.06" type="curve"/><point x="306.9457687062261" y="449.6489037832681"/><point x="270.24145813697703" y="545.3933333333333"/><point x="168" y="545.3933333333333" type="curve"/><point x="126.41049068019248" y="545.3933333333333"/><point x="99.36826700719553" y="526.5536524756847"/><point x="72.89999999999999" y="494.34622222222225" type="curve"/></contour><contour><point x="444.5" y="722"/><point x="444.5" y="700.44"/><point x="444.5" y="722" type="curve"/><point x="293.768174" y="722"/><point x="143.03182600000002" y="722"/><point x="-7.699999999999998" y="722" type="curve"/><point x="-7.700000000000001" y="700.44"/><point x="-7.699999999999998" y="722"/><point x="-7.700000000000001" y="700.44" type="curve"/><point x="143.03182600000002" y="700.44"/><point x="293.768174" y="700.44"/><point x="444.5" y="700.44" type="curve"/></contour></outline></glyph>
<glyph name="dvT" format="1"><advance width="532"/><unicode hex="E04E"/><outline><contour><point x="197.5" y="17.488666666666667"/><point x="185.39999999999998" y="-1.9153333333333373"/><point x="197.5" y="17.488666666666667" type="curve"/><point x="106.80118757557803" y="79.65574923817823"/><point x="71.6" y="159.6272985064926"/><point x="71.6" y="257.2311111111111" type="curve"/><point x="71.6" y="373.15198790905185"/><point x="108.1179104763262" y="447.0044444444444"/><point x="192" y="447.0044444444444" type="curve"/><point x="246.532788" y="447.0044444444444"/><point x="301.0672119999999" y="447.0044444444444"/><point x="355.59999999999997" y="447.0044444444444" type="curve"/><point x="355.59999999999997" y="468.56444444444446"/><point x="355.59999999999997" y="447.0044444444444"/><point x="355.59999999999997" y="468.56444444444446" type="curve"/><point x="300.70054899999997" y="468.56444444444446"/><point x="245.79945099999998" y="468.56444444444446"/><point x="190.89999999999998" y="468.56444444444446" type="curve"/><point x="94.71795021908872" y="468.56444444444446"/><point x="47.4" y="387.13288818467936"/><point x="47.39999999999999" y="257.2311111111111" type="curve"/><point x="47.399999999999984" y="151.17272968118846"/><point x="84.18320192954023" y="65.24049718999"/><point x="185.39999999999998" y="-1.9153333333333373" type="curve"/></contour><contour><point x="-8.399999999999999" y="702.5157777777778"/><point x="-8.399999999999999" y="721.9197777777778"/><point x="-8.399999999999999" y="702.5157777777778" type="curve"/><point x="112.46545799999998" y="702.5157777777778"/><point x="233.334542" y="702.5157777777778"/><point x="354.2" y="702.5157777777778" type="curve"/><point x="354.2" y="721.9197777777778"/><point x="354.2" y="702.5157777777778"/><point x="354.2" y="721.9197777777778" type="curve"/><point x="233.334542" y="721.9197777777778"/><point x="112.46545799999998" y="721.9197777777778"/><point x="-8.399999999999999" y="721.9197777777778" type="curve"/></contour></outline></glyph>
<glyph name="dvTH" format="1"><advance width="548"/><unicode hex="E04F"/><outline><contour><point x="54.1" y="369.17777777777775"/><point x="29.9" y="390.7377777777778"/><point x="54.1" y="369.17777777777775" type="curve"/><point x="168.18715407331413" y="369.17777777777775"/><point x="243.6583456125363" y="440.30239289376624"/><point x="243.79999999999998" y="568.5377777777777" type="curve"/><point x="243.95531356588737" y="656.4903015306314"/><point x="225.20242665231314" y="727"/><point x="147.9" y="727" type="curve"/><point x="87.6564199618521" y="727"/><point x="61.338732324919214" y="679.4461738756006"/><point x="60.699999999999996" y="614.3553333333333" type="curve"/><point x="60.699999999999996" y="568.8913570957523"/><point x="76.10220560897301" y="537.884901226456"/><point x="110.69999999999999" y="507.9892222222222" type="curve"/><point x="121.69999999999999" y="526.3152222222222"/><point x="110.69999999999999" y="507.9892222222222"/><point x="121.69999999999999" y="526.3152222222222" type="curve"/><point x="93.5754175344442" y="551.857125160134"/><point x="84.9" y="578.3249478856231"/><point x="84.9" y="616.5113333333333" type="curve"/><point x="85.58247126876431" y="666.6008027337922"/><point x="101.39364396043436" y="705.44"/><point x="146.79999999999998" y="705.44" type="curve"/><point x="210.61500531054534" y="705.44"/><point x="218.7824885387922" y="642.4913818106329"/><point x="219.6" y="568.5377777777777" type="curve"/><point x="220.35894620270486" y="453.3296201401674"/><point x="145.0160881623203" y="390.7377777777778"/><point x="29.9" y="390.7377777777778" type="curve"/></contour><contour><point x="29.9" y="390.7377777777778"/><point x="54.1" y="369.1777777777778"/><point x="29.9" y="390.7377777777778" type="curve"/><point x="29.900000000000006" y="254.3716532046333"/><point x="76.36073813667556" y="150.66444444444443"/><point x="200.29999999999998" y="150.66444444444443" type="curve"/><point x="293.6185170562054" y="150.66444444444443"/><point x="346.3152302357197" y="202.56715408682058"/><point x="380.7" y="292.8302222222222" type="curve"/><point x="361.99999999999994" y="301.4542222222222"/><point x="380.7" y="292.8302222222222"/><point x="361.99999999999994" y="301.4542222222222" type="curve"/><point x="332.2242120934954" y="224.3204507911692"/><point x="285.67243698495884" y="172.22444444444443"/><point x="203.6" y="172.22444444444443" type="curve"/><point x="94.49894201400546" y="172.22444444444443"/><point x="54.10000000000001" y="273.5092097028809"/><point x="54.1" y="369.1777777777778" type="curve"/></contour></outline></glyph>
<glyph name="dvDH" format="1"><advance width="581"/><unicode hex="E051"/><outline><contour><point x="371.79999999999995" y="313.38744444444444"/><point x="390.5" y="305.8414444444444"/><point x="371.79999999999995" y="313.38744444444444" type="curve"/><point x="349.1886888961919" y="218.01728681711634"/><point x="305.4731516528711" y="153.26666666666665"/><point x="222.29999999999998" y="153.26666666666665" type="curve"/><point x="140.33851030383184" y="153.26666666666665"/><point x="82.7830628579277" y="210.21656583601253"/><point x="83.5" y="291.1956666666666" type="curve"/><point x="84.19695567556062" y="374.01149272412204"/><point x="148.972382489082" y="427.1692222222222"/><point x="234.49999999999997" y="427.1692222222222" type="curve"/><point x="234.49999999999997" y="445.4952222222222"/><point x="234.49999999999997" y="427.1692222222222"/><point x="234.49999999999997" y="445.4952222222222" type="curve"/><point x="135.02962114322952" y="445.4952222222222"/><point x="59.16805907859209" y="385.17072753909247"/><point x="59.29999999999999" y="290.11766666666665" type="curve"/><point x="59.43567979707326" y="196.91725319501916"/><point x="126.57172776369562" y="131.70666666666665"/><point x="220.1" y="131.70666666666665" type="curve"/><point x="312.9045119961315" y="131.70666666666665"/><point x="366.40440753432597" y="200.57116363641592"/><point x="390.5" y="305.8414444444444" type="curve"/></contour><contour><point x="249.19999999999996" y="535.1297777777778"/><point x="233.79999999999998" y="548.0657777777777"/><point x="249.19999999999996" y="535.1297777777778" type="curve"/><point x="265.5692366655493" y="559.383314873739"/><point x="270.7" y="582.6830839361294"/><point x="270.7" y="611.5224444444444" type="curve"/><point x="270.7" y="676.3245855745647"/><point x="233.95956123867904" y="727"/><point x="173.29999999999998" y="727" type="curve"/><point x="103.11606119769033" y="727"/><point x="67.54661543816326" y="662.0412682979484"/><point x="67.69999999999999" y="585.4598888888888" type="curve"/><point x="67.8335122478808" y="487.0380156729761"/><point x="139.7444365904692" y="427.1692222222222"/><point x="234.49999999999997" y="427.1692222222222" type="curve"/><point x="234.49999999999997" y="445.4952222222222"/><point x="234.49999999999997" y="427.1692222222222"/><point x="234.49999999999997" y="445.4952222222222" type="curve"/><point x="151.9590058743549" y="445.4952222222222"/><point x="91.18559070500079" y="499.06463122403363"/><point x="91.9" y="586.5378888888888" type="curve"/><point x="92.69645790677639" y="649.2382148528216"/><point x="115.12907394650351" y="705.44"/><point x="171.1" y="705.44" type="curve"/><point x="220.73363515755665" y="705.44"/><point x="248.7" y="662.2746375682865"/><point x="248.7" y="609.3664444444445" type="curve"/><point x="248.7" y="586.7555017396064"/><point x="244.73171239467982" y="568.0838168557905"/><point x="233.79999999999998" y="548.0657777777777" type="curve"/></contour></outline></glyph>
<glyph name="dvP" format="1"><advance width="453"/><unicode hex="E053"/><outline><contour><point x="296.9" y="369.3031111111111"/><point x="315.6" y="360.67911111111107"/><point x="296.9" y="369.3031111111111" type="curve"/><point x="276.46772122511516" y="304.0672076601874"/><point x="243.20698804616893" y="260.069"/><point x="178.7" y="260.069" type="curve"/><point x="101.40352813082522" y="260.069"/><point x="80.69999999999999" y="333.98539742647137"/><point x="80.69999999999999" y="423.7396666666666" type="curve"/><point x="80.69999999999999" y="518.9003076433333"/><point x="80.69999999999999" y="614.0638034677777"/><point x="80.69999999999999" y="709.2244444444444" type="curve"/><point x="56.49999999999999" y="709.2244444444444"/><point x="80.69999999999999" y="709.2244444444444"/><point x="56.49999999999999" y="709.2244444444444" type="curve"/><point x="56.499999999999986" y="615.1417926877778"/><point x="56.5" y="521.0563184233333"/><point x="56.49999999999999" y="426.97366666666665" type="curve"/><point x="56.499999999999986" y="322.1147171450727"/><point x="87.43536820186408" y="237.43099999999998"/><point x="177.6" y="237.43099999999998" type="curve"/><point x="251.15534281573554" y="237.43099999999998"/><point x="294.3250578154745" y="286.2234534149187"/><point x="315.6" y="360.67911111111107" type="curve"/></contour><contour><point x="-8.399999999999999" y="700.44"/><point x="-8.399999999999999" y="722"/><point x="-8.399999999999999" y="700.44" type="curve"/><point x="97.99893599999999" y="700.44"/><point x="204.401064" y="700.44"/><point x="310.79999999999995" y="700.44" type="curve"/><point x="310.79999999999995" y="722"/><point x="310.79999999999995" y="700.44"/><point x="310.79999999999995" y="722" type="curve"/><point x="204.401064" y="722"/><point x="97.99893599999999" y="722"/><point x="-8.399999999999999" y="722" type="curve"/></contour></outline></glyph>
<glyph name="dvPH" format="1"><advance width="883"/><unicode hex="E054"/><outline><contour><point x="309.4" y="21.560000000000002"/><point x="309.4" y="0"/><point x="309.4" y="21.560000000000002" type="curve"/><point x="177.29999999999998" y="21.560000000000002"/><point x="309.4" y="21.560000000000002"/><point x="177.29999999999998" y="21.560000000000002" type="curve"/><point x="177.29999999999998" y="0"/><point x="177.29999999999998" y="21.560000000000002"/><point x="177.29999999999998" y="0" type="curve"/><point x="221.332893" y="-5.392296054498091e-15"/><point x="265.367107" y="5.392296054498091e-15"/><point x="309.4" y="0" type="curve"/></contour><contour><point x="309.4" y="0"/><point x="309.4" y="21.560000000000002"/><point x="309.4" y="0" type="curve"/><point x="351.09958299999994" y="0"/><point x="392.80041700000004" y="0"/><point x="434.5" y="0" type="curve"/><point x="434.5" y="21.560000000000002"/><point x="434.5" y="0"/><point x="434.5" y="21.560000000000002" type="curve"/><point x="309.4" y="21.560000000000002"/><point x="434.5" y="21.560000000000002"/><point x="309.4" y="21.560000000000002" type="curve"/></contour><contour><point x="625.0999999999999" y="722"/><point x="625.0999999999999" y="700.44"/><point x="625.0999999999999" y="722" type="curve"/><point x="413.93544499999996" y="722"/><point x="202.764555" y="722"/><point x="-8.399999999999999" y="722" type="curve"/><point x="-8.4" y="700.44"/><point x="-8.399999999999999" y="722"/><point x="-8.4" y="700.44" type="curve"/><point x="202.764555" y="700.44"/><point x="413.93544499999996" y="700.44"/><point x="625.0999999999999" y="700.44" type="curve"/></contour><contour><point x="55.09999999999999" y="709.2244444444444"/><point x="79.29999999999998" y="709.2244444444444"/><point x="55.09999999999999" y="709.2244444444444" type="curve"/><point x="55.099999999999994" y="615.1417926877778"/><point x="55.09999999999998" y="521.0563184233333"/><point x="55.09999999999999" y="426.97366666666665" type="curve"/><point x="55.099999999999994" y="315.3524442293742"/><point x="84.57091219810982" y="223.38188888888888"/><point x="180.5" y="223.38188888888888" type="curve"/><point x="253.36879602902695" y="223.38188888888888"/><point x="298.2024639556033" y="274.0690113876497"/><point x="318.8" y="346.54977777777776" type="curve"/><point x="305.59999999999997" y="359.4857777777778"/><point x="318.8" y="346.54977777777776"/><point x="305.59999999999997" y="359.4857777777778" type="curve"/><point x="285.6674042918688" y="295.63738709188095"/><point x="249.12537437472028" y="248.17588888888886"/><point x="184.89999999999998" y="248.17588888888886" type="curve"/><point x="102.20633928324493" y="248.17588888888886"/><point x="79.29999999999998" y="327.40843703949736"/><point x="79.29999999999998" y="423.7396666666666" type="curve"/><point x="79.29999999999998" y="518.9003076433333"/><point x="79.29999999999998" y="614.0638034677777"/><point x="79.29999999999998" y="709.2244444444444" type="curve"/></contour><contour><point x="296.59999999999997" y="710"/><point x="320.8" y="710"/><point x="296.59999999999997" y="710" type="curve"/><point x="296.59999999999997" y="473.3357"/><point x="296.59999999999997" y="236.6643"/><point x="296.59999999999997" y="1.452138214362575e-15" type="curve"/><point x="320.8" y="-2.90427642872515e-15"/><point x="296.59999999999997" y="1.452138214362575e-15"/><point x="320.8" y="-2.90427642872515e-15" type="curve"/><point x="320.8" y="236.6643"/><point x="320.8" y="473.3357"/><point x="320.8" y="710" type="curve"/></contour><contour><point x="575.6" y="315.1022222222222"/><point x="551.4" y="315.1022222222222"/><point x="575.6" y="315.1022222222222" type="curve"/><point x="575.6" y="406.3136389039058"/><point x="528.2658284683074" y="483.53111111111104"/><point x="443.79999999999995" y="483.53111111111104" type="curve"/><point x="361.1055672567764" y="483.53111111111104"/><point x="315.19144145924895" y="411.54761542725646"/><point x="300.4" y="325.08" type="curve"/><point x="319.1" y="325.08"/><point x="300.4" y="325.08"/><point x="319.1" y="325.08" type="curve"/><point x="333.2264563522712" y="399.25339255599175"/><point x="373.04722178033" y="461.9711111111111"/><point x="443.79999999999995" y="461.9711111111111" type="curve"/><point x="514.6717056792268" y="461.9711111111111"/><point x="551.4" y="393.5162400967715"/><point x="551.4" y="315.1022222222222" type="curve"/></contour></outline></glyph>
<glyph name="dvBH" format="1"><advance width="611"/><unicode hex="E056"/><outline><contour><point x="419.29999999999995" y="343.8422222222222"/><point x="419.29999999999995" y="322.28222222222223"/><point x="419.29999999999995" y="343.8422222222222" type="curve"/><point x="329.767562" y="343.8422222222222"/><point x="240.23243799999997" y="343.8422222222222"/><point x="150.7" y="343.8422222222222" type="curve"/><point x="96.84571583628784" y="343.8422222222222"/><point x="66.1" y="297.9728551248668"/><point x="66.1" y="240.22877777777776" type="curve"/><point x="66.1" y="184.18099023871216"/><point x="89.46797029046878" y="136.69555555555553"/><point x="139.79999999999998" y="136.69555555555553" type="curve"/><point x="197.31568484410838" y="136.69555555555553"/><point x="222.1" y="192.5917414672172"/><point x="222.1" y="257.2311111111111" type="curve"/><point x="222.1" y="368.64851544444446"/><point x="222.1" y="480.0692623333333"/><point x="222.1" y="591.4866666666667" type="curve"/><point x="222.1" y="664.1662026697567"/><point x="193.7017559636747" y="727"/><point x="128.29999999999998" y="727" type="curve"/><point x="68.57387007981438" y="727"/><point x="39.338180887046505" y="671.9894964957924"/><point x="38.699999999999996" y="605.4154444444445" type="curve"/><point x="38.699999999999996" y="570.2156085587734"/><point x="46.431433077761405" y="542.033668750747"/><point x="67.6" y="514.1363333333334" type="curve"/><point x="80.79999999999998" y="528.1503333333333"/><point x="67.6" y="514.1363333333334"/><point x="80.79999999999998" y="528.1503333333333" type="curve"/><point x="64.03571444387704" y="552.1022506854023"/><point x="60.699999999999996" y="577.4005377510372"/><point x="60.699999999999996" y="606.4934444444444" type="curve"/><point x="61.376600209395285" y="659.1727366694947"/><point x="80.20771357136708" y="705.44"/><point x="127.19999999999999" y="705.44" type="curve"/><point x="180.18967626828208" y="705.44"/><point x="197.9" y="651.3849027339144"/><point x="197.9" y="591.4866666666667" type="curve"/><point x="197.9" y="480.0692623333333"/><point x="197.9" y="368.64851544444446"/><point x="197.9" y="257.2311111111111" type="curve"/><point x="197.9" y="205.38220395472436"/><point x="185.3816931283177" y="158.25555555555553"/><point x="140.9" y="158.25555555555553" type="curve"/><point x="102.8046842982681" y="158.25555555555553"/><point x="91.4" y="197.9460901955309"/><point x="91.4" y="241.30677777777774" type="curve"/><point x="91.4" y="285.22057035517287"/><point x="109.63612439701728" y="322.28222222222223"/><point x="149.59999999999997" y="322.28222222222223" type="curve"/><point x="239.49910099999997" y="322.28222222222223"/><point x="329.400899" y="322.28222222222223"/><point x="419.29999999999995" y="322.28222222222223" type="curve"/></contour></outline></glyph>
<glyph name="dvM" format="1"><advance width="619"/><unicode hex="E057"/><outline><contour><point x="-6.999999999999999" y="700.44"/><point x="-6.999999999999999" y="722"/><point x="-6.999999999999999" y="700.44" type="curve"/><point x="135.33191" y="700.44"/><point x="277.66809" y="700.44"/><point x="420" y="700.44" type="curve"/><point x="420" y="722"/><point x="420" y="700.44"/><point x="420" y="722" type="curve"/><point x="277.66809" y="722"/><point x="135.33191" y="722"/><point x="-6.999999999999999" y="722" type="curve"/></contour><contour><point x="419.29999999999995" y="343.8422222222222"/><point x="419.29999999999995" y="322.28222222222223"/><point x="419.29999999999995" y="343.8422222222222" type="curve"/><point x="329.767562" y="343.8422222222222"/><point x="240.23243799999997" y="343.8422222222222"/><point x="150.7" y="343.8422222222222" type="curve"/><point x="96.84571583628784" y="343.8422222222222"/><point x="66.1" y="297.9728551248668"/><point x="66.1" y="240.22877777777776" type="curve"/><point x="66.1" y="184.18099023871216"/><point x="89.46797029046878" y="136.69555555555553"/><point x="139.79999999999998" y="136.69555555555553" type="curve"/><point x="197.31568484410838" y="136.69555555555553"/><point x="222.1" y="192.5917414672172"/><point x="222.1" y="257.2311111111111" type="curve"/><point x="222.1" y="408.5592274444445"/><point x="222.1" y="559.8918836666667"/><point x="222.1" y="711.22" type="curve"/><point x="197.9" y="711.22"/><point x="222.1" y="711.22"/><point x="197.9" y="711.22" type="curve"/><point x="197.9" y="559.8918836666667"/><point x="197.9" y="408.5592274444445"/><point x="197.9" y="257.2311111111111" type="curve"/><point x="197.9" y="205.38220395472436"/><point x="185.3816931283177" y="158.25555555555553"/><point x="140.9" y="158.25555555555553" type="curve"/><point x="102.8046842982681" y="158.25555555555553"/><point x="91.4" y="197.9460901955309"/><point x="91.4" y="241.30677777777774" type="curve"/><point x="91.4" y="285.22057035517287"/><point x="109.63612439701728" y="322.28222222222223"/><point x="149.59999999999997" y="322.28222222222223" type="curve"/><point x="239.49910099999997" y="322.28222222222223"/><point x="329.400899" y="322.28222222222223"/><point x="419.29999999999995" y="322.28222222222223" type="curve"/></contour></outline></glyph>
<glyph name="dvY" format="1"><advance width="647"/><unicode hex="E058"/><outline><contour><point x="70.19999999999999" y="416.11344444444444"/><point x="45.99999999999999" y="436.5954444444444"/><point x="70.19999999999999" y="416.11344444444444" type="curve"/><point x="148.3633900731141" y="416.11344444444444"/><point x="200.39999999999998" y="469.4037154525555"/><point x="200.39999999999998" y="555.6468888888888" type="curve"/><point x="200.39999999999998" y="617.977167402308"/><point x="184.02412852480518" y="667.3009281823751"/><point x="147.89999999999998" y="717.728111111111" type="curve"/><point x="131.39999999999998" y="703.7141111111112"/><point x="147.89999999999998" y="717.728111111111"/><point x="131.39999999999998" y="703.7141111111112" type="curve"/><point x="165.8991286765653" y="656.7531447331439"/><point x="176.2" y="611.5596184227825"/><point x="176.2" y="553.4908888888889" type="curve"/><point x="176.2" y="485.39099547070106"/><point x="128.18293887420967" y="436.5954444444444"/><point x="45.99999999999999" y="436.5954444444444" type="curve"/></contour><contour><point x="45.99999999999999" y="436.5954444444444"/><point x="70.2" y="416.11344444444444"/><point x="45.99999999999999" y="436.5954444444444" type="curve"/><point x="46" y="292.4976755727366"/><point x="92.16508538541528" y="172.61555555555555"/><point x="212.79999999999998" y="172.61555555555555" type="curve"/><point x="285.14013553462433" y="172.61555555555555"/><point x="330.2017459425602" y="213.32085570570362"/><point x="369" y="279.65855555555555" type="curve"/><point x="356.9" y="293.67255555555556"/><point x="369" y="279.65855555555555"/><point x="356.9" y="293.67255555555556" type="curve"/><point x="318.2350790793859" y="233.49556117779434"/><point x="278.82529546630695" y="194.17555555555555"/><point x="212.79999999999998" y="194.17555555555555" type="curve"/><point x="105.19695046102078" y="194.17555555555555"/><point x="70.2" y="315.9503518747388"/><point x="70.2" y="416.11344444444444" type="curve"/></contour><contour><point x="460.59999999999997" y="722"/><point x="460.59999999999997" y="700.44"/><point x="460.59999999999997" y="722" type="curve"/><point x="304.26823" y="722"/><point x="147.93177000000003" y="722"/><point x="-8.399999999999999" y="722" type="curve"/><point x="-8.4" y="700.44"/><point x="-8.399999999999999" y="722"/><point x="-8.4" y="700.44" type="curve"/><point x="147.93177000000003" y="700.44"/><point x="304.26823" y="700.44"/><point x="460.59999999999997" y="700.44" type="curve"/></contour></outline></glyph>
